ISO-10303-21;
HEADER;
/* Generated by software containing ST-Developer
 * from STEP Tools, Inc. (www.steptools.com) 
 */

FILE_DESCRIPTION(
/* description */ (''),
/* implementation_level */ '2;1');

FILE_NAME(
/* name */ 'Part_2.step',
/* time_stamp */ '2026-05-05T20:53:32+02:00',
/* author */ (''),
/* organization */ (''),
/* preprocessor_version */ 'ST-DEVELOPER v20.1',
/* originating_system */ 'Autodesk Translation Framework v15.8.0.0',
/* authorisation */ '');

FILE_SCHEMA (('AUTOMOTIVE_DESIGN { 1 0 10303 214 3 1 1 }'));
ENDSEC;

DATA;
#10=MECHANICAL_DESIGN_GEOMETRIC_PRESENTATION_REPRESENTATION('',(#13,#14),
#875);
#11=SHAPE_REPRESENTATION_RELATIONSHIP('SRR','None',#882,#12);
#12=ADVANCED_BREP_SHAPE_REPRESENTATION('',(#15,#16),#874);
#13=STYLED_ITEM('',(#892),#15);
#14=STYLED_ITEM('',(#892),#16);
#15=MANIFOLD_SOLID_BREP('Body1',#510);
#16=MANIFOLD_SOLID_BREP('Body2',#511);
#17=B_SPLINE_SURFACE_WITH_KNOTS('',3,1,((#776,#777),(#778,#779),(#780,#781),
(#782,#783),(#784,#785),(#786,#787),(#788,#789)),.UNSPECIFIED.,.F.,.F.,
 .F.,(4,1,1,1,4),(2,2),(0.,0.285714285714286,0.571428571428571,0.785714285714286,
1.),(0.,2.28000000000001),.UNSPECIFIED.);
#18=B_SPLINE_CURVE_WITH_KNOTS('',3,(#757,#758,#759,#760,#761,#762,#763),
 .UNSPECIFIED.,.F.,.F.,(4,1,1,1,4),(0.,0.0280133879773674,0.0560267759547347,
0.0933779599245578,0.130729143894381),.UNSPECIFIED.);
#19=B_SPLINE_CURVE_WITH_KNOTS('',3,(#793,#794,#795,#796,#797,#798,#799),
 .UNSPECIFIED.,.F.,.F.,(4,1,1,1,4),(0.,0.0373511839701997,0.0747023679403994,
0.102715755918049,0.130729143895699),.UNSPECIFIED.);
#20=CIRCLE('',#531,0.5);
#21=CIRCLE('',#532,0.5);
#22=CIRCLE('',#535,1.5);
#23=CIRCLE('',#536,1.5);
#24=CIRCLE('',#537,3.99999999999999);
#25=CIRCLE('',#538,4.00000000000016);
#26=CIRCLE('',#541,4.00000000000016);
#27=CIRCLE('',#542,3.99999999999999);
#28=CIRCLE('',#543,1.5);
#29=CIRCLE('',#544,1.5);
#30=CIRCLE('',#553,0.5);
#31=CIRCLE('',#554,0.5);
#32=CIRCLE('',#559,1.2645);
#33=CIRCLE('',#560,1.2645);
#34=CIRCLE('',#563,1.2645);
#35=CIRCLE('',#564,1.2645);
#36=CYLINDRICAL_SURFACE('',#530,0.5);
#37=CYLINDRICAL_SURFACE('',#545,1.5);
#38=CYLINDRICAL_SURFACE('',#547,3.99999999999999);
#39=CYLINDRICAL_SURFACE('',#548,1.5);
#40=CYLINDRICAL_SURFACE('',#549,4.00000000000016);
#41=CYLINDRICAL_SURFACE('',#552,0.5);
#42=CYLINDRICAL_SURFACE('',#565,1.2645);
#43=CYLINDRICAL_SURFACE('',#566,1.2645);
#44=FACE_BOUND('',#79,.T.);
#45=FACE_BOUND('',#96,.T.);
#46=FACE_BOUND('',#102,.T.);
#47=FACE_BOUND('',#103,.T.);
#48=FACE_BOUND('',#106,.T.);
#49=FACE_BOUND('',#107,.T.);
#50=FACE_OUTER_BOUND('',#77,.T.);
#51=FACE_OUTER_BOUND('',#78,.T.);
#52=FACE_OUTER_BOUND('',#80,.T.);
#53=FACE_OUTER_BOUND('',#81,.T.);
#54=FACE_OUTER_BOUND('',#82,.T.);
#55=FACE_OUTER_BOUND('',#83,.T.);
#56=FACE_OUTER_BOUND('',#84,.T.);
#57=FACE_OUTER_BOUND('',#85,.T.);
#58=FACE_OUTER_BOUND('',#86,.T.);
#59=FACE_OUTER_BOUND('',#87,.T.);
#60=FACE_OUTER_BOUND('',#88,.T.);
#61=FACE_OUTER_BOUND('',#89,.T.);
#62=FACE_OUTER_BOUND('',#90,.T.);
#63=FACE_OUTER_BOUND('',#91,.T.);
#64=FACE_OUTER_BOUND('',#92,.T.);
#65=FACE_OUTER_BOUND('',#93,.T.);
#66=FACE_OUTER_BOUND('',#94,.T.);
#67=FACE_OUTER_BOUND('',#95,.T.);
#68=FACE_OUTER_BOUND('',#97,.T.);
#69=FACE_OUTER_BOUND('',#98,.T.);
#70=FACE_OUTER_BOUND('',#99,.T.);
#71=FACE_OUTER_BOUND('',#100,.T.);
#72=FACE_OUTER_BOUND('',#101,.T.);
#73=FACE_OUTER_BOUND('',#104,.T.);
#74=FACE_OUTER_BOUND('',#105,.T.);
#75=FACE_OUTER_BOUND('',#108,.T.);
#76=FACE_OUTER_BOUND('',#109,.T.);
#77=EDGE_LOOP('',(#327,#328,#329,#330));
#78=EDGE_LOOP('',(#331,#332,#333,#334));
#79=EDGE_LOOP('',(#335,#336,#337,#338));
#80=EDGE_LOOP('',(#339,#340,#341,#342));
#81=EDGE_LOOP('',(#343,#344,#345,#346));
#82=EDGE_LOOP('',(#347,#348,#349,#350));
#83=EDGE_LOOP('',(#351,#352,#353,#354));
#84=EDGE_LOOP('',(#355,#356,#357,#358));
#85=EDGE_LOOP('',(#359,#360,#361,#362,#363,#364,#365,#366,#367,#368,#369,
#370));
#86=EDGE_LOOP('',(#371,#372,#373,#374));
#87=EDGE_LOOP('',(#375,#376,#377,#378));
#88=EDGE_LOOP('',(#379,#380,#381,#382,#383,#384,#385,#386,#387,#388,#389,
#390));
#89=EDGE_LOOP('',(#391,#392,#393,#394));
#90=EDGE_LOOP('',(#395,#396,#397,#398));
#91=EDGE_LOOP('',(#399,#400,#401,#402));
#92=EDGE_LOOP('',(#403,#404,#405,#406));
#93=EDGE_LOOP('',(#407,#408,#409,#410));
#94=EDGE_LOOP('',(#411,#412,#413,#414));
#95=EDGE_LOOP('',(#415,#416,#417,#418));
#96=EDGE_LOOP('',(#419,#420,#421,#422));
#97=EDGE_LOOP('',(#423,#424,#425,#426));
#98=EDGE_LOOP('',(#427,#428,#429,#430));
#99=EDGE_LOOP('',(#431,#432,#433,#434,#435));
#100=EDGE_LOOP('',(#436,#437,#438,#439));
#101=EDGE_LOOP('',(#440,#441,#442,#443));
#102=EDGE_LOOP('',(#444));
#103=EDGE_LOOP('',(#445));
#104=EDGE_LOOP('',(#446,#447,#448,#449,#450));
#105=EDGE_LOOP('',(#451,#452,#453,#454));
#106=EDGE_LOOP('',(#455));
#107=EDGE_LOOP('',(#456));
#108=EDGE_LOOP('',(#457,#458,#459,#460));
#109=EDGE_LOOP('',(#461,#462,#463,#464));
#110=LINE('',#708,#161);
#111=LINE('',#710,#162);
#112=LINE('',#712,#163);
#113=LINE('',#713,#164);
#114=LINE('',#717,#165);
#115=LINE('',#719,#166);
#116=LINE('',#721,#167);
#117=LINE('',#722,#168);
#118=LINE('',#724,#169);
#119=LINE('',#726,#170);
#120=LINE('',#727,#171);
#121=LINE('',#730,#172);
#122=LINE('',#731,#173);
#123=LINE('',#734,#174);
#124=LINE('',#735,#175);
#125=LINE('',#737,#176);
#126=LINE('',#743,#177);
#127=LINE('',#746,#178);
#128=LINE('',#749,#179);
#129=LINE('',#751,#180);
#130=LINE('',#752,#181);
#131=LINE('',#755,#182);
#132=LINE('',#765,#183);
#133=LINE('',#768,#184);
#134=LINE('',#774,#185);
#135=LINE('',#791,#186);
#136=LINE('',#800,#187);
#137=LINE('',#803,#188);
#138=LINE('',#804,#189);
#139=LINE('',#809,#190);
#140=LINE('',#814,#191);
#141=LINE('',#816,#192);
#142=LINE('',#818,#193);
#143=LINE('',#819,#194);
#144=LINE('',#822,#195);
#145=LINE('',#825,#196);
#146=LINE('',#833,#197);
#147=LINE('',#836,#198);
#148=LINE('',#839,#199);
#149=LINE('',#841,#200);
#150=LINE('',#842,#201);
#151=LINE('',#845,#202);
#152=LINE('',#847,#203);
#153=LINE('',#848,#204);
#154=LINE('',#851,#205);
#155=LINE('',#853,#206);
#156=LINE('',#854,#207);
#157=LINE('',#856,#208);
#158=LINE('',#862,#209);
#159=LINE('',#869,#210);
#160=LINE('',#871,#211);
#161=VECTOR('',#571,10.);
#162=VECTOR('',#572,10.);
#163=VECTOR('',#573,10.);
#164=VECTOR('',#574,10.);
#165=VECTOR('',#577,10.);
#166=VECTOR('',#578,10.);
#167=VECTOR('',#579,10.);
#168=VECTOR('',#580,10.);
#169=VECTOR('',#581,10.);
#170=VECTOR('',#582,10.);
#171=VECTOR('',#583,10.);
#172=VECTOR('',#586,10.);
#173=VECTOR('',#587,10.);
#174=VECTOR('',#590,10.);
#175=VECTOR('',#591,10.);
#176=VECTOR('',#594,10.);
#177=VECTOR('',#599,10.);
#178=VECTOR('',#602,10.);
#179=VECTOR('',#605,10.);
#180=VECTOR('',#606,10.);
#181=VECTOR('',#607,10.);
#182=VECTOR('',#610,10.);
#183=VECTOR('',#611,10.);
#184=VECTOR('',#614,10.);
#185=VECTOR('',#619,10.);
#186=VECTOR('',#622,10.);
#187=VECTOR('',#623,10.);
#188=VECTOR('',#626,10.);
#189=VECTOR('',#627,10.);
#190=VECTOR('',#632,10.);
#191=VECTOR('',#637,10.);
#192=VECTOR('',#640,10.);
#193=VECTOR('',#643,10.);
#194=VECTOR('',#644,10.);
#195=VECTOR('',#649,10.);
#196=VECTOR('',#654,10.);
#197=VECTOR('',#663,10.);
#198=VECTOR('',#666,10.);
#199=VECTOR('',#669,10.);
#200=VECTOR('',#670,10.);
#201=VECTOR('',#671,10.);
#202=VECTOR('',#674,10.);
#203=VECTOR('',#675,10.);
#204=VECTOR('',#676,10.);
#205=VECTOR('',#679,10.);
#206=VECTOR('',#680,10.);
#207=VECTOR('',#681,10.);
#208=VECTOR('',#684,10.);
#209=VECTOR('',#691,10.);
#210=VECTOR('',#700,1.2645);
#211=VECTOR('',#703,1.2645);
#212=VERTEX_POINT('',#706);
#213=VERTEX_POINT('',#707);
#214=VERTEX_POINT('',#709);
#215=VERTEX_POINT('',#711);
#216=VERTEX_POINT('',#715);
#217=VERTEX_POINT('',#716);
#218=VERTEX_POINT('',#718);
#219=VERTEX_POINT('',#720);
#220=VERTEX_POINT('',#723);
#221=VERTEX_POINT('',#725);
#222=VERTEX_POINT('',#729);
#223=VERTEX_POINT('',#733);
#224=VERTEX_POINT('',#739);
#225=VERTEX_POINT('',#740);
#226=VERTEX_POINT('',#742);
#227=VERTEX_POINT('',#744);
#228=VERTEX_POINT('',#748);
#229=VERTEX_POINT('',#750);
#230=VERTEX_POINT('',#754);
#231=VERTEX_POINT('',#756);
#232=VERTEX_POINT('',#764);
#233=VERTEX_POINT('',#767);
#234=VERTEX_POINT('',#769);
#235=VERTEX_POINT('',#771);
#236=VERTEX_POINT('',#773);
#237=VERTEX_POINT('',#790);
#238=VERTEX_POINT('',#792);
#239=VERTEX_POINT('',#802);
#240=VERTEX_POINT('',#806);
#241=VERTEX_POINT('',#808);
#242=VERTEX_POINT('',#810);
#243=VERTEX_POINT('',#812);
#244=VERTEX_POINT('',#829);
#245=VERTEX_POINT('',#830);
#246=VERTEX_POINT('',#832);
#247=VERTEX_POINT('',#834);
#248=VERTEX_POINT('',#838);
#249=VERTEX_POINT('',#840);
#250=VERTEX_POINT('',#844);
#251=VERTEX_POINT('',#846);
#252=VERTEX_POINT('',#850);
#253=VERTEX_POINT('',#852);
#254=VERTEX_POINT('',#857);
#255=VERTEX_POINT('',#859);
#256=VERTEX_POINT('',#864);
#257=VERTEX_POINT('',#866);
#258=EDGE_CURVE('',#212,#213,#110,.T.);
#259=EDGE_CURVE('',#214,#212,#111,.T.);
#260=EDGE_CURVE('',#215,#214,#112,.T.);
#261=EDGE_CURVE('',#213,#215,#113,.T.);
#262=EDGE_CURVE('',#216,#217,#114,.T.);
#263=EDGE_CURVE('',#218,#217,#115,.T.);
#264=EDGE_CURVE('',#218,#219,#116,.T.);
#265=EDGE_CURVE('',#219,#216,#117,.T.);
#266=EDGE_CURVE('',#220,#215,#118,.T.);
#267=EDGE_CURVE('',#214,#221,#119,.T.);
#268=EDGE_CURVE('',#221,#220,#120,.T.);
#269=EDGE_CURVE('',#222,#212,#121,.T.);
#270=EDGE_CURVE('',#221,#222,#122,.T.);
#271=EDGE_CURVE('',#223,#222,#123,.T.);
#272=EDGE_CURVE('',#220,#223,#124,.T.);
#273=EDGE_CURVE('',#213,#223,#125,.T.);
#274=EDGE_CURVE('',#224,#225,#20,.T.);
#275=EDGE_CURVE('',#225,#226,#126,.T.);
#276=EDGE_CURVE('',#226,#227,#21,.T.);
#277=EDGE_CURVE('',#227,#224,#127,.T.);
#278=EDGE_CURVE('',#227,#228,#128,.T.);
#279=EDGE_CURVE('',#228,#229,#129,.T.);
#280=EDGE_CURVE('',#229,#224,#130,.T.);
#281=EDGE_CURVE('',#230,#226,#131,.T.);
#282=EDGE_CURVE('',#231,#230,#18,.T.);
#283=EDGE_CURVE('',#232,#231,#132,.T.);
#284=EDGE_CURVE('',#217,#232,#22,.T.);
#285=EDGE_CURVE('',#233,#216,#133,.T.);
#286=EDGE_CURVE('',#234,#233,#23,.T.);
#287=EDGE_CURVE('',#235,#234,#24,.T.);
#288=EDGE_CURVE('',#236,#235,#134,.T.);
#289=EDGE_CURVE('',#228,#236,#25,.T.);
#290=EDGE_CURVE('',#230,#237,#135,.T.);
#291=EDGE_CURVE('',#237,#238,#19,.T.);
#292=EDGE_CURVE('',#238,#231,#136,.T.);
#293=EDGE_CURVE('',#238,#239,#137,.T.);
#294=EDGE_CURVE('',#232,#239,#138,.T.);
#295=EDGE_CURVE('',#240,#229,#26,.T.);
#296=EDGE_CURVE('',#241,#240,#139,.T.);
#297=EDGE_CURVE('',#242,#241,#27,.T.);
#298=EDGE_CURVE('',#243,#242,#28,.T.);
#299=EDGE_CURVE('',#219,#243,#140,.T.);
#300=EDGE_CURVE('',#239,#218,#29,.T.);
#301=EDGE_CURVE('',#225,#237,#141,.T.);
#302=EDGE_CURVE('',#242,#234,#142,.T.);
#303=EDGE_CURVE('',#233,#243,#143,.T.);
#304=EDGE_CURVE('',#235,#241,#144,.T.);
#305=EDGE_CURVE('',#236,#240,#145,.T.);
#306=EDGE_CURVE('',#244,#245,#30,.T.);
#307=EDGE_CURVE('',#245,#246,#146,.T.);
#308=EDGE_CURVE('',#246,#247,#31,.T.);
#309=EDGE_CURVE('',#247,#244,#147,.T.);
#310=EDGE_CURVE('',#245,#248,#148,.T.);
#311=EDGE_CURVE('',#248,#249,#149,.T.);
#312=EDGE_CURVE('',#249,#246,#150,.T.);
#313=EDGE_CURVE('',#250,#244,#151,.T.);
#314=EDGE_CURVE('',#251,#250,#152,.T.);
#315=EDGE_CURVE('',#248,#251,#153,.T.);
#316=EDGE_CURVE('',#252,#250,#154,.T.);
#317=EDGE_CURVE('',#252,#253,#155,.T.);
#318=EDGE_CURVE('',#251,#253,#156,.T.);
#319=EDGE_CURVE('',#247,#252,#157,.T.);
#320=EDGE_CURVE('',#254,#254,#32,.T.);
#321=EDGE_CURVE('',#255,#255,#33,.T.);
#322=EDGE_CURVE('',#253,#249,#158,.T.);
#323=EDGE_CURVE('',#256,#256,#34,.T.);
#324=EDGE_CURVE('',#257,#257,#35,.T.);
#325=EDGE_CURVE('',#257,#254,#159,.T.);
#326=EDGE_CURVE('',#256,#255,#160,.T.);
#327=ORIENTED_EDGE('',*,*,#258,.F.);
#328=ORIENTED_EDGE('',*,*,#259,.F.);
#329=ORIENTED_EDGE('',*,*,#260,.F.);
#330=ORIENTED_EDGE('',*,*,#261,.F.);
#331=ORIENTED_EDGE('',*,*,#262,.T.);
#332=ORIENTED_EDGE('',*,*,#263,.F.);
#333=ORIENTED_EDGE('',*,*,#264,.T.);
#334=ORIENTED_EDGE('',*,*,#265,.T.);
#335=ORIENTED_EDGE('',*,*,#266,.T.);
#336=ORIENTED_EDGE('',*,*,#260,.T.);
#337=ORIENTED_EDGE('',*,*,#267,.T.);
#338=ORIENTED_EDGE('',*,*,#268,.T.);
#339=ORIENTED_EDGE('',*,*,#269,.F.);
#340=ORIENTED_EDGE('',*,*,#270,.F.);
#341=ORIENTED_EDGE('',*,*,#267,.F.);
#342=ORIENTED_EDGE('',*,*,#259,.T.);
#343=ORIENTED_EDGE('',*,*,#271,.F.);
#344=ORIENTED_EDGE('',*,*,#272,.F.);
#345=ORIENTED_EDGE('',*,*,#268,.F.);
#346=ORIENTED_EDGE('',*,*,#270,.T.);
#347=ORIENTED_EDGE('',*,*,#273,.F.);
#348=ORIENTED_EDGE('',*,*,#261,.T.);
#349=ORIENTED_EDGE('',*,*,#266,.F.);
#350=ORIENTED_EDGE('',*,*,#272,.T.);
#351=ORIENTED_EDGE('',*,*,#274,.T.);
#352=ORIENTED_EDGE('',*,*,#275,.T.);
#353=ORIENTED_EDGE('',*,*,#276,.T.);
#354=ORIENTED_EDGE('',*,*,#277,.T.);
#355=ORIENTED_EDGE('',*,*,#277,.F.);
#356=ORIENTED_EDGE('',*,*,#278,.T.);
#357=ORIENTED_EDGE('',*,*,#279,.T.);
#358=ORIENTED_EDGE('',*,*,#280,.T.);
#359=ORIENTED_EDGE('',*,*,#276,.F.);
#360=ORIENTED_EDGE('',*,*,#281,.F.);
#361=ORIENTED_EDGE('',*,*,#282,.F.);
#362=ORIENTED_EDGE('',*,*,#283,.F.);
#363=ORIENTED_EDGE('',*,*,#284,.F.);
#364=ORIENTED_EDGE('',*,*,#262,.F.);
#365=ORIENTED_EDGE('',*,*,#285,.F.);
#366=ORIENTED_EDGE('',*,*,#286,.F.);
#367=ORIENTED_EDGE('',*,*,#287,.F.);
#368=ORIENTED_EDGE('',*,*,#288,.F.);
#369=ORIENTED_EDGE('',*,*,#289,.F.);
#370=ORIENTED_EDGE('',*,*,#278,.F.);
#371=ORIENTED_EDGE('',*,*,#282,.T.);
#372=ORIENTED_EDGE('',*,*,#290,.T.);
#373=ORIENTED_EDGE('',*,*,#291,.T.);
#374=ORIENTED_EDGE('',*,*,#292,.T.);
#375=ORIENTED_EDGE('',*,*,#292,.F.);
#376=ORIENTED_EDGE('',*,*,#293,.T.);
#377=ORIENTED_EDGE('',*,*,#294,.F.);
#378=ORIENTED_EDGE('',*,*,#283,.T.);
#379=ORIENTED_EDGE('',*,*,#274,.F.);
#380=ORIENTED_EDGE('',*,*,#280,.F.);
#381=ORIENTED_EDGE('',*,*,#295,.F.);
#382=ORIENTED_EDGE('',*,*,#296,.F.);
#383=ORIENTED_EDGE('',*,*,#297,.F.);
#384=ORIENTED_EDGE('',*,*,#298,.F.);
#385=ORIENTED_EDGE('',*,*,#299,.F.);
#386=ORIENTED_EDGE('',*,*,#264,.F.);
#387=ORIENTED_EDGE('',*,*,#300,.F.);
#388=ORIENTED_EDGE('',*,*,#293,.F.);
#389=ORIENTED_EDGE('',*,*,#291,.F.);
#390=ORIENTED_EDGE('',*,*,#301,.F.);
#391=ORIENTED_EDGE('',*,*,#298,.T.);
#392=ORIENTED_EDGE('',*,*,#302,.T.);
#393=ORIENTED_EDGE('',*,*,#286,.T.);
#394=ORIENTED_EDGE('',*,*,#303,.T.);
#395=ORIENTED_EDGE('',*,*,#303,.F.);
#396=ORIENTED_EDGE('',*,*,#285,.T.);
#397=ORIENTED_EDGE('',*,*,#265,.F.);
#398=ORIENTED_EDGE('',*,*,#299,.T.);
#399=ORIENTED_EDGE('',*,*,#302,.F.);
#400=ORIENTED_EDGE('',*,*,#297,.T.);
#401=ORIENTED_EDGE('',*,*,#304,.F.);
#402=ORIENTED_EDGE('',*,*,#287,.T.);
#403=ORIENTED_EDGE('',*,*,#284,.T.);
#404=ORIENTED_EDGE('',*,*,#294,.T.);
#405=ORIENTED_EDGE('',*,*,#300,.T.);
#406=ORIENTED_EDGE('',*,*,#263,.T.);
#407=ORIENTED_EDGE('',*,*,#289,.T.);
#408=ORIENTED_EDGE('',*,*,#305,.T.);
#409=ORIENTED_EDGE('',*,*,#295,.T.);
#410=ORIENTED_EDGE('',*,*,#279,.F.);
#411=ORIENTED_EDGE('',*,*,#275,.F.);
#412=ORIENTED_EDGE('',*,*,#301,.T.);
#413=ORIENTED_EDGE('',*,*,#290,.F.);
#414=ORIENTED_EDGE('',*,*,#281,.T.);
#415=ORIENTED_EDGE('',*,*,#288,.T.);
#416=ORIENTED_EDGE('',*,*,#304,.T.);
#417=ORIENTED_EDGE('',*,*,#296,.T.);
#418=ORIENTED_EDGE('',*,*,#305,.F.);
#419=ORIENTED_EDGE('',*,*,#273,.T.);
#420=ORIENTED_EDGE('',*,*,#271,.T.);
#421=ORIENTED_EDGE('',*,*,#269,.T.);
#422=ORIENTED_EDGE('',*,*,#258,.T.);
#423=ORIENTED_EDGE('',*,*,#306,.T.);
#424=ORIENTED_EDGE('',*,*,#307,.T.);
#425=ORIENTED_EDGE('',*,*,#308,.T.);
#426=ORIENTED_EDGE('',*,*,#309,.T.);
#427=ORIENTED_EDGE('',*,*,#307,.F.);
#428=ORIENTED_EDGE('',*,*,#310,.T.);
#429=ORIENTED_EDGE('',*,*,#311,.T.);
#430=ORIENTED_EDGE('',*,*,#312,.T.);
#431=ORIENTED_EDGE('',*,*,#306,.F.);
#432=ORIENTED_EDGE('',*,*,#313,.F.);
#433=ORIENTED_EDGE('',*,*,#314,.F.);
#434=ORIENTED_EDGE('',*,*,#315,.F.);
#435=ORIENTED_EDGE('',*,*,#310,.F.);
#436=ORIENTED_EDGE('',*,*,#314,.T.);
#437=ORIENTED_EDGE('',*,*,#316,.F.);
#438=ORIENTED_EDGE('',*,*,#317,.T.);
#439=ORIENTED_EDGE('',*,*,#318,.F.);
#440=ORIENTED_EDGE('',*,*,#309,.F.);
#441=ORIENTED_EDGE('',*,*,#319,.T.);
#442=ORIENTED_EDGE('',*,*,#316,.T.);
#443=ORIENTED_EDGE('',*,*,#313,.T.);
#444=ORIENTED_EDGE('',*,*,#320,.T.);
#445=ORIENTED_EDGE('',*,*,#321,.T.);
#446=ORIENTED_EDGE('',*,*,#308,.F.);
#447=ORIENTED_EDGE('',*,*,#312,.F.);
#448=ORIENTED_EDGE('',*,*,#322,.F.);
#449=ORIENTED_EDGE('',*,*,#317,.F.);
#450=ORIENTED_EDGE('',*,*,#319,.F.);
#451=ORIENTED_EDGE('',*,*,#315,.T.);
#452=ORIENTED_EDGE('',*,*,#318,.T.);
#453=ORIENTED_EDGE('',*,*,#322,.T.);
#454=ORIENTED_EDGE('',*,*,#311,.F.);
#455=ORIENTED_EDGE('',*,*,#323,.T.);
#456=ORIENTED_EDGE('',*,*,#324,.T.);
#457=ORIENTED_EDGE('',*,*,#324,.F.);
#458=ORIENTED_EDGE('',*,*,#325,.T.);
#459=ORIENTED_EDGE('',*,*,#320,.F.);
#460=ORIENTED_EDGE('',*,*,#325,.F.);
#461=ORIENTED_EDGE('',*,*,#323,.F.);
#462=ORIENTED_EDGE('',*,*,#326,.T.);
#463=ORIENTED_EDGE('',*,*,#321,.F.);
#464=ORIENTED_EDGE('',*,*,#326,.F.);
#465=PLANE('',#525);
#466=PLANE('',#526);
#467=PLANE('',#527);
#468=PLANE('',#528);
#469=PLANE('',#529);
#470=PLANE('',#533);
#471=PLANE('',#534);
#472=PLANE('',#539);
#473=PLANE('',#540);
#474=PLANE('',#546);
#475=PLANE('',#550);
#476=PLANE('',#551);
#477=PLANE('',#555);
#478=PLANE('',#556);
#479=PLANE('',#557);
#480=PLANE('',#558);
#481=PLANE('',#561);
#482=PLANE('',#562);
#483=ADVANCED_FACE('',(#50),#465,.F.);
#484=ADVANCED_FACE('',(#51,#44),#466,.T.);
#485=ADVANCED_FACE('',(#52),#467,.F.);
#486=ADVANCED_FACE('',(#53),#468,.F.);
#487=ADVANCED_FACE('',(#54),#469,.F.);
#488=ADVANCED_FACE('',(#55),#36,.T.);
#489=ADVANCED_FACE('',(#56),#470,.T.);
#490=ADVANCED_FACE('',(#57),#471,.F.);
#491=ADVANCED_FACE('',(#58),#17,.T.);
#492=ADVANCED_FACE('',(#59),#472,.T.);
#493=ADVANCED_FACE('',(#60),#473,.T.);
#494=ADVANCED_FACE('',(#61),#37,.T.);
#495=ADVANCED_FACE('',(#62),#474,.F.);
#496=ADVANCED_FACE('',(#63),#38,.F.);
#497=ADVANCED_FACE('',(#64),#39,.T.);
#498=ADVANCED_FACE('',(#65),#40,.F.);
#499=ADVANCED_FACE('',(#66),#475,.T.);
#500=ADVANCED_FACE('',(#67,#45),#476,.T.);
#501=ADVANCED_FACE('',(#68),#41,.T.);
#502=ADVANCED_FACE('',(#69),#477,.T.);
#503=ADVANCED_FACE('',(#70),#478,.F.);
#504=ADVANCED_FACE('',(#71),#479,.F.);
#505=ADVANCED_FACE('',(#72,#46,#47),#480,.T.);
#506=ADVANCED_FACE('',(#73),#481,.F.);
#507=ADVANCED_FACE('',(#74,#48,#49),#482,.T.);
#508=ADVANCED_FACE('',(#75),#42,.F.);
#509=ADVANCED_FACE('',(#76),#43,.F.);
#510=CLOSED_SHELL('',(#483,#484,#485,#486,#487,#488,#489,#490,#491,#492,
#493,#494,#495,#496,#497,#498,#499,#500));
#511=CLOSED_SHELL('',(#501,#502,#503,#504,#505,#506,#507,#508,#509));
#512=DERIVED_UNIT_ELEMENT(#514,1.);
#513=DERIVED_UNIT_ELEMENT(#877,-3.);
#514=(
MASS_UNIT()
NAMED_UNIT(*)
SI_UNIT(.KILO.,.GRAM.)
);
#515=DERIVED_UNIT((#512,#513));
#516=MEASURE_REPRESENTATION_ITEM('density measure',
POSITIVE_RATIO_MEASURE(7850.),#515);
#517=PROPERTY_DEFINITION_REPRESENTATION(#522,#519);
#518=PROPERTY_DEFINITION_REPRESENTATION(#523,#520);
#519=REPRESENTATION('material name',(#521),#874);
#520=REPRESENTATION('density',(#516),#874);
#521=DESCRIPTIVE_REPRESENTATION_ITEM('Steel','Steel');
#522=PROPERTY_DEFINITION('material property','material name',#884);
#523=PROPERTY_DEFINITION('material property','density of part',#884);
#524=AXIS2_PLACEMENT_3D('',#704,#567,#568);
#525=AXIS2_PLACEMENT_3D('',#705,#569,#570);
#526=AXIS2_PLACEMENT_3D('',#714,#575,#576);
#527=AXIS2_PLACEMENT_3D('',#728,#584,#585);
#528=AXIS2_PLACEMENT_3D('',#732,#588,#589);
#529=AXIS2_PLACEMENT_3D('',#736,#592,#593);
#530=AXIS2_PLACEMENT_3D('',#738,#595,#596);
#531=AXIS2_PLACEMENT_3D('',#741,#597,#598);
#532=AXIS2_PLACEMENT_3D('',#745,#600,#601);
#533=AXIS2_PLACEMENT_3D('',#747,#603,#604);
#534=AXIS2_PLACEMENT_3D('',#753,#608,#609);
#535=AXIS2_PLACEMENT_3D('',#766,#612,#613);
#536=AXIS2_PLACEMENT_3D('',#770,#615,#616);
#537=AXIS2_PLACEMENT_3D('',#772,#617,#618);
#538=AXIS2_PLACEMENT_3D('',#775,#620,#621);
#539=AXIS2_PLACEMENT_3D('',#801,#624,#625);
#540=AXIS2_PLACEMENT_3D('',#805,#628,#629);
#541=AXIS2_PLACEMENT_3D('',#807,#630,#631);
#542=AXIS2_PLACEMENT_3D('',#811,#633,#634);
#543=AXIS2_PLACEMENT_3D('',#813,#635,#636);
#544=AXIS2_PLACEMENT_3D('',#815,#638,#639);
#545=AXIS2_PLACEMENT_3D('',#817,#641,#642);
#546=AXIS2_PLACEMENT_3D('',#820,#645,#646);
#547=AXIS2_PLACEMENT_3D('',#821,#647,#648);
#548=AXIS2_PLACEMENT_3D('',#823,#650,#651);
#549=AXIS2_PLACEMENT_3D('',#824,#652,#653);
#550=AXIS2_PLACEMENT_3D('',#826,#655,#656);
#551=AXIS2_PLACEMENT_3D('',#827,#657,#658);
#552=AXIS2_PLACEMENT_3D('',#828,#659,#660);
#553=AXIS2_PLACEMENT_3D('',#831,#661,#662);
#554=AXIS2_PLACEMENT_3D('',#835,#664,#665);
#555=AXIS2_PLACEMENT_3D('',#837,#667,#668);
#556=AXIS2_PLACEMENT_3D('',#843,#672,#673);
#557=AXIS2_PLACEMENT_3D('',#849,#677,#678);
#558=AXIS2_PLACEMENT_3D('',#855,#682,#683);
#559=AXIS2_PLACEMENT_3D('',#858,#685,#686);
#560=AXIS2_PLACEMENT_3D('',#860,#687,#688);
#561=AXIS2_PLACEMENT_3D('',#861,#689,#690);
#562=AXIS2_PLACEMENT_3D('',#863,#692,#693);
#563=AXIS2_PLACEMENT_3D('',#865,#694,#695);
#564=AXIS2_PLACEMENT_3D('',#867,#696,#697);
#565=AXIS2_PLACEMENT_3D('',#868,#698,#699);
#566=AXIS2_PLACEMENT_3D('',#870,#701,#702);
#567=DIRECTION('axis',(0.,0.,1.));
#568=DIRECTION('refdir',(1.,0.,0.));
#569=DIRECTION('center_axis',(0.,0.,1.));
#570=DIRECTION('ref_axis',(1.,0.,0.));
#571=DIRECTION('',(1.,0.,0.));
#572=DIRECTION('',(0.,-1.,-7.77156117237599E-15));
#573=DIRECTION('',(-1.,0.,0.));
#574=DIRECTION('',(0.,1.,0.));
#575=DIRECTION('center_axis',(0.,1.,7.77156117237599E-15));
#576=DIRECTION('ref_axis',(0.,-7.77156117237599E-15,1.));
#577=DIRECTION('',(0.,-7.77156117237599E-15,1.));
#578=DIRECTION('',(-1.,0.,0.));
#579=DIRECTION('',(0.,7.77156117237599E-15,-1.));
#580=DIRECTION('',(-1.,0.,0.));
#581=DIRECTION('',(0.,-7.77156117237599E-15,1.));
#582=DIRECTION('',(0.,7.77156117237599E-15,-1.));
#583=DIRECTION('',(1.,0.,0.));
#584=DIRECTION('center_axis',(-1.,0.,0.));
#585=DIRECTION('ref_axis',(0.,0.,1.));
#586=DIRECTION('',(0.,0.,1.));
#587=DIRECTION('',(0.,-1.,0.));
#588=DIRECTION('center_axis',(0.,0.,-1.));
#589=DIRECTION('ref_axis',(-1.,0.,0.));
#590=DIRECTION('',(-1.,0.,0.));
#591=DIRECTION('',(0.,-1.,0.));
#592=DIRECTION('center_axis',(1.,0.,0.));
#593=DIRECTION('ref_axis',(0.,0.,-1.));
#594=DIRECTION('',(0.,0.,-1.));
#595=DIRECTION('center_axis',(1.,0.,0.));
#596=DIRECTION('ref_axis',(0.,-0.707106781186522,-0.707106781186573));
#597=DIRECTION('center_axis',(-1.,0.,0.));
#598=DIRECTION('ref_axis',(0.,-0.707106781186522,-0.707106781186573));
#599=DIRECTION('',(-1.,0.,0.));
#600=DIRECTION('center_axis',(1.,0.,0.));
#601=DIRECTION('ref_axis',(0.,-0.707106781186522,-0.707106781186573));
#602=DIRECTION('',(1.,0.,0.));
#603=DIRECTION('center_axis',(0.,1.19904086659517E-14,-1.));
#604=DIRECTION('ref_axis',(1.,0.,0.));
#605=DIRECTION('',(0.,1.,1.19904086659517E-14));
#606=DIRECTION('',(1.,0.,0.));
#607=DIRECTION('',(0.,-1.,-1.19904086659517E-14));
#608=DIRECTION('center_axis',(1.,0.,0.));
#609=DIRECTION('ref_axis',(0.,1.,0.));
#610=DIRECTION('',(0.,1.19904086659517E-14,-1.));
#611=DIRECTION('',(0.,-1.,-1.1842378929335E-14));
#612=DIRECTION('center_axis',(1.,0.,0.));
#613=DIRECTION('ref_axis',(0.,0.707106781186541,0.707106781186554));
#614=DIRECTION('',(0.,1.,0.));
#615=DIRECTION('center_axis',(1.,0.,0.));
#616=DIRECTION('ref_axis',(0.,-0.825030098980832,-0.565088785745814));
#617=DIRECTION('center_axis',(-1.,0.,0.));
#618=DIRECTION('ref_axis',(0.,-8.88178419700127E-15,-1.));
#619=DIRECTION('',(0.,0.,-1.));
#620=DIRECTION('center_axis',(-1.,0.,0.));
#621=DIRECTION('ref_axis',(0.,1.,1.72084568816892E-14));
#622=DIRECTION('',(1.,0.,0.));
#623=DIRECTION('',(-1.,0.,0.));
#624=DIRECTION('center_axis',(0.,-1.1842378929335E-14,1.));
#625=DIRECTION('ref_axis',(1.,0.,0.));
#626=DIRECTION('',(0.,1.,1.1842378929335E-14));
#627=DIRECTION('',(1.,0.,0.));
#628=DIRECTION('center_axis',(1.,0.,0.));
#629=DIRECTION('ref_axis',(0.,1.,0.));
#630=DIRECTION('center_axis',(1.,0.,0.));
#631=DIRECTION('ref_axis',(0.,1.,1.72084568816892E-14));
#632=DIRECTION('',(0.,0.,1.));
#633=DIRECTION('center_axis',(1.,0.,0.));
#634=DIRECTION('ref_axis',(0.,-8.88178419700127E-15,-1.));
#635=DIRECTION('center_axis',(-1.,0.,0.));
#636=DIRECTION('ref_axis',(0.,-0.825030098980832,-0.565088785745814));
#637=DIRECTION('',(0.,-1.,0.));
#638=DIRECTION('center_axis',(-1.,0.,0.));
#639=DIRECTION('ref_axis',(0.,0.707106781186541,0.707106781186554));
#640=DIRECTION('',(0.,-1.19904086659517E-14,1.));
#641=DIRECTION('center_axis',(1.,0.,0.));
#642=DIRECTION('ref_axis',(0.,-0.825030098980832,-0.565088785745814));
#643=DIRECTION('',(-1.,0.,0.));
#644=DIRECTION('',(1.,0.,0.));
#645=DIRECTION('center_axis',(0.,0.,1.));
#646=DIRECTION('ref_axis',(1.,0.,0.));
#647=DIRECTION('center_axis',(1.,0.,0.));
#648=DIRECTION('ref_axis',(0.,-8.88178419700127E-15,-1.));
#649=DIRECTION('',(1.,0.,0.));
#650=DIRECTION('center_axis',(1.,0.,0.));
#651=DIRECTION('ref_axis',(0.,0.707106781186541,0.707106781186554));
#652=DIRECTION('center_axis',(1.,0.,0.));
#653=DIRECTION('ref_axis',(0.,1.,1.72084568816892E-14));
#654=DIRECTION('',(1.,0.,0.));
#655=DIRECTION('center_axis',(0.,-1.,-1.19904086659517E-14));
#656=DIRECTION('ref_axis',(0.,1.19904086659517E-14,-1.));
#657=DIRECTION('center_axis',(0.,-1.,0.));
#658=DIRECTION('ref_axis',(0.,0.,-1.));
#659=DIRECTION('center_axis',(-1.,0.,0.));
#660=DIRECTION('ref_axis',(0.,0.707106781186577,-0.707106781186518));
#661=DIRECTION('center_axis',(1.,0.,0.));
#662=DIRECTION('ref_axis',(0.,0.707106781186577,-0.707106781186518));
#663=DIRECTION('',(1.,0.,0.));
#664=DIRECTION('center_axis',(-1.,0.,0.));
#665=DIRECTION('ref_axis',(0.,0.707106781186577,-0.707106781186518));
#666=DIRECTION('',(-1.,0.,0.));
#667=DIRECTION('center_axis',(0.,1.,-2.64338815386819E-17));
#668=DIRECTION('ref_axis',(0.,2.64338815386819E-17,1.));
#669=DIRECTION('',(0.,2.64338815386819E-17,1.));
#670=DIRECTION('',(1.,0.,0.));
#671=DIRECTION('',(0.,-2.64338815386819E-17,-1.));
#672=DIRECTION('center_axis',(1.,0.,0.));
#673=DIRECTION('ref_axis',(0.,0.,-1.));
#674=DIRECTION('',(0.,1.,0.));
#675=DIRECTION('',(0.,-5.69345140833143E-17,-1.));
#676=DIRECTION('',(0.,-1.,2.64338815386819E-17));
#677=DIRECTION('center_axis',(0.,1.,-5.69345140833143E-17));
#678=DIRECTION('ref_axis',(0.,5.69345140833143E-17,1.));
#679=DIRECTION('',(-1.,0.,0.));
#680=DIRECTION('',(0.,5.69345140833143E-17,1.));
#681=DIRECTION('',(1.,0.,0.));
#682=DIRECTION('center_axis',(0.,0.,-1.));
#683=DIRECTION('ref_axis',(-1.,0.,0.));
#684=DIRECTION('',(0.,-1.,0.));
#685=DIRECTION('center_axis',(0.,0.,1.));
#686=DIRECTION('ref_axis',(1.,0.,0.));
#687=DIRECTION('center_axis',(0.,0.,1.));
#688=DIRECTION('ref_axis',(1.,0.,0.));
#689=DIRECTION('center_axis',(-1.,0.,0.));
#690=DIRECTION('ref_axis',(0.,0.,1.));
#691=DIRECTION('',(0.,1.,-2.64338815386819E-17));
#692=DIRECTION('center_axis',(0.,2.64338815386819E-17,1.));
#693=DIRECTION('ref_axis',(1.,0.,0.));
#694=DIRECTION('center_axis',(0.,-2.64338815386819E-17,-1.));
#695=DIRECTION('ref_axis',(1.,0.,0.));
#696=DIRECTION('center_axis',(0.,-2.64338815386819E-17,-1.));
#697=DIRECTION('ref_axis',(1.,0.,0.));
#698=DIRECTION('center_axis',(0.,-2.64338815386819E-17,-1.));
#699=DIRECTION('ref_axis',(1.,0.,0.));
#700=DIRECTION('',(0.,-2.64338815386819E-17,-1.));
#701=DIRECTION('center_axis',(0.,-2.64338815386819E-17,-1.));
#702=DIRECTION('ref_axis',(1.,0.,0.));
#703=DIRECTION('',(0.,-2.64338815386819E-17,-1.));
#704=CARTESIAN_POINT('',(0.,0.,0.));
#705=CARTESIAN_POINT('Origin',(1122.64765710207,259.024021849899,9.61242123196163));
#706=CARTESIAN_POINT('',(1118.78765710207,254.374021849899,9.61242123196163));
#707=CARTESIAN_POINT('',(1123.64765710207,254.374021849899,9.61242123196165));
#708=CARTESIAN_POINT('',(1126.60765710207,254.374021849899,9.61242123196163));
#709=CARTESIAN_POINT('',(1118.78765710207,257.000003814697,9.61242123196164));
#710=CARTESIAN_POINT('',(1118.78765710207,256.000003814697,9.61242123196163));
#711=CARTESIAN_POINT('',(1123.64765710207,257.000003814697,9.61242123196166));
#712=CARTESIAN_POINT('',(1126.60765710207,257.000003814697,9.61242123196163));
#713=CARTESIAN_POINT('',(1123.64765710207,259.024021849899,9.61242123196165));
#714=CARTESIAN_POINT('Origin',(1130.56765710207,257.000003814697,-5.0000000745058));
#715=CARTESIAN_POINT('',(1111.56765710207,257.000003814697,-4.50000007450578));
#716=CARTESIAN_POINT('',(1111.56765710207,257.000003814697,18.8374212319619));
#717=CARTESIAN_POINT('',(1111.56765710207,257.000003814697,0.584355252111108));
#718=CARTESIAN_POINT('',(1130.56765710207,257.000003814697,18.8374212319619));
#719=CARTESIAN_POINT('',(1130.56765710207,257.000003814697,18.8374212319619));
#720=CARTESIAN_POINT('',(1130.56765710207,257.000003814697,-4.50000007450578));
#721=CARTESIAN_POINT('',(1130.56765710207,257.000003814697,0.584355252111108));
#722=CARTESIAN_POINT('',(1119.06765710207,257.000003814697,-4.50000007450578));
#723=CARTESIAN_POINT('',(1123.64765710207,257.000003814697,2.71242123196166));
#724=CARTESIAN_POINT('',(1123.64765710207,257.000003814697,1.80621057872794));
#725=CARTESIAN_POINT('',(1118.78765710207,257.000003814697,2.71242123196163));
#726=CARTESIAN_POINT('',(1118.78765710207,257.000003814697,1.80621057872792));
#727=CARTESIAN_POINT('',(1125.17765710207,257.000003814697,2.71242123196162));
#728=CARTESIAN_POINT('Origin',(1118.78765710207,259.024021849899,8.61242123196163));
#729=CARTESIAN_POINT('',(1118.78765710207,254.374021849899,2.71242123196162));
#730=CARTESIAN_POINT('',(1118.78765710207,254.374021849899,10.9749212319617));
#731=CARTESIAN_POINT('',(1118.78765710207,259.024021849899,2.71242123196162));
#732=CARTESIAN_POINT('Origin',(1119.78765710207,259.024021849899,2.71242123196163));
#733=CARTESIAN_POINT('',(1123.64765710207,254.374021849899,2.71242123196165));
#734=CARTESIAN_POINT('',(1125.17765710207,254.374021849899,2.71242123196162));
#735=CARTESIAN_POINT('',(1123.64765710207,259.024021849899,2.71242123196165));
#736=CARTESIAN_POINT('Origin',(1123.64765710207,259.024021849899,3.71242123196165));
#737=CARTESIAN_POINT('',(1123.64765710207,254.374021849899,10.9749212319617));
#738=CARTESIAN_POINT('Origin',(1107.56765710207,245.874021849899,17.8374212319617));
#739=CARTESIAN_POINT('',(1130.56765710207,245.874021849899,17.3374212319617));
#740=CARTESIAN_POINT('',(1130.56765710207,245.374021849899,17.8374212319617));
#741=CARTESIAN_POINT('Origin',(1130.56765710207,245.874021849899,17.8374212319617));
#742=CARTESIAN_POINT('',(1111.56765710207,245.374021849899,17.8374212319617));
#743=CARTESIAN_POINT('',(1107.56765710207,245.374021849899,17.8374212319617));
#744=CARTESIAN_POINT('',(1111.56765710207,245.874021849899,17.3374212319617));
#745=CARTESIAN_POINT('Origin',(1111.56765710207,245.874021849899,17.8374212319617));
#746=CARTESIAN_POINT('',(1107.56765710207,245.874021849899,17.3374212319617));
#747=CARTESIAN_POINT('Origin',(1107.56765710207,250.374021849899,17.3374212319618));
#748=CARTESIAN_POINT('',(1111.56765710207,250.374021849899,17.3374212319618));
#749=CARTESIAN_POINT('',(1111.56765710207,251.780517341099,17.3374212319618));
#750=CARTESIAN_POINT('',(1130.56765710207,250.374021849899,17.3374212319618));
#751=CARTESIAN_POINT('',(1130.56765710207,250.374021849899,17.3374212319618));
#752=CARTESIAN_POINT('',(1130.56765710207,251.780517341099,17.3374212319618));
#753=CARTESIAN_POINT('Origin',(1111.56765710207,253.187012832298,6.16871057872798));
#754=CARTESIAN_POINT('',(1111.56765710207,245.374021849899,19.3374212319617));
#755=CARTESIAN_POINT('',(1111.56765710207,245.374021849899,11.7530659053448));
#756=CARTESIAN_POINT('',(1111.56765710207,246.374021849899,20.3374212319617));
#757=CARTESIAN_POINT('Ctrl Pts',(1111.56765710207,246.374021849899,20.3374212319617));
#758=CARTESIAN_POINT('Ctrl Pts',(1111.56765710207,246.293062164063,20.3374212319617));
#759=CARTESIAN_POINT('Ctrl Pts',(1111.56765710207,246.103983857651,20.3066920348927));
#760=CARTESIAN_POINT('Ctrl Pts',(1111.56765710207,245.742159668523,20.1038863565762));
#761=CARTESIAN_POINT('Ctrl Pts',(1111.56765710207,245.430142430586,19.7146694943627));
#762=CARTESIAN_POINT('Ctrl Pts',(1111.56765710207,245.374021849899,19.4453674797426));
#763=CARTESIAN_POINT('Ctrl Pts',(1111.56765710207,245.374021849899,19.3374212319617));
#764=CARTESIAN_POINT('',(1111.56765710207,255.500003814697,20.3374212319618));
#765=CARTESIAN_POINT('',(1111.56765710207,254.593508323498,20.3374212319618));
#766=CARTESIAN_POINT('Origin',(1111.56765710207,255.500003814697,18.8374212319618));
#767=CARTESIAN_POINT('',(1111.56765710207,255.502389675104,-4.50000007450578));
#768=CARTESIAN_POINT('',(1111.56765710207,251.939003400997,-4.50000007450578));
#769=CARTESIAN_POINT('',(1111.56765710207,254.103743904594,-2.45797608183282));
#770=CARTESIAN_POINT('Origin',(1111.56765710207,255.502389675104,-3.00000007450578));
#771=CARTESIAN_POINT('',(1111.56765710207,254.374021849899,-1.01257876803826));
#772=CARTESIAN_POINT('Origin',(1111.56765710207,250.374021849899,-1.01257876803827));
#773=CARTESIAN_POINT('',(1111.56765710207,254.374021849899,13.3374212319617));
#774=CARTESIAN_POINT('',(1111.56765710207,254.374021849899,9.75306590534484));
#775=CARTESIAN_POINT('Origin',(1111.56765710207,250.374021849899,13.3374212319616));
#776=CARTESIAN_POINT('Ctrl Pts',(1130.56765710207,245.374021849899,19.3374212319617));
#777=CARTESIAN_POINT('Ctrl Pts',(1107.76765710207,245.374021849899,19.3374212319617));
#778=CARTESIAN_POINT('Ctrl Pts',(1130.56765710207,245.374021849899,19.4453674797426));
#779=CARTESIAN_POINT('Ctrl Pts',(1107.76765710207,245.374021849899,19.4453674797426));
#780=CARTESIAN_POINT('Ctrl Pts',(1130.56765710207,245.430142430586,19.7146694943626));
#781=CARTESIAN_POINT('Ctrl Pts',(1107.76765710207,245.430142430586,19.7146694943626));
#782=CARTESIAN_POINT('Ctrl Pts',(1130.56765710207,245.742159668523,20.1038863565763));
#783=CARTESIAN_POINT('Ctrl Pts',(1107.76765710207,245.742159668523,20.1038863565763));
#784=CARTESIAN_POINT('Ctrl Pts',(1130.56765710207,246.103983857651,20.3066920348926));
#785=CARTESIAN_POINT('Ctrl Pts',(1107.76765710207,246.103983857651,20.3066920348926));
#786=CARTESIAN_POINT('Ctrl Pts',(1130.56765710207,246.293062164063,20.3374212319617));
#787=CARTESIAN_POINT('Ctrl Pts',(1107.76765710207,246.293062164063,20.3374212319617));
#788=CARTESIAN_POINT('Ctrl Pts',(1130.56765710207,246.374021849899,20.3374212319617));
#789=CARTESIAN_POINT('Ctrl Pts',(1107.76765710207,246.374021849899,20.3374212319617));
#790=CARTESIAN_POINT('',(1130.56765710207,245.374021849899,19.3374212319617));
#791=CARTESIAN_POINT('',(1111.56765710207,245.374021849899,19.3374212319617));
#792=CARTESIAN_POINT('',(1130.56765710207,246.374021849899,20.3374212319617));
#793=CARTESIAN_POINT('Ctrl Pts',(1130.56765710207,245.374021849899,19.3374212319617));
#794=CARTESIAN_POINT('Ctrl Pts',(1130.56765710207,245.374021849899,19.4453674797426));
#795=CARTESIAN_POINT('Ctrl Pts',(1130.56765710207,245.430142430585,19.7146694943626));
#796=CARTESIAN_POINT('Ctrl Pts',(1130.56765710207,245.742159668524,20.1038863565763));
#797=CARTESIAN_POINT('Ctrl Pts',(1130.56765710207,246.103983857651,20.3066920348926));
#798=CARTESIAN_POINT('Ctrl Pts',(1130.56765710207,246.293062164063,20.3374212319617));
#799=CARTESIAN_POINT('Ctrl Pts',(1130.56765710207,246.374021849899,20.3374212319617));
#800=CARTESIAN_POINT('',(1130.56765710207,246.374021849899,20.3374212319617));
#801=CARTESIAN_POINT('Origin',(1130.56765710207,256.000003814697,20.3374212319618));
#802=CARTESIAN_POINT('',(1130.56765710207,255.500003814697,20.3374212319618));
#803=CARTESIAN_POINT('',(1130.56765710207,254.593508323498,20.3374212319618));
#804=CARTESIAN_POINT('',(1130.56765710207,255.500003814697,20.3374212319618));
#805=CARTESIAN_POINT('Origin',(1130.56765710207,253.187012832298,6.16871057872798));
#806=CARTESIAN_POINT('',(1130.56765710207,254.374021849899,13.3374212319617));
#807=CARTESIAN_POINT('Origin',(1130.56765710207,250.374021849899,13.3374212319616));
#808=CARTESIAN_POINT('',(1130.56765710207,254.374021849899,-1.01257876803826));
#809=CARTESIAN_POINT('',(1130.56765710207,254.374021849899,9.75306590534484));
#810=CARTESIAN_POINT('',(1130.56765710207,254.103743904594,-2.45797608183282));
#811=CARTESIAN_POINT('Origin',(1130.56765710207,250.374021849899,-1.01257876803827));
#812=CARTESIAN_POINT('',(1130.56765710207,255.502389675104,-4.50000007450578));
#813=CARTESIAN_POINT('Origin',(1130.56765710207,255.502389675104,-3.00000007450578));
#814=CARTESIAN_POINT('',(1130.56765710207,251.939003400997,-4.50000007450578));
#815=CARTESIAN_POINT('Origin',(1130.56765710207,255.500003814697,18.8374212319618));
#816=CARTESIAN_POINT('',(1130.56765710207,245.374021849899,11.7530659053448));
#817=CARTESIAN_POINT('Origin',(1130.56765710207,255.502389675104,-3.00000007450578));
#818=CARTESIAN_POINT('',(1130.56765710207,254.103743904594,-2.45797608183282));
#819=CARTESIAN_POINT('',(1130.56765710207,255.502389675104,-4.50000007450578));
#820=CARTESIAN_POINT('Origin',(1107.56765710207,250.690993969696,-4.50000007450578));
#821=CARTESIAN_POINT('Origin',(1130.56765710207,250.374021849899,-1.01257876803827));
#822=CARTESIAN_POINT('',(1130.56765710207,254.374021849899,-1.01257876803826));
#823=CARTESIAN_POINT('Origin',(1130.56765710207,255.500003814697,18.8374212319618));
#824=CARTESIAN_POINT('Origin',(1130.56765710207,250.374021849899,13.3374212319616));
#825=CARTESIAN_POINT('',(1130.56765710207,254.374021849899,13.3374212319617));
#826=CARTESIAN_POINT('Origin',(1107.56765710207,245.374021849899,17.3374212319617));
#827=CARTESIAN_POINT('Origin',(1130.56765710207,254.374021849899,13.3374212319617));
#828=CARTESIAN_POINT('Origin',(1120.56765710207,264.009417412643,-4.00000007450578));
#829=CARTESIAN_POINT('',(1111.56765710207,264.009417412643,-4.50000007450578));
#830=CARTESIAN_POINT('',(1111.56765710207,264.509417412643,-4.00000007450578));
#831=CARTESIAN_POINT('Origin',(1111.56765710207,264.009417412643,-4.00000007450578));
#832=CARTESIAN_POINT('',(1130.56765710207,264.509417412643,-4.00000007450578));
#833=CARTESIAN_POINT('',(1120.56765710207,264.509417412643,-4.00000007450578));
#834=CARTESIAN_POINT('',(1130.56765710207,264.009417412643,-4.50000007450578));
#835=CARTESIAN_POINT('Origin',(1130.56765710207,264.009417412643,-4.00000007450578));
#836=CARTESIAN_POINT('',(1120.56765710207,264.009417412643,-4.50000007450578));
#837=CARTESIAN_POINT('Origin',(1133.56765710207,264.509417412643,-1.50000007450578));
#838=CARTESIAN_POINT('',(1111.56765710207,264.509417412643,-1.50000007450578));
#839=CARTESIAN_POINT('',(1111.56765710207,264.509417412643,4.08435525211112));
#840=CARTESIAN_POINT('',(1130.56765710207,264.509417412643,-1.50000007450578));
#841=CARTESIAN_POINT('',(1130.56765710207,264.509417412643,-1.50000007450578));
#842=CARTESIAN_POINT('',(1130.56765710207,264.509417412643,4.08435525211112));
#843=CARTESIAN_POINT('Origin',(1111.56765710207,253.005436275246,9.66871057872802));
#844=CARTESIAN_POINT('',(1111.56765710207,257.009417412643,-4.50000007450578));
#845=CARTESIAN_POINT('',(1111.56765710207,251.757426843945,-4.50000007450578));
#846=CARTESIAN_POINT('',(1111.56765710207,257.009417412643,-1.50000007450578));
#847=CARTESIAN_POINT('',(1111.56765710207,257.009417412643,4.08435525211112));
#848=CARTESIAN_POINT('',(1111.56765710207,251.757426843945,-1.50000007450578));
#849=CARTESIAN_POINT('Origin',(1133.56765710207,257.009417412643,-1.50000007450578));
#850=CARTESIAN_POINT('',(1130.56765710207,257.009417412643,-4.50000007450578));
#851=CARTESIAN_POINT('',(1120.56765710207,257.009417412643,-4.50000007450578));
#852=CARTESIAN_POINT('',(1130.56765710207,257.009417412643,-1.50000007450578));
#853=CARTESIAN_POINT('',(1130.56765710207,257.009417412643,4.08435525211112));
#854=CARTESIAN_POINT('',(1120.56765710207,257.009417412643,-1.50000007450578));
#855=CARTESIAN_POINT('Origin',(1107.56765710207,250.509417412643,-4.50000007450578));
#856=CARTESIAN_POINT('',(1130.56765710207,251.757426843945,-4.50000007450578));
#857=CARTESIAN_POINT('',(1113.92215710207,260.637427257645,-4.50000007450578));
#858=CARTESIAN_POINT('Origin',(1115.18665710207,260.637427257645,-4.50000007450578));
#859=CARTESIAN_POINT('',(1124.68447337147,260.637338489418,-4.50000007450578));
#860=CARTESIAN_POINT('Origin',(1125.94897337147,260.637338489418,-4.50000007450578));
#861=CARTESIAN_POINT('Origin',(1130.56765710207,253.005436275246,9.66871057872802));
#862=CARTESIAN_POINT('',(1130.56765710207,251.757426843945,-1.50000007450578));
#863=CARTESIAN_POINT('Origin',(1107.56765710207,250.509417412643,-1.50000007450578));
#864=CARTESIAN_POINT('',(1124.68447337147,260.637338489418,-1.50000007450578));
#865=CARTESIAN_POINT('Origin',(1125.94897337147,260.637338489418,-1.50000007450578));
#866=CARTESIAN_POINT('',(1113.92215710207,260.637427257645,-1.50000007450578));
#867=CARTESIAN_POINT('Origin',(1115.18665710207,260.637427257645,-1.50000007450578));
#868=CARTESIAN_POINT('Origin',(1115.18665710207,260.637427257645,-3.00000007450578));
#869=CARTESIAN_POINT('',(1113.92215710207,260.637427257645,-3.00000007450578));
#870=CARTESIAN_POINT('Origin',(1125.94897337147,260.637338489418,-4.00000007450635));
#871=CARTESIAN_POINT('',(1124.68447337147,260.637338489418,-4.00000007450635));
#872=UNCERTAINTY_MEASURE_WITH_UNIT(LENGTH_MEASURE(0.01),#876,
'DISTANCE_ACCURACY_VALUE',
'Maximum model space distance between geometric entities at asserted c
onnectivities');
#873=UNCERTAINTY_MEASURE_WITH_UNIT(LENGTH_MEASURE(0.01),#876,
'DISTANCE_ACCURACY_VALUE',
'Maximum model space distance between geometric entities at asserted c
onnectivities');
#874=(
GEOMETRIC_REPRESENTATION_CONTEXT(3)
GLOBAL_UNCERTAINTY_ASSIGNED_CONTEXT((#872))
GLOBAL_UNIT_ASSIGNED_CONTEXT((#876,#878,#879))
REPRESENTATION_CONTEXT('','3D')
);
#875=(
GEOMETRIC_REPRESENTATION_CONTEXT(3)
GLOBAL_UNCERTAINTY_ASSIGNED_CONTEXT((#873))
GLOBAL_UNIT_ASSIGNED_CONTEXT((#876,#878,#879))
REPRESENTATION_CONTEXT('','3D')
);
#876=(
LENGTH_UNIT()
NAMED_UNIT(*)
SI_UNIT(.MILLI.,.METRE.)
);
#877=(
LENGTH_UNIT()
NAMED_UNIT(*)
SI_UNIT($,.METRE.)
);
#878=(
NAMED_UNIT(*)
PLANE_ANGLE_UNIT()
SI_UNIT($,.RADIAN.)
);
#879=(
NAMED_UNIT(*)
SI_UNIT($,.STERADIAN.)
SOLID_ANGLE_UNIT()
);
#880=SHAPE_DEFINITION_REPRESENTATION(#881,#882);
#881=PRODUCT_DEFINITION_SHAPE('',$,#884);
#882=SHAPE_REPRESENTATION('',(#524),#874);
#883=PRODUCT_DEFINITION_CONTEXT('part definition',#888,'design');
#884=PRODUCT_DEFINITION('2026-05-05-17-06-30-886','Part_2',#885,#883);
#885=PRODUCT_DEFINITION_FORMATION('',$,#890);
#886=PRODUCT_RELATED_PRODUCT_CATEGORY('Part_2','Part_2',(#890));
#887=APPLICATION_PROTOCOL_DEFINITION('international standard',
'automotive_design',2009,#888);
#888=APPLICATION_CONTEXT(
'Core Data for Automotive Mechanical Design Process');
#889=PRODUCT_CONTEXT('part definition',#888,'mechanical');
#890=PRODUCT('2026-05-05-17-06-30-886','Part_2',$,(#889));
#891=PRESENTATION_STYLE_ASSIGNMENT((#893));
#892=PRESENTATION_STYLE_ASSIGNMENT((#894));
#893=SURFACE_STYLE_USAGE(.BOTH.,#895);
#894=SURFACE_STYLE_USAGE(.BOTH.,#896);
#895=SURFACE_SIDE_STYLE('',(#897));
#896=SURFACE_SIDE_STYLE('',(#898));
#897=SURFACE_STYLE_FILL_AREA(#899);
#898=SURFACE_STYLE_FILL_AREA(#900);
#899=FILL_AREA_STYLE('Plate',(#901));
#900=FILL_AREA_STYLE('Opaque(160,160,160)',(#902));
#901=FILL_AREA_STYLE_COLOUR('Plate',#903);
#902=FILL_AREA_STYLE_COLOUR('Opaque(160,160,160)',#904);
#903=COLOUR_RGB('Plate',0.6,0.6,0.6);
#904=COLOUR_RGB('Opaque(160,160,160)',0.627450980392157,0.627450980392157,
0.627450980392157);
ENDSEC;
END-ISO-10303-21;
