ISO-10303-21;
HEADER;
FILE_DESCRIPTION (( 'STEP AP203' ),
    '1' );
FILE_NAME ('Standoff motor control and Arduino.STEP',
    '2026-05-04T08:19:55',
    ( '' ),
    ( '' ),
    'SwSTEP 2.0',
    'SolidWorks 2025',
    '' );
FILE_SCHEMA (( 'CONFIG_CONTROL_DESIGN' ));
ENDSEC;

DATA;
#1 = DIRECTION ( 'NONE',  ( -0.000000000000000000, -1.000000000000000000, -0.000000000000000000 ) ) ;
#2 = ORIENTED_EDGE ( 'NONE', *, *, #194, .F. ) ;
#3 = ORIENTED_EDGE ( 'NONE', *, *, #269, .T. ) ;
#4 = CARTESIAN_POINT ( 'NONE',  ( 0.000000000000000000, -1.396097351027979861E-15, 0.000000000000000000 ) ) ;
#5 = CC_DESIGN_SECURITY_CLASSIFICATION ( #282, ( #344 ) ) ;
#6 = ORIENTED_EDGE ( 'NONE', *, *, #130, .T. ) ;
#7 = PLANE ( 'NONE',  #182 ) ;
#8 = CARTESIAN_POINT ( 'NONE',  ( 0.000000000000000000, 12.00000000000000000, -1.299999999999994049 ) ) ;
#9 = EDGE_CURVE ( 'NONE', #361, #324, #305, .T. ) ;
#10 = PLANE ( 'NONE',  #92 ) ;
#11 = ORIENTED_EDGE ( 'NONE', *, *, #346, .T. ) ;
#12 = CARTESIAN_POINT ( 'NONE',  ( 0.000000000000000000, 12.00000000000000000, 0.000000000000000000 ) ) ;
#13 = CARTESIAN_POINT ( 'NONE',  ( -1.452218172971860399, 12.00000000000000000, -1.795660243872323036 ) ) ;
#14 = DIRECTION ( 'NONE',  ( -0.000000000000000000, -1.000000000000000000, -0.000000000000000000 ) ) ;
#15 = CARTESIAN_POINT ( 'NONE',  ( -0.8289783012732607759, 12.00000000000000000, 2.155487951567216509 ) ) ;
#16 = DIRECTION ( 'NONE',  ( -0.7775436938795956543, 0.000000000000000000, 0.6288289148155272734 ) ) ;
#17 = AXIS2_PLACEMENT_3D ( 'NONE', #107, #48, #362 ) ;
#18 = CARTESIAN_POINT ( 'NONE',  ( 2.281196474245121397, 12.00000000000000000, -0.3598277076948939723 ) ) ;
#19 = PERSON_AND_ORGANIZATION_ROLE ( 'classification_officer' ) ;
#20 = COORDINATED_UNIVERSAL_TIME_OFFSET ( 1, 0, .AHEAD. ) ;
#21 = AXIS2_PLACEMENT_3D ( 'NONE', #318, #244, #210 ) ;
#22 = SECURITY_CLASSIFICATION_LEVEL ( 'unclassified' ) ;
#23 = DATE_TIME_ROLE ( 'classification_date' ) ;
#24 = VERTEX_POINT ( 'NONE', #191 ) ;
#25 = APPLICATION_CONTEXT ( 'configuration controlled 3d designs of mechanical parts and assemblies' ) ;
#26 = PERSON_AND_ORGANIZATION_ROLE ( 'creator' ) ;
#27 = APPROVAL ( #200, 'UNSPECIFIED' ) ;
#28 = ORIENTED_EDGE ( 'NONE', *, *, #160, .T. ) ;
#29 = VECTOR ( 'NONE', #323, 1000.000000000000114 ) ;
#30 = CARTESIAN_POINT ( 'NONE',  ( 2.281196474245121397, 0.000000000000000000, -0.3598277076948939723 ) ) ;
#31 = AXIS2_PLACEMENT_3D ( 'NONE', #76, #193, #104 ) ;
#32 = PLANE ( 'NONE',  #21 ) ;
#33 = VECTOR ( 'NONE', #360, 1000.000000000000000 ) ;
#34 = CARTESIAN_POINT ( 'NONE',  ( -2.281196474245121841, 0.000000000000000000, 0.3598277076948933062 ) ) ;
#35 = DIRECTION ( 'NONE',  ( 0.9877870488598844423, 0.000000000000000000, -0.1558099679246495728 ) ) ;
#36 = EDGE_CURVE ( 'NONE', #324, #123, #79, .T. ) ;
#37 = DIRECTION ( 'NONE',  ( -0.000000000000000000, -1.000000000000000000, -0.000000000000000000 ) ) ;
#38 = DIRECTION ( 'NONE',  ( 0.6288289148155271624, 0.000000000000000000, 0.7775436938795956543 ) ) ;
#39 = PERSON ( 'UNSPECIFIED', 'UNSPECIFIED', 'UNSPECIFIED', ('UNSPECIFIED'), ('UNSPECIFIED'), ('UNSPECIFIED') ) ;
#40 = LINE ( 'NONE', #13, #317 ) ;
#41 = APPROVAL ( #231, 'UNSPECIFIED' ) ;
#42 = FACE_OUTER_BOUND ( 'NONE', #322, .T. ) ;
#43 = CIRCLE ( 'NONE', #291, 1.299999999999994049 ) ;
#44 = APPLICATION_CONTEXT ( 'configuration controlled 3d designs of mechanical parts and assemblies' ) ;
#45 = LINE ( 'NONE', #97, #211 ) ;
#46 = CARTESIAN_POINT ( 'NONE',  ( -0.8289783012732607759, 0.000000000000000000, 2.155487951567216509 ) ) ;
#47 = LINE ( 'NONE', #15, #195 ) ;
#48 = DIRECTION ( 'NONE',  ( 0.9333536618042452826, -0.000000000000000000, 0.3589581340443570578 ) ) ;
#49 = CC_DESIGN_DATE_AND_TIME_ASSIGNMENT ( #204, #339, ( #299 ) ) ;
#50 = CARTESIAN_POINT ( 'NONE',  ( -0.8289783012732607759, 0.000000000000000000, 2.155487951567216509 ) ) ;
#51 = VECTOR ( 'NONE', #230, 1000.000000000000000 ) ;
#52 = APPROVAL_ROLE ( '' ) ;
#53 = EDGE_CURVE ( 'NONE', #24, #359, #40, .T. ) ;
#54 = COORDINATED_UNIVERSAL_TIME_OFFSET ( 1, 0, .AHEAD. ) ;
#55 = VECTOR ( 'NONE', #93, 1000.000000000000227 ) ;
#56 = PERSON_AND_ORGANIZATION ( #39, #336 ) ;
#57 = ORIENTED_EDGE ( 'NONE', *, *, #346, .F. ) ;
#58 = CALENDAR_DATE ( 2026, 4, 5 ) ;
#59 = ORIENTED_EDGE ( 'NONE', *, *, #219, .F. ) ;
#60 = ADVANCED_BREP_SHAPE_REPRESENTATION ( 'Standoff motor control and Arduino', ( #141, #110 ), #134 ) ;
#61 = VECTOR ( 'NONE', #188, 1000.000000000000000 ) ;
#62 = DIRECTION ( 'NONE',  ( -0.6288289148155273844, 0.000000000000000000, -0.7775436938795955433 ) ) ;
#63 = ORIENTED_EDGE ( 'NONE', *, *, #83, .F. ) ;
#64 = LINE ( 'NONE', #220, #55 ) ;
#65 = ORIENTED_EDGE ( 'NONE', *, *, #36, .T. ) ;
#66 = ADVANCED_FACE ( 'NONE', ( #125 ), #249, .F. ) ;
#67 = LINE ( 'NONE', #298, #61 ) ;
#68 = VERTEX_POINT ( 'NONE', #8 ) ;
#69 = CARTESIAN_POINT ( 'NONE',  ( 1.452218172971860843, 0.000000000000000000, 1.795660243872323036 ) ) ;
#70 = AXIS2_PLACEMENT_3D ( 'NONE', #238, #348, #150 ) ;
#71 = EDGE_CURVE ( 'NONE', #123, #213, #45, .T. ) ;
#72 = EDGE_LOOP ( 'NONE', ( #115, #316, #222, #6 ) ) ;
#73 = CARTESIAN_POINT ( 'NONE',  ( 0.8289783012732611089, 12.00000000000000000, -2.155487951567216509 ) ) ;
#74 = DIRECTION ( 'NONE',  ( -0.6288289148155273844, 0.000000000000000000, -0.7775436938795955433 ) ) ;
#75 = CARTESIAN_POINT ( 'NONE',  ( -2.281196474245121841, 12.00000000000000000, 0.3598277076948933062 ) ) ;
#76 = CARTESIAN_POINT ( 'NONE',  ( -0.8289783012732607759, 12.00000000000000000, 2.155487951567216509 ) ) ;
#77 = CARTESIAN_POINT ( 'NONE',  ( 0.8289783012732611089, 12.00000000000000000, -2.155487951567216509 ) ) ;
#78 = CLOSED_SHELL ( 'NONE', ( #66, #90, #371, #307, #203, #331, #209, #292, #173, #135 ) ) ;
#79 = LINE ( 'NONE', #335, #109 ) ;
#80 = DIRECTION ( 'NONE',  ( 0.000000000000000000, 1.000000000000000000, 0.000000000000000000 ) ) ;
#81 = LINE ( 'NONE', #75, #275 ) ;
#82 = APPROVAL_STATUS ( 'not_yet_approved' ) ;
#83 = EDGE_CURVE ( 'NONE', #239, #180, #258, .T. ) ;
#84 = VECTOR ( 'NONE', #35, 1000.000000000000000 ) ;
#85 = CALENDAR_DATE ( 2026, 4, 5 ) ;
#86 = COORDINATED_UNIVERSAL_TIME_OFFSET ( 1, 0, .AHEAD. ) ;
#87 = VERTEX_POINT ( 'NONE', #327 ) ;
#88 = ORIENTED_EDGE ( 'NONE', *, *, #337, .F. ) ;
#89 = CARTESIAN_POINT ( 'NONE',  ( -1.452218172971860399, 0.000000000000000000, -1.795660243872323036 ) ) ;
#90 = ADVANCED_FACE ( 'NONE', ( #332 ), #155, .F. ) ;
#91 = ORIENTED_EDGE ( 'NONE', *, *, #179, .T. ) ;
#92 = AXIS2_PLACEMENT_3D ( 'NONE', #225, #196, #304 ) ;
#93 = DIRECTION ( 'NONE',  ( 0.6288289148155271624, 0.000000000000000000, 0.7775436938795956543 ) ) ;
#94 = LINE ( 'NONE', #321, #161 ) ;
#95 = ORIENTED_EDGE ( 'NONE', *, *, #53, .T. ) ;
#96 = FACE_OUTER_BOUND ( 'NONE', #117, .T. ) ;
#97 = CARTESIAN_POINT ( 'NONE',  ( 0.8289783012732611089, 0.000000000000000000, -2.155487951567216509 ) ) ;
#98 = FACE_OUTER_BOUND ( 'NONE', #289, .T. ) ;
#99 = ORIENTED_EDGE ( 'NONE', *, *, #160, .F. ) ;
#100 = DIRECTION ( 'NONE',  ( 0.000000000000000000, 0.000000000000000000, -1.000000000000000000 ) ) ;
#101 = DESIGN_CONTEXT ( 'detailed design', #44, 'design' ) ;
#102 = CARTESIAN_POINT ( 'NONE',  ( 0.000000000000000000, 0.000000000000000000, 0.000000000000000000 ) ) ;
#103 = FACE_OUTER_BOUND ( 'NONE', #148, .T. ) ;
#104 = DIRECTION ( 'NONE',  ( -0.9877870488598844423, 0.000000000000000000, 0.1558099679246496005 ) ) ;
#105 =( LENGTH_UNIT ( ) NAMED_UNIT ( * ) SI_UNIT ( .MILLI., .METRE. ) );
#106 = DIRECTION ( 'NONE',  ( 0.000000000000000000, -0.000000000000000000, 1.000000000000000000 ) ) ;
#107 = CARTESIAN_POINT ( 'NONE',  ( -1.452218172971860399, 12.00000000000000000, -1.795660243872323036 ) ) ;
#108 = DIRECTION ( 'NONE',  ( 0.000000000000000000, 0.000000000000000000, 1.000000000000000000 ) ) ;
#109 = VECTOR ( 'NONE', #37, 1000.000000000000000 ) ;
#110 = AXIS2_PLACEMENT_3D ( 'NONE', #286, #108, #174 ) ;
#111 = DATE_AND_TIME ( #310, #313 ) ;
#112 = CC_DESIGN_PERSON_AND_ORGANIZATION_ASSIGNMENT ( #206, #259, ( #344 ) ) ;
#113 = APPROVAL_DATE_TIME ( #202, #41 ) ;
#114 = CIRCLE ( 'NONE', #241, 1.299999999999990496 ) ;
#115 = ORIENTED_EDGE ( 'NONE', *, *, #256, .T. ) ;
#116 = CALENDAR_DATE ( 2026, 4, 5 ) ;
#117 = EDGE_LOOP ( 'NONE', ( #372, #189, #295, #293 ) ) ;
#118 = DIRECTION ( 'NONE',  ( 0.000000000000000000, 1.000000000000000000, 0.000000000000000000 ) ) ;
#119 = CYLINDRICAL_SURFACE ( 'NONE', #261, 1.299999999999994049 ) ;
#120 = PRODUCT_DEFINITION_SHAPE ( 'NONE', 'NONE',  #299 ) ;
#121 = CC_DESIGN_APPROVAL ( #363, ( #344 ) ) ;
#122 = CARTESIAN_POINT ( 'NONE',  ( 0.8289783012732611089, 12.00000000000000000, -2.155487951567216509 ) ) ;
#123 = VERTEX_POINT ( 'NONE', #197 ) ;
#124 = DIRECTION ( 'NONE',  ( 0.1558099679246496005, -0.000000000000000000, 0.9877870488598844423 ) ) ;
#125 = FACE_OUTER_BOUND ( 'NONE', #146, .T. ) ;
#126 = LINE ( 'NONE', #279, #287 ) ;
#127 = VECTOR ( 'NONE', #199, 1000.000000000000000 ) ;
#128 = VERTEX_POINT ( 'NONE', #34 ) ;
#129 = CARTESIAN_POINT ( 'NONE',  ( -2.281196474245121841, 12.00000000000000000, 0.3598277076948933062 ) ) ;
#130 = EDGE_CURVE ( 'NONE', #163, #247, #47, .T. ) ;
#131 = ORIENTED_EDGE ( 'NONE', *, *, #308, .F. ) ;
#132 = DIRECTION ( 'NONE',  ( -0.000000000000000000, -1.000000000000000000, -0.000000000000000000 ) ) ;
#133 = CARTESIAN_POINT ( 'NONE',  ( -1.452218172971860399, 0.000000000000000000, -1.795660243872323036 ) ) ;
#134 =( GEOMETRIC_REPRESENTATION_CONTEXT ( 3 ) GLOBAL_UNCERTAINTY_ASSIGNED_CONTEXT ( ( #364 ) ) GLOBAL_UNIT_ASSIGNED_CONTEXT ( ( #105, #198, #343 ) ) REPRESENTATION_CONTEXT ( 'NONE', 'WORKASPACE' ) );
#135 = ADVANCED_FACE ( 'NONE', ( #96 ), #119, .F. ) ;
#136 = EDGE_CURVE ( 'NONE', #151, #345, #214, .T. ) ;
#137 = PLANE ( 'NONE',  #309 ) ;
#138 = CC_DESIGN_PERSON_AND_ORGANIZATION_ASSIGNMENT ( #312, #284, ( #344 ) ) ;
#139 = DATE_AND_TIME ( #176, #153 ) ;
#140 = PERSON_AND_ORGANIZATION ( #39, #336 ) ;
#141 = MANIFOLD_SOLID_BREP ( 'M2 Clearance Hole2', #78 ) ;
#142 = COORDINATED_UNIVERSAL_TIME_OFFSET ( 1, 0, .AHEAD. ) ;
#143 = ORIENTED_EDGE ( 'NONE', *, *, #53, .F. ) ;
#144 = APPLICATION_PROTOCOL_DEFINITION ( 'international standard', 'config_control_design', 1994, #44 ) ;
#145 = APPROVAL_PERSON_ORGANIZATION ( #140, #363, #52 ) ;
#146 = EDGE_LOOP ( 'NONE', ( #354, #270, #314, #159 ) ) ;
#147 = CARTESIAN_POINT ( 'NONE',  ( 0.000000000000000000, -1.396097351027979861E-15, -1.299999999999990496 ) ) ;
#148 = EDGE_LOOP ( 'NONE', ( #215, #208, #99, #237 ) ) ;
#149 = ORIENTED_EDGE ( 'NONE', *, *, #130, .F. ) ;
#150 = DIRECTION ( 'NONE',  ( -0.6288289148155271624, 0.000000000000000000, -0.7775436938795956543 ) ) ;
#151 = VERTEX_POINT ( 'NONE', #356 ) ;
#152 = AXIS2_PLACEMENT_3D ( 'NONE', #102, #357, #166 ) ;
#153 = LOCAL_TIME ( 10, 19, 55.00000000000000000, #20 ) ;
#154 = CARTESIAN_POINT ( 'NONE',  ( -0.8289783012732607759, 12.00000000000000000, 2.155487951567216509 ) ) ;
#155 = PLANE ( 'NONE',  #31 ) ;
#156 = CARTESIAN_POINT ( 'NONE',  ( 0.000000000000000000, 12.00000000000000000, 0.000000000000000000 ) ) ;
#157 = CARTESIAN_POINT ( 'NONE',  ( 2.281196474245121397, 12.00000000000000000, -0.3598277076948939723 ) ) ;
#158 = CARTESIAN_POINT ( 'NONE',  ( -2.281196474245121841, 12.00000000000000000, 0.3598277076948933062 ) ) ;
#159 = ORIENTED_EDGE ( 'NONE', *, *, #205, .F. ) ;
#160 = EDGE_CURVE ( 'NONE', #349, #361, #325, .T. ) ;
#161 = VECTOR ( 'NONE', #1, 1000.000000000000000 ) ;
#162 = CARTESIAN_POINT ( 'NONE',  ( 2.281196474245121397, 12.00000000000000000, -0.3598277076948939723 ) ) ;
#163 = VERTEX_POINT ( 'NONE', #154 ) ;
#164 = PRODUCT_RELATED_PRODUCT_CATEGORY ( 'detail', '', ( #353 ) ) ;
#165 = DIRECTION ( 'NONE',  ( -0.000000000000000000, -1.000000000000000000, -0.000000000000000000 ) ) ;
#166 = DIRECTION ( 'NONE',  ( 0.000000000000000000, 0.000000000000000000, -1.000000000000000000 ) ) ;
#167 = CARTESIAN_POINT ( 'NONE',  ( 1.592040838891551946E-16, 0.000000000000000000, 1.299999999999994049 ) ) ;
#168 = EDGE_CURVE ( 'NONE', #349, #151, #67, .T. ) ;
#169 = DIRECTION ( 'NONE',  ( 0.000000000000000000, 0.000000000000000000, 1.000000000000000000 ) ) ;
#170 = APPROVAL_PERSON_ORGANIZATION ( #56, #27, #257 ) ;
#171 = APPROVAL_DATE_TIME ( #111, #363 ) ;
#172 = SHAPE_DEFINITION_REPRESENTATION ( #120, #60 ) ;
#173 = ADVANCED_FACE ( 'NONE', ( #296, #352 ), #32, .F. ) ;
#174 = DIRECTION ( 'NONE',  ( 1.000000000000000000, 0.000000000000000000, 0.000000000000000000 ) ) ;
#175 = VECTOR ( 'NONE', #165, 1000.000000000000000 ) ;
#176 = CALENDAR_DATE ( 2026, 4, 5 ) ;
#177 = ORIENTED_EDGE ( 'NONE', *, *, #246, .T. ) ;
#178 = DATE_AND_TIME ( #58, #235 ) ;
#179 = EDGE_CURVE ( 'NONE', #163, #349, #358, .T. ) ;
#180 = VERTEX_POINT ( 'NONE', #147 ) ;
#181 = DIRECTION ( 'NONE',  ( 0.000000000000000000, 0.000000000000000000, -1.000000000000000000 ) ) ;
#182 = AXIS2_PLACEMENT_3D ( 'NONE', #122, #124, #262 ) ;
#183 = EDGE_LOOP ( 'NONE', ( #376, #63 ) ) ;
#184 = ORIENTED_EDGE ( 'NONE', *, *, #256, .F. ) ;
#185 = PLANE ( 'NONE',  #70 ) ;
#186 = ORIENTED_EDGE ( 'NONE', *, *, #36, .F. ) ;
#187 = EDGE_LOOP ( 'NONE', ( #131, #2 ) ) ;
#188 = DIRECTION ( 'NONE',  ( -0.000000000000000000, -1.000000000000000000, -0.000000000000000000 ) ) ;
#189 = ORIENTED_EDGE ( 'NONE', *, *, #194, .T. ) ;
#190 = CARTESIAN_POINT ( 'NONE',  ( 1.452218172971860843, 12.00000000000000000, 1.795660243872323036 ) ) ;
#191 = CARTESIAN_POINT ( 'NONE',  ( -1.452218172971860399, 12.00000000000000000, -1.795660243872323036 ) ) ;
#192 = LINE ( 'NONE', #18, #253 ) ;
#193 = DIRECTION ( 'NONE',  ( -0.1558099679246496005, 0.000000000000000000, -0.9877870488598844423 ) ) ;
#194 = EDGE_CURVE ( 'NONE', #87, #68, #43, .T. ) ;
#195 = VECTOR ( 'NONE', #132, 1000.000000000000000 ) ;
#196 = DIRECTION ( 'NONE',  ( -0.9333536618042455046, 0.000000000000000000, -0.3589581340443565582 ) ) ;
#197 = CARTESIAN_POINT ( 'NONE',  ( 0.8289783012732611089, 0.000000000000000000, -2.155487951567216509 ) ) ;
#198 =( NAMED_UNIT ( * ) PLANE_ANGLE_UNIT ( ) SI_UNIT ( $, .RADIAN. ) );
#199 = DIRECTION ( 'NONE',  ( 0.9877870488598844423, 0.000000000000000000, -0.1558099679246495728 ) ) ;
#200 = APPROVAL_STATUS ( 'not_yet_approved' ) ;
#201 = CC_DESIGN_APPROVAL ( #27, ( #299 ) ) ;
#202 = DATE_AND_TIME ( #85, #212 ) ;
#203 = ADVANCED_FACE ( 'NONE', ( #98 ), #7, .F. ) ;
#204 = DATE_AND_TIME ( #116, #319 ) ;
#205 = EDGE_CURVE ( 'NONE', #68, #180, #94, .T. ) ;
#206 = PERSON_AND_ORGANIZATION ( #39, #336 ) ;
#207 = EDGE_CURVE ( 'NONE', #128, #247, #64, .T. ) ;
#208 = ORIENTED_EDGE ( 'NONE', *, *, #268, .F. ) ;
#209 = ADVANCED_FACE ( 'NONE', ( #328 ), #185, .F. ) ;
#210 = DIRECTION ( 'NONE',  ( 0.000000000000000000, -0.000000000000000000, 1.000000000000000000 ) ) ;
#211 = VECTOR ( 'NONE', #300, 1000.000000000000000 ) ;
#212 = LOCAL_TIME ( 10, 19, 55.00000000000000000, #341 ) ;
#213 = VERTEX_POINT ( 'NONE', #89 ) ;
#214 = LINE ( 'NONE', #69, #266 ) ;
#215 = ORIENTED_EDGE ( 'NONE', *, *, #136, .T. ) ;
#216 = CARTESIAN_POINT ( 'NONE',  ( -0.8289783012732607759, 12.00000000000000000, 2.155487951567216509 ) ) ;
#217 = DIRECTION ( 'NONE',  ( 0.000000000000000000, 0.000000000000000000, -1.000000000000000000 ) ) ;
#218 = CC_DESIGN_APPROVAL ( #41, ( #282 ) ) ;
#219 = EDGE_CURVE ( 'NONE', #345, #123, #294, .T. ) ;
#220 = CARTESIAN_POINT ( 'NONE',  ( -2.281196474245121841, 0.000000000000000000, 0.3598277076948933062 ) ) ;
#221 = EDGE_CURVE ( 'NONE', #180, #239, #114, .T. ) ;
#222 = ORIENTED_EDGE ( 'NONE', *, *, #179, .F. ) ;
#223 = CARTESIAN_POINT ( 'NONE',  ( 1.592040838891549728E-16, -1.396097351027979861E-15, 1.299999999999990496 ) ) ;
#224 = CARTESIAN_POINT ( 'NONE',  ( 0.000000000000000000, -1.396097351027979861E-15, 0.000000000000000000 ) ) ;
#225 = CARTESIAN_POINT ( 'NONE',  ( 1.452218172971860843, 12.00000000000000000, 1.795660243872323036 ) ) ;
#226 = ORIENTED_EDGE ( 'NONE', *, *, #219, .T. ) ;
#227 = CIRCLE ( 'NONE', #340, 1.299999999999994049 ) ;
#228 = CC_DESIGN_PERSON_AND_ORGANIZATION_ASSIGNMENT ( #290, #26, ( #299 ) ) ;
#229 = DIRECTION ( 'NONE',  ( -0.3589581340443570578, 0.000000000000000000, 0.9333536618042452826 ) ) ;
#230 = DIRECTION ( 'NONE',  ( -0.9877870488598844423, 0.000000000000000000, 0.1558099679246495728 ) ) ;
#231 = APPROVAL_STATUS ( 'not_yet_approved' ) ;
#232 = PERSON_AND_ORGANIZATION ( #39, #336 ) ;
#233 = EDGE_CURVE ( 'NONE', #87, #239, #333, .T. ) ;
#234 = MECHANICAL_CONTEXT ( 'NONE', #25, 'mechanical' ) ;
#235 = LOCAL_TIME ( 10, 19, 55.00000000000000000, #142 ) ;
#236 = ORIENTED_EDGE ( 'NONE', *, *, #9, .F. ) ;
#237 = ORIENTED_EDGE ( 'NONE', *, *, #168, .T. ) ;
#238 = CARTESIAN_POINT ( 'NONE',  ( -2.281196474245121841, 12.00000000000000000, 0.3598277076948933062 ) ) ;
#239 = VERTEX_POINT ( 'NONE', #223 ) ;
#240 = CARTESIAN_POINT ( 'NONE',  ( 0.000000000000000000, 0.000000000000000000, 0.000000000000000000 ) ) ;
#241 = AXIS2_PLACEMENT_3D ( 'NONE', #4, #243, #100 ) ;
#242 = ORIENTED_EDGE ( 'NONE', *, *, #9, .T. ) ;
#243 = DIRECTION ( 'NONE',  ( -0.000000000000000000, -1.000000000000000000, -0.000000000000000000 ) ) ;
#244 = DIRECTION ( 'NONE',  ( 0.000000000000000000, 1.000000000000000000, 0.000000000000000000 ) ) ;
#245 = ORIENTED_EDGE ( 'NONE', *, *, #373, .F. ) ;
#246 = EDGE_CURVE ( 'NONE', #359, #163, #81, .T. ) ;
#247 = VERTEX_POINT ( 'NONE', #50 ) ;
#248 = FACE_OUTER_BOUND ( 'NONE', #351, .T. ) ;
#249 = CYLINDRICAL_SURFACE ( 'NONE', #152, 1.299999999999994049 ) ;
#250 = LINE ( 'NONE', #77, #51 ) ;
#251 = EDGE_LOOP ( 'NONE', ( #365, #149, #274, #3 ) ) ;
#252 = DIRECTION ( 'NONE',  ( 0.000000000000000000, 1.000000000000000000, 0.000000000000000000 ) ) ;
#253 = VECTOR ( 'NONE', #330, 1000.000000000000000 ) ;
#254 = LINE ( 'NONE', #129, #175 ) ;
#255 = CARTESIAN_POINT ( 'NONE',  ( 0.000000000000000000, 12.00000000000000000, 0.000000000000000000 ) ) ;
#256 = EDGE_CURVE ( 'NONE', #247, #151, #338, .T. ) ;
#257 = APPROVAL_ROLE ( '' ) ;
#258 = CIRCLE ( 'NONE', #366, 1.299999999999990496 ) ;
#259 = PERSON_AND_ORGANIZATION_ROLE ( 'creator' ) ;
#260 = APPROVAL_ROLE ( '' ) ;
#261 = AXIS2_PLACEMENT_3D ( 'NONE', #240, #350, #181 ) ;
#262 = DIRECTION ( 'NONE',  ( 0.9877870488598844423, 0.000000000000000000, -0.1558099679246496005 ) ) ;
#263 = ORIENTED_EDGE ( 'NONE', *, *, #269, .F. ) ;
#264 = ORIENTED_EDGE ( 'NONE', *, *, #207, .F. ) ;
#265 = CARTESIAN_POINT ( 'NONE',  ( 1.452218172971860843, 12.00000000000000000, 1.795660243872323036 ) ) ;
#266 = VECTOR ( 'NONE', #267, 1000.000000000000114 ) ;
#267 = DIRECTION ( 'NONE',  ( 0.3589581340443565582, 0.000000000000000000, -0.9333536618042453936 ) ) ;
#268 = EDGE_CURVE ( 'NONE', #361, #345, #192, .T. ) ;
#269 = EDGE_CURVE ( 'NONE', #359, #128, #254, .T. ) ;
#270 = ORIENTED_EDGE ( 'NONE', *, *, #233, .T. ) ;
#271 = DIRECTION ( 'NONE',  ( 0.000000000000000000, 0.000000000000000000, 1.000000000000000000 ) ) ;
#272 = DIRECTION ( 'NONE',  ( -0.3589581340443570578, 0.000000000000000000, 0.9333536618042452826 ) ) ;
#273 = CARTESIAN_POINT ( 'NONE',  ( 2.281196474245121397, 12.00000000000000000, -0.3598277076948939723 ) ) ;
#274 = ORIENTED_EDGE ( 'NONE', *, *, #246, .F. ) ;
#275 = VECTOR ( 'NONE', #38, 1000.000000000000227 ) ;
#276 = VECTOR ( 'NONE', #229, 1000.000000000000000 ) ;
#277 = LINE ( 'NONE', #133, #276 ) ;
#278 = EDGE_LOOP ( 'NONE', ( #184, #264, #88, #347, #59, #303 ) ) ;
#279 = CARTESIAN_POINT ( 'NONE',  ( -1.452218172971860399, 12.00000000000000000, -1.795660243872323036 ) ) ;
#280 = ORIENTED_EDGE ( 'NONE', *, *, #71, .T. ) ;
#281 = FACE_BOUND ( 'NONE', #187, .T. ) ;
#282 = SECURITY_CLASSIFICATION ( '', '', #22 ) ;
#283 = PLANE ( 'NONE',  #17 ) ;
#284 = PERSON_AND_ORGANIZATION_ROLE ( 'design_supplier' ) ;
#285 = CC_DESIGN_PERSON_AND_ORGANIZATION_ASSIGNMENT ( #288, #370, ( #353 ) ) ;
#286 = CARTESIAN_POINT ( 'NONE',  ( 0.000000000000000000, 0.000000000000000000, 0.000000000000000000 ) ) ;
#287 = VECTOR ( 'NONE', #14, 1000.000000000000000 ) ;
#288 = PERSON_AND_ORGANIZATION ( #39, #336 ) ;
#289 = EDGE_LOOP ( 'NONE', ( #280, #245, #57, #65 ) ) ;
#290 = PERSON_AND_ORGANIZATION ( #39, #336 ) ;
#291 = AXIS2_PLACEMENT_3D ( 'NONE', #156, #118, #271 ) ;
#292 = ADVANCED_FACE ( 'NONE', ( #281, #367 ), #302, .T. ) ;
#293 = ORIENTED_EDGE ( 'NONE', *, *, #221, .T. ) ;
#294 = LINE ( 'NONE', #30, #369 ) ;
#295 = ORIENTED_EDGE ( 'NONE', *, *, #205, .T. ) ;
#296 = FACE_BOUND ( 'NONE', #183, .T. ) ;
#297 = DIRECTION ( 'NONE',  ( -0.000000000000000000, -1.000000000000000000, -0.000000000000000000 ) ) ;
#298 = CARTESIAN_POINT ( 'NONE',  ( 1.452218172971860843, 12.00000000000000000, 1.795660243872323036 ) ) ;
#299 = PRODUCT_DEFINITION ( 'UNKNOWN', '', #344, #101 ) ;
#300 = DIRECTION ( 'NONE',  ( -0.9877870488598844423, 0.000000000000000000, 0.1558099679246495728 ) ) ;
#301 = ORIENTED_EDGE ( 'NONE', *, *, #373, .T. ) ;
#302 = PLANE ( 'NONE',  #326 ) ;
#303 = ORIENTED_EDGE ( 'NONE', *, *, #136, .F. ) ;
#304 = DIRECTION ( 'NONE',  ( -0.3589581340443565582, 0.000000000000000000, 0.9333536618042455046 ) ) ;
#305 = LINE ( 'NONE', #157, #334 ) ;
#306 = DIRECTION ( 'NONE',  ( 0.6288289148155272734, 0.000000000000000000, 0.7775436938795956543 ) ) ;
#307 = ADVANCED_FACE ( 'NONE', ( #42 ), #137, .F. ) ;
#308 = EDGE_CURVE ( 'NONE', #68, #87, #227, .T. ) ;
#309 = AXIS2_PLACEMENT_3D ( 'NONE', #162, #16, #306 ) ;
#310 = CALENDAR_DATE ( 2026, 4, 5 ) ;
#311 = PERSON_AND_ORGANIZATION ( #39, #336 ) ;
#312 = PERSON_AND_ORGANIZATION ( #39, #336 ) ;
#313 = LOCAL_TIME ( 10, 19, 55.00000000000000000, #86 ) ;
#314 = ORIENTED_EDGE ( 'NONE', *, *, #83, .T. ) ;
#315 = ORIENTED_EDGE ( 'NONE', *, *, #268, .T. ) ;
#316 = ORIENTED_EDGE ( 'NONE', *, *, #168, .F. ) ;
#317 = VECTOR ( 'NONE', #272, 1000.000000000000000 ) ;
#318 = CARTESIAN_POINT ( 'NONE',  ( 0.000000000000000000, 0.000000000000000000, 0.000000000000000000 ) ) ;
#319 = LOCAL_TIME ( 10, 19, 55.00000000000000000, #54 ) ;
#320 = ORIENTED_EDGE ( 'NONE', *, *, #337, .T. ) ;
#321 = CARTESIAN_POINT ( 'NONE',  ( 0.000000000000000000, 0.000000000000000000, -1.299999999999994049 ) ) ;
#322 = EDGE_LOOP ( 'NONE', ( #226, #186, #236, #315 ) ) ;
#323 = DIRECTION ( 'NONE',  ( 0.3589581340443565582, 0.000000000000000000, -0.9333536618042453936 ) ) ;
#324 = VERTEX_POINT ( 'NONE', #73 ) ;
#325 = LINE ( 'NONE', #265, #29 ) ;
#326 = AXIS2_PLACEMENT_3D ( 'NONE', #255, #252, #106 ) ;
#327 = CARTESIAN_POINT ( 'NONE',  ( 1.592040838891551946E-16, 12.00000000000000000, 1.299999999999994049 ) ) ;
#328 = FACE_OUTER_BOUND ( 'NONE', #251, .T. ) ;
#329 = EDGE_LOOP ( 'NONE', ( #91, #28, #242, #11, #95, #177 ) ) ;
#330 = DIRECTION ( 'NONE',  ( -0.000000000000000000, -1.000000000000000000, -0.000000000000000000 ) ) ;
#331 = ADVANCED_FACE ( 'NONE', ( #248 ), #283, .F. ) ;
#332 = FACE_OUTER_BOUND ( 'NONE', #72, .T. ) ;
#333 = LINE ( 'NONE', #167, #33 ) ;
#334 = VECTOR ( 'NONE', #74, 1000.000000000000000 ) ;
#335 = CARTESIAN_POINT ( 'NONE',  ( 0.8289783012732611089, 12.00000000000000000, -2.155487951567216509 ) ) ;
#336 = ORGANIZATION ( 'UNSPECIFIED', 'UNSPECIFIED', '' ) ;
#337 = EDGE_CURVE ( 'NONE', #213, #128, #277, .T. ) ;
#338 = LINE ( 'NONE', #46, #127 ) ;
#339 = DATE_TIME_ROLE ( 'creation_date' ) ;
#340 = AXIS2_PLACEMENT_3D ( 'NONE', #12, #80, #169 ) ;
#341 = COORDINATED_UNIVERSAL_TIME_OFFSET ( 1, 0, .AHEAD. ) ;
#342 = APPLICATION_PROTOCOL_DEFINITION ( 'international standard', 'config_control_design', 1994, #25 ) ;
#343 =( NAMED_UNIT ( * ) SI_UNIT ( $, .STERADIAN. ) SOLID_ANGLE_UNIT ( ) );
#344 = PRODUCT_DEFINITION_FORMATION_WITH_SPECIFIED_SOURCE ( 'ANY', '', #353, .NOT_KNOWN. ) ;
#345 = VERTEX_POINT ( 'NONE', #368 ) ;
#346 = EDGE_CURVE ( 'NONE', #324, #24, #250, .T. ) ;
#347 = ORIENTED_EDGE ( 'NONE', *, *, #71, .F. ) ;
#348 = DIRECTION ( 'NONE',  ( 0.7775436938795956543, 0.000000000000000000, -0.6288289148155271624 ) ) ;
#349 = VERTEX_POINT ( 'NONE', #190 ) ;
#350 = DIRECTION ( 'NONE',  ( -0.000000000000000000, -1.000000000000000000, -0.000000000000000000 ) ) ;
#351 = EDGE_LOOP ( 'NONE', ( #320, #263, #143, #301 ) ) ;
#352 = FACE_OUTER_BOUND ( 'NONE', #278, .T. ) ;
#353 = PRODUCT ( 'Standoff motor control and Arduino', 'Standoff motor control and Arduino', '', ( #234 ) ) ;
#354 = ORIENTED_EDGE ( 'NONE', *, *, #308, .T. ) ;
#355 = CC_DESIGN_DATE_AND_TIME_ASSIGNMENT ( #139, #23, ( #282 ) ) ;
#356 = CARTESIAN_POINT ( 'NONE',  ( 1.452218172971860843, 0.000000000000000000, 1.795660243872323036 ) ) ;
#357 = DIRECTION ( 'NONE',  ( -0.000000000000000000, -1.000000000000000000, -0.000000000000000000 ) ) ;
#358 = LINE ( 'NONE', #216, #84 ) ;
#359 = VERTEX_POINT ( 'NONE', #158 ) ;
#360 = DIRECTION ( 'NONE',  ( -0.000000000000000000, -1.000000000000000000, -0.000000000000000000 ) ) ;
#361 = VERTEX_POINT ( 'NONE', #273 ) ;
#362 = DIRECTION ( 'NONE',  ( 0.3589581340443570578, 0.000000000000000000, -0.9333536618042452826 ) ) ;
#363 = APPROVAL ( #82, 'UNSPECIFIED' ) ;
#364 = UNCERTAINTY_MEASURE_WITH_UNIT (LENGTH_MEASURE( 1.000000000000000082E-05 ), #105, 'distance_accuracy_value', 'NONE');
#365 = ORIENTED_EDGE ( 'NONE', *, *, #207, .T. ) ;
#366 = AXIS2_PLACEMENT_3D ( 'NONE', #224, #297, #217 ) ;
#367 = FACE_OUTER_BOUND ( 'NONE', #329, .T. ) ;
#368 = CARTESIAN_POINT ( 'NONE',  ( 2.281196474245121397, 0.000000000000000000, -0.3598277076948939723 ) ) ;
#369 = VECTOR ( 'NONE', #62, 1000.000000000000000 ) ;
#370 = PERSON_AND_ORGANIZATION_ROLE ( 'design_owner' ) ;
#371 = ADVANCED_FACE ( 'NONE', ( #103 ), #10, .F. ) ;
#372 = ORIENTED_EDGE ( 'NONE', *, *, #233, .F. ) ;
#373 = EDGE_CURVE ( 'NONE', #24, #213, #126, .T. ) ;
#374 = APPROVAL_DATE_TIME ( #178, #27 ) ;
#375 = APPROVAL_PERSON_ORGANIZATION ( #311, #41, #260 ) ;
#376 = ORIENTED_EDGE ( 'NONE', *, *, #221, .F. ) ;
#377 = CC_DESIGN_PERSON_AND_ORGANIZATION_ASSIGNMENT ( #232, #19, ( #282 ) ) ;
ENDSEC;
END-ISO-10303-21;
