ISO-10303-21;
HEADER;
FILE_DESCRIPTION (( 'STEP AP214' ),
    '1' );
FILE_NAME ('ir sensor clamp final.STEP',
    '2026-05-05T20:59:55',
    ( '' ),
    ( '' ),
    'SwSTEP 2.0',
    'SolidWorks 2025',
    '' );
FILE_SCHEMA (( 'AUTOMOTIVE_DESIGN' ));
ENDSEC;

DATA;
#1 = EDGE_CURVE ( 'NONE', #771, #701, #651, .T. ) ;
#2 = ORIENTED_EDGE ( 'NONE', *, *, #12, .F. ) ;
#3 = FACE_OUTER_BOUND ( 'NONE', #848, .T. ) ;
#4 = DIRECTION ( 'NONE',  ( 0.000000000000000000, 0.000000000000000000, -1.000000000000000000 ) ) ;
#5 = ORIENTED_EDGE ( 'NONE', *, *, #365, .T. ) ;
#6 = EDGE_CURVE ( 'NONE', #394, #847, #926, .T. ) ;
#7 = EDGE_CURVE ( 'NONE', #168, #82, #1015, .T. ) ;
#8 = VECTOR ( 'NONE', #119, 1000.000000000000000 ) ;
#9 = DIRECTION ( 'NONE',  ( 0.000000000000000000, -0.000000000000000000, -1.000000000000000000 ) ) ;
#10 = CIRCLE ( 'NONE', #606, 0.5000000000000004441 ) ;
#11 = LINE ( 'NONE', #1013, #574 ) ;
#12 = EDGE_CURVE ( 'NONE', #118, #787, #520, .T. ) ;
#13 = ORIENTED_EDGE ( 'NONE', *, *, #7, .T. ) ;
#14 = AXIS2_PLACEMENT_3D ( 'NONE', #389, #619, #85 ) ;
#15 = CARTESIAN_POINT ( 'NONE',  ( 0.4999999999999996669, 3.000000000000000000, 4.299999999999999822 ) ) ;
#16 = VERTEX_POINT ( 'NONE', #591 ) ;
#17 = ORIENTED_EDGE ( 'NONE', *, *, #349, .T. ) ;
#18 = EDGE_CURVE ( 'NONE', #704, #927, #789, .T. ) ;
#19 = ORIENTED_EDGE ( 'NONE', *, *, #399, .F. ) ;
#20 = ORIENTED_EDGE ( 'NONE', *, *, #367, .F. ) ;
#21 = CIRCLE ( 'NONE', #154, 1.299999999999999156 ) ;
#22 = AXIS2_PLACEMENT_3D ( 'NONE', #220, #521, #452 ) ;
#23 = ORIENTED_EDGE ( 'NONE', *, *, #760, .F. ) ;
#24 = VERTEX_POINT ( 'NONE', #820 ) ;
#25 = VECTOR ( 'NONE', #662, 1000.000000000000000 ) ;
#26 = DIRECTION ( 'NONE',  ( 0.000000000000000000, 0.000000000000000000, 1.000000000000000000 ) ) ;
#27 = ORIENTED_EDGE ( 'NONE', *, *, #1, .F. ) ;
#28 = DIRECTION ( 'NONE',  ( -7.228014483236695569E-16, 1.000000000000000000, 0.000000000000000000 ) ) ;
#29 = ORIENTED_EDGE ( 'NONE', *, *, #288, .T. ) ;
#30 = SURFACE_STYLE_USAGE ( .BOTH. , #202 ) ;
#31 = DIRECTION ( 'NONE',  ( -0.000000000000000000, 1.000000000000000000, -0.000000000000000000 ) ) ;
#32 = VECTOR ( 'NONE', #986, 1000.000000000000000 ) ;
#33 = EDGE_CURVE ( 'NONE', #63, #879, #342, .T. ) ;
#34 = DIRECTION ( 'NONE',  ( 0.000000000000000000, 0.000000000000000000, 1.000000000000000000 ) ) ;
#35 = ORIENTED_EDGE ( 'NONE', *, *, #962, .T. ) ;
#36 = CARTESIAN_POINT ( 'NONE',  ( -2.499999999999999556, 2.000000000000000444, 0.000000000000000000 ) ) ;
#37 = AXIS2_PLACEMENT_3D ( 'NONE', #325, #794, #242 ) ;
#38 = CARTESIAN_POINT ( 'NONE',  ( 0.000000000000000000, 3.000000000000000000, 0.000000000000000000 ) ) ;
#39 = ADVANCED_FACE ( 'NONE', ( #916 ), #415, .F. ) ;
#40 = CARTESIAN_POINT ( 'NONE',  ( -1.999999999999999556, 2.000000000000000444, 4.299999999999999822 ) ) ;
#41 = ORIENTED_EDGE ( 'NONE', *, *, #615, .F. ) ;
#42 = DIRECTION ( 'NONE',  ( 0.000000000000000000, -0.000000000000000000, -1.000000000000000000 ) ) ;
#43 = CARTESIAN_POINT ( 'NONE',  ( -2.499999999999999556, 2.500000000000000444, 4.299999999999999822 ) ) ;
#44 = EDGE_CURVE ( 'NONE', #262, #979, #750, .T. ) ;
#45 = ADVANCED_FACE ( 'NONE', ( #658 ), #514, .T. ) ;
#46 = DIRECTION ( 'NONE',  ( -0.000000000000000000, 1.000000000000000000, -0.000000000000000000 ) ) ;
#47 = CARTESIAN_POINT ( 'NONE',  ( 16.07542097657991675, 2.000000000000001776, 0.8500000000000017542 ) ) ;
#48 = ORIENTED_EDGE ( 'NONE', *, *, #830, .F. ) ;
#49 =( NAMED_UNIT ( * ) SI_UNIT ( $, .STERADIAN. ) SOLID_ANGLE_UNIT ( ) );
#50 = CARTESIAN_POINT ( 'NONE',  ( -4.900729924305655238, 2.000000000000000000, 2.165948666567723890 ) ) ;
#51 = VECTOR ( 'NONE', #928, 1000.000000000000000 ) ;
#52 = CARTESIAN_POINT ( 'NONE',  ( -8.000000000000000000, 0.000000000000000000, 4.299999999999999822 ) ) ;
#53 = LINE ( 'NONE', #590, #1011 ) ;
#54 = CARTESIAN_POINT ( 'NONE',  ( 18.50000000000000355, 1.500000000000005995, 0.000000000000000000 ) ) ;
#55 = CARTESIAN_POINT ( 'NONE',  ( 13.00000000000000000, 2.000000000000005329, 0.000000000000000000 ) ) ;
#56 = CARTESIAN_POINT ( 'NONE',  ( 18.50000000000000355, 6.071532165918824830E-15, 0.000000000000000000 ) ) ;
#57 = CARTESIAN_POINT ( 'NONE',  ( -8.000000000000000000, 0.000000000000000000, 4.299999999999999822 ) ) ;
#58 = AXIS2_PLACEMENT_3D ( 'NONE', #535, #467, #76 ) ;
#59 = ORIENTED_EDGE ( 'NONE', *, *, #122, .F. ) ;
#60 = LINE ( 'NONE', #239, #360 ) ;
#61 = CARTESIAN_POINT ( 'NONE',  ( -8.000000000000000000, 1.500000000000000000, 4.299999999999999822 ) ) ;
#62 = CARTESIAN_POINT ( 'NONE',  ( 0.4999999999999997780, 2.500000000000000000, 0.000000000000000000 ) ) ;
#63 = VERTEX_POINT ( 'NONE', #735 ) ;
#64 = ORIENTED_EDGE ( 'NONE', *, *, #6, .F. ) ;
#65 = DIRECTION ( 'NONE',  ( -1.000000000000000000, 0.000000000000000000, 0.000000000000000000 ) ) ;
#66 = ORIENTED_EDGE ( 'NONE', *, *, #836, .T. ) ;
#67 = CARTESIAN_POINT ( 'NONE',  ( 10.49999999999999822, 3.000000000000002665, 0.000000000000000000 ) ) ;
#68 = DIRECTION ( 'NONE',  ( 0.000000000000000000, -0.000000000000000000, -1.000000000000000000 ) ) ;
#69 = ORIENTED_EDGE ( 'NONE', *, *, #33, .T. ) ;
#70 = ORIENTED_EDGE ( 'NONE', *, *, #227, .F. ) ;
#71 = CARTESIAN_POINT ( 'NONE',  ( 11.00000000000000000, 0.5000000000000061062, 4.299999999999999822 ) ) ;
#72 = CIRCLE ( 'NONE', #542, 0.4999999999999995559 ) ;
#73 = CARTESIAN_POINT ( 'NONE',  ( 19.00000000000000355, 2.000000000000006217, 0.000000000000000000 ) ) ;
#74 = VECTOR ( 'NONE', #495, 1000.000000000000000 ) ;
#75 = ADVANCED_FACE ( 'NONE', ( #419 ), #578, .F. ) ;
#76 = DIRECTION ( 'NONE',  ( 0.000000000000000000, 0.000000000000000000, 1.000000000000000000 ) ) ;
#77 = ORIENTED_EDGE ( 'NONE', *, *, #1014, .T. ) ;
#78 = CARTESIAN_POINT ( 'NONE',  ( 13.00000000000000000, 4.500000000000002665, 0.000000000000000000 ) ) ;
#79 = FACE_OUTER_BOUND ( 'NONE', #259, .T. ) ;
#80 = CARTESIAN_POINT ( 'NONE',  ( 11.50000000000000000, 0.5000000000000059952, 4.299999999999999822 ) ) ;
#81 = EDGE_CURVE ( 'NONE', #951, #462, #126, .T. ) ;
#82 = VERTEX_POINT ( 'NONE', #36 ) ;
#83 = EDGE_CURVE ( 'NONE', #95, #482, #676, .T. ) ;
#84 = DIRECTION ( 'NONE',  ( -1.000000000000000000, -2.365532012695646710E-16, 0.000000000000000000 ) ) ;
#85 = DIRECTION ( 'NONE',  ( -1.000000000000000000, 0.000000000000000000, 0.000000000000000000 ) ) ;
#86 = ORIENTED_EDGE ( 'NONE', *, *, #985, .T. ) ;
#87 = DIRECTION ( 'NONE',  ( 0.000000000000000000, 0.000000000000000000, 1.000000000000000000 ) ) ;
#88 = CIRCLE ( 'NONE', #174, 0.4999999999999995559 ) ;
#89 = AXIS2_PLACEMENT_3D ( 'NONE', #804, #971, #189 ) ;
#90 = ORIENTED_EDGE ( 'NONE', *, *, #683, .T. ) ;
#91 =( GEOMETRIC_REPRESENTATION_CONTEXT ( 3 ) GLOBAL_UNCERTAINTY_ASSIGNED_CONTEXT ( ( #700 ) ) GLOBAL_UNIT_ASSIGNED_CONTEXT ( ( #499, #647, #484 ) ) REPRESENTATION_CONTEXT ( 'NONE', 'WORKASPACE' ) );
#92 = DIRECTION ( 'NONE',  ( 0.000000000000000000, 0.000000000000000000, 1.000000000000000000 ) ) ;
#93 = UNCERTAINTY_MEASURE_WITH_UNIT (LENGTH_MEASURE( 1.000000000000000082E-05 ), #652, 'distance_accuracy_value', 'NONE');
#94 = ORIENTED_EDGE ( 'NONE', *, *, #473, .T. ) ;
#95 = VERTEX_POINT ( 'NONE', #741 ) ;
#96 = ORIENTED_EDGE ( 'NONE', *, *, #550, .T. ) ;
#97 = ORIENTED_EDGE ( 'NONE', *, *, #873, .T. ) ;
#98 = AXIS2_PLACEMENT_3D ( 'NONE', #145, #1006, #840 ) ;
#99 = VECTOR ( 'NONE', #748, 1000.000000000000000 ) ;
#100 = DIRECTION ( 'NONE',  ( -1.000000000000000000, -8.673617379884035472E-16, 0.000000000000000000 ) ) ;
#101 = EDGE_LOOP ( 'NONE', ( #375, #627, #577, #851 ) ) ;
#102 = ORIENTED_EDGE ( 'NONE', *, *, #626, .T. ) ;
#103 = AXIS2_PLACEMENT_3D ( 'NONE', #212, #522, #762 ) ;
#104 = SHAPE_DEFINITION_REPRESENTATION ( #753, #773 ) ;
#105 = VECTOR ( 'NONE', #826, 1000.000000000000000 ) ;
#106 = EDGE_CURVE ( 'NONE', #633, #879, #566, .T. ) ;
#107 = DIRECTION ( 'NONE',  ( -0.000000000000000000, 0.000000000000000000, 1.000000000000000000 ) ) ;
#108 = ORIENTED_EDGE ( 'NONE', *, *, #106, .F. ) ;
#109 = FILL_AREA_STYLE ('',( #811 ) ) ;
#110 = DIRECTION ( 'NONE',  ( -1.000000000000000000, 0.000000000000000000, 0.000000000000000000 ) ) ;
#111 = ADVANCED_FACE ( 'NONE', ( #347, #894 ), #191, .F. ) ;
#112 = DIRECTION ( 'NONE',  ( -0.000000000000000000, -0.000000000000000000, 1.000000000000000000 ) ) ;
#113 = VERTEX_POINT ( 'NONE', #280 ) ;
#114 = DIRECTION ( 'NONE',  ( 0.000000000000000000, 0.000000000000000000, 1.000000000000000000 ) ) ;
#115 = DIRECTION ( 'NONE',  ( 1.000000000000000000, 0.000000000000000000, 0.000000000000000000 ) ) ;
#116 = MANIFOLD_SOLID_BREP ( 'M2 Clearance Hole2', #624 ) ;
#117 = DIRECTION ( 'NONE',  ( -1.000000000000000000, 0.000000000000000000, 0.000000000000000000 ) ) ;
#118 = VERTEX_POINT ( 'NONE', #684 ) ;
#119 = DIRECTION ( 'NONE',  ( 7.228014483236693597E-16, -1.000000000000000000, 0.000000000000000000 ) ) ;
#120 = CIRCLE ( 'NONE', #257, 0.5000000000000004441 ) ;
#121 = DIRECTION ( 'NONE',  ( -0.000000000000000000, 0.000000000000000000, -1.000000000000000000 ) ) ;
#122 = EDGE_CURVE ( 'NONE', #970, #338, #961, .T. ) ;
#123 = CARTESIAN_POINT ( 'NONE',  ( 16.07542097657991675, 2.000000000000001776, 2.150000000000000799 ) ) ;
#124 = FACE_OUTER_BOUND ( 'NONE', #196, .T. ) ;
#125 = EDGE_LOOP ( 'NONE', ( #326, #942, #932, #77 ) ) ;
#126 = LINE ( 'NONE', #664, #172 ) ;
#127 = DIRECTION ( 'NONE',  ( -0.000000000000000000, 0.000000000000000000, 1.000000000000000000 ) ) ;
#128 = DIRECTION ( 'NONE',  ( 0.000000000000000000, -0.000000000000000000, -1.000000000000000000 ) ) ;
#129 = DIRECTION ( 'NONE',  ( 0.000000000000000000, 0.000000000000000000, -1.000000000000000000 ) ) ;
#130 = DIRECTION ( 'NONE',  ( 0.000000000000000000, 0.000000000000000000, 1.000000000000000000 ) ) ;
#131 = CYLINDRICAL_SURFACE ( 'NONE', #930, 0.5000000000000000000 ) ;
#132 = LINE ( 'NONE', #369, #99 ) ;
#133 = DIRECTION ( 'NONE',  ( -1.000000000000000000, 0.000000000000000000, 0.000000000000000000 ) ) ;
#134 = AXIS2_PLACEMENT_3D ( 'NONE', #670, #833, #426 ) ;
#135 = CARTESIAN_POINT ( 'NONE',  ( -4.900729924305655238, 0.000000000000000000, 2.165948666567723890 ) ) ;
#136 = PRODUCT ( 'ir sensor clamp final', 'ir sensor clamp final', '', ( #408 ) ) ;
#137 = CARTESIAN_POINT ( 'NONE',  ( -7.500000000000000888, 0.000000000000000000, 0.000000000000000000 ) ) ;
#138 = CIRCLE ( 'NONE', #737, 1.299999999999999156 ) ;
#139 = AXIS2_PLACEMENT_3D ( 'NONE', #469, #160, #391 ) ;
#140 = LINE ( 'NONE', #211, #548 ) ;
#141 = DIRECTION ( 'NONE',  ( -1.000000000000000000, 0.000000000000000000, 0.000000000000000000 ) ) ;
#142 = EDGE_CURVE ( 'NONE', #805, #157, #845, .T. ) ;
#143 = ORIENTED_EDGE ( 'NONE', *, *, #756, .F. ) ;
#144 = EDGE_LOOP ( 'NONE', ( #70, #508, #798, #559 ) ) ;
#145 = CARTESIAN_POINT ( 'NONE',  ( 18.50000000000000355, 1.500000000000005995, 4.299999999999999822 ) ) ;
#146 = ORIENTED_EDGE ( 'NONE', *, *, #240, .F. ) ;
#147 = LINE ( 'NONE', #52, #587 ) ;
#148 = CARTESIAN_POINT ( 'NONE',  ( -8.000000000000000000, 0.5000000000000000000, 4.299999999999999822 ) ) ;
#149 = DIRECTION ( 'NONE',  ( 0.000000000000000000, -0.000000000000000000, -1.000000000000000000 ) ) ;
#150 = ORIENTED_EDGE ( 'NONE', *, *, #716, .T. ) ;
#151 = DIRECTION ( 'NONE',  ( -0.000000000000000000, -0.000000000000000000, 1.000000000000000000 ) ) ;
#152 = EDGE_CURVE ( 'NONE', #482, #168, #407, .T. ) ;
#153 = PLANE ( 'NONE',  #793 ) ;
#154 = AXIS2_PLACEMENT_3D ( 'NONE', #441, #838, #1007 ) ;
#155 = CARTESIAN_POINT ( 'NONE',  ( 19.00000000000000355, 1.500000000000005995, 4.299999999999999822 ) ) ;
#156 = VERTEX_POINT ( 'NONE', #295 ) ;
#157 = VERTEX_POINT ( 'NONE', #597 ) ;
#158 = DIRECTION ( 'NONE',  ( 1.000000000000000000, 0.000000000000000000, 0.000000000000000000 ) ) ;
#159 = AXIS2_PLACEMENT_3D ( 'NONE', #528, #1003, #512 ) ;
#161 = EDGE_CURVE ( 'NONE', #556, #223, #72, .T. ) ;
#160 = DIRECTION ( 'NONE',  ( 0.000000000000000000, -0.000000000000000000, -1.000000000000000000 ) ) ;
#162 = CIRCLE ( 'NONE', #139, 0.5000000000000004441 ) ;
#163 = EDGE_CURVE ( 'NONE', #118, #970, #440, .T. ) ;
#164 = DIRECTION ( 'NONE',  ( -0.000000000000000000, 0.000000000000000000, 1.000000000000000000 ) ) ;
#165 = ORIENTED_EDGE ( 'NONE', *, *, #836, .F. ) ;
#166 = LINE ( 'NONE', #871, #332 ) ;
#167 = CARTESIAN_POINT ( 'NONE',  ( 11.00000000000000000, 3.000000000000002665, 4.299999999999999822 ) ) ;
#168 = VERTEX_POINT ( 'NONE', #933 ) ;
#169 = DIRECTION ( 'NONE',  ( 0.000000000000000000, 0.000000000000000000, -1.000000000000000000 ) ) ;
#170 = FACE_OUTER_BOUND ( 'NONE', #530, .T. ) ;
#171 = ORIENTED_EDGE ( 'NONE', *, *, #241, .T. ) ;
#172 = VECTOR ( 'NONE', #974, 1000.000000000000000 ) ;
#173 = LINE ( 'NONE', #632, #965 ) ;
#174 = AXIS2_PLACEMENT_3D ( 'NONE', #252, #693, #904 ) ;
#175 = VECTOR ( 'NONE', #424, 1000.000000000000000 ) ;
#176 = VERTEX_POINT ( 'NONE', #593 ) ;
#177 = EDGE_LOOP ( 'NONE', ( #190, #5, #382, #406 ) ) ;
#178 = EDGE_CURVE ( 'NONE', #16, #262, #284, .T. ) ;
#179 = PRODUCT_DEFINITION ( 'UNKNOWN', '', #824, #898 ) ;
#180 = ORIENTED_EDGE ( 'NONE', *, *, #727, .F. ) ;
#181 = ORIENTED_EDGE ( 'NONE', *, *, #569, .T. ) ;
#182 = EDGE_CURVE ( 'NONE', #633, #262, #910, .T. ) ;
#183 = CARTESIAN_POINT ( 'NONE',  ( -1.499999999999997780, 5.000000000000001776, 0.000000000000000000 ) ) ;
#184 = VERTEX_POINT ( 'NONE', #852 ) ;
#185 = EDGE_LOOP ( 'NONE', ( #468, #387, #686, #537 ) ) ;
#186 = VECTOR ( 'NONE', #839, 1000.000000000000000 ) ;
#187 = EDGE_CURVE ( 'NONE', #922, #780, #461, .T. ) ;
#188 = ADVANCED_FACE ( 'NONE', ( #215 ), #206, .F. ) ;
#189 = DIRECTION ( 'NONE',  ( 0.000000000000000000, -0.000000000000000000, 1.000000000000000000 ) ) ;
#190 = ORIENTED_EDGE ( 'NONE', *, *, #584, .F. ) ;
#191 = PLANE ( 'NONE',  #565 ) ;
#192 = LINE ( 'NONE', #210, #878 ) ;
#193 = EDGE_CURVE ( 'NONE', #927, #903, #147, .T. ) ;
#194 = AXIS2_PLACEMENT_3D ( 'NONE', #80, #865, #248 ) ;
#195 = CARTESIAN_POINT ( 'NONE',  ( 11.50000000000000000, 6.071532165918824830E-15, 4.299999999999999822 ) ) ;
#196 = EDGE_LOOP ( 'NONE', ( #237, #480, #525, #694 ) ) ;
#197 = DIRECTION ( 'NONE',  ( -1.000000000000000000, 0.000000000000000000, 0.000000000000000000 ) ) ;
#198 = CARTESIAN_POINT ( 'NONE',  ( 11.00000000000000000, 6.071532165918824830E-15, 4.299999999999999822 ) ) ;
#199 = CARTESIAN_POINT ( 'NONE',  ( 10.49999999999999822, 3.000000000000002665, 4.299999999999999822 ) ) ;
#200 = ORIENTED_EDGE ( 'NONE', *, *, #182, .T. ) ;
#201 = EDGE_CURVE ( 'NONE', #223, #704, #132, .T. ) ;
#202 = SURFACE_SIDE_STYLE ('',( #731 ) ) ;
#203 = FACE_OUTER_BOUND ( 'NONE', #253, .T. ) ;
#204 = AXIS2_PLACEMENT_3D ( 'NONE', #302, #447, #133 ) ;
#205 = VECTOR ( 'NONE', #743, 1000.000000000000000 ) ;
#206 = CYLINDRICAL_SURFACE ( 'NONE', #22, 1.299999999999999156 ) ;
#207 = LINE ( 'NONE', #350, #544 ) ;
#208 = VERTEX_POINT ( 'NONE', #67 ) ;
#209 = AXIS2_PLACEMENT_3D ( 'NONE', #945, #785, #611 ) ;
#210 = CARTESIAN_POINT ( 'NONE',  ( -2.000000000000000000, 2.500000000000000888, 4.299999999999999822 ) ) ;
#211 = CARTESIAN_POINT ( 'NONE',  ( 16.07542097657991675, 2.000000000000001776, 0.8500000000000017542 ) ) ;
#212 = CARTESIAN_POINT ( 'NONE',  ( -1.500000000000001332, 4.500000000000001776, 0.000000000000000000 ) ) ;
#213 = DIRECTION ( 'NONE',  ( 0.000000000000000000, 0.000000000000000000, 1.000000000000000000 ) ) ;
#214 = LINE ( 'NONE', #732, #422 ) ;
#215 = FACE_OUTER_BOUND ( 'NONE', #600, .T. ) ;
#216 = DIRECTION ( 'NONE',  ( 0.000000000000000000, -0.000000000000000000, -1.000000000000000000 ) ) ;
#217 = CARTESIAN_POINT ( 'NONE',  ( -2.499999999999999556, 2.000000000000000444, 0.000000000000000000 ) ) ;
#218 = LINE ( 'NONE', #464, #51 ) ;
#219 = ADVANCED_FACE ( 'NONE', ( #982 ), #277, .F. ) ;
#220 = CARTESIAN_POINT ( 'NONE',  ( 16.07542097657991675, 2.000000000000001776, 2.150000000000000799 ) ) ;
#221 = DIRECTION ( 'NONE',  ( 0.000000000000000000, 1.000000000000000000, 0.000000000000000000 ) ) ;
#222 = ORIENTED_EDGE ( 'NONE', *, *, #720, .F. ) ;
#223 = VERTEX_POINT ( 'NONE', #429 ) ;
#224 = DIRECTION ( 'NONE',  ( 1.000000000000000000, 2.365532012695646217E-16, 0.000000000000000000 ) ) ;
#225 = VECTOR ( 'NONE', #515, 1000.000000000000000 ) ;
#226 = VECTOR ( 'NONE', #388, 1000.000000000000000 ) ;
#227 = EDGE_CURVE ( 'NONE', #571, #351, #850, .T. ) ;
#228 = ORIENTED_EDGE ( 'NONE', *, *, #720, .T. ) ;
#229 = CARTESIAN_POINT ( 'NONE',  ( 11.00000000000000000, 6.071532165918824830E-15, 0.000000000000000000 ) ) ;
#230 = PLANE ( 'NONE',  #505 ) ;
#231 = ORIENTED_EDGE ( 'NONE', *, *, #569, .F. ) ;
#232 = ORIENTED_EDGE ( 'NONE', *, *, #18, .T. ) ;
#233 = LINE ( 'NONE', #1010, #668 ) ;
#234 = DIRECTION ( 'NONE',  ( 7.228014483236697048E-17, -1.000000000000000000, 0.000000000000000000 ) ) ;
#235 = ORIENTED_EDGE ( 'NONE', *, *, #646, .F. ) ;
#236 = LINE ( 'NONE', #703, #445 ) ;
#237 = ORIENTED_EDGE ( 'NONE', *, *, #163, .F. ) ;
#238 = EDGE_LOOP ( 'NONE', ( #383, #964, #991, #763 ) ) ;
#239 = CARTESIAN_POINT ( 'NONE',  ( 19.00000000000000355, 2.000000000000006217, 4.299999999999999822 ) ) ;
#240 = EDGE_CURVE ( 'NONE', #726, #176, #914, .T. ) ;
#241 = EDGE_CURVE ( 'NONE', #156, #780, #140, .T. ) ;
#242 = DIRECTION ( 'NONE',  ( -1.000000000000000000, 0.000000000000000000, -0.000000000000000000 ) ) ;
#243 = VECTOR ( 'NONE', #934, 1000.000000000000000 ) ;
#244 = FACE_OUTER_BOUND ( 'NONE', #316, .T. ) ;
#245 = ORIENTED_EDGE ( 'NONE', *, *, #420, .F. ) ;
#246 = DIRECTION ( 'NONE',  ( 0.000000000000000000, 0.000000000000000000, 1.000000000000000000 ) ) ;
#247 = AXIS2_PLACEMENT_3D ( 'NONE', #40, #234, #398 ) ;
#248 = DIRECTION ( 'NONE',  ( -1.000000000000000000, 0.000000000000000000, 0.000000000000000000 ) ) ;
#249 = ORIENTED_EDGE ( 'NONE', *, *, #122, .T. ) ;
#250 = AXIS2_PLACEMENT_3D ( 'NONE', #679, #580, #907 ) ;
#251 = DIRECTION ( 'NONE',  ( -1.000000000000000000, 0.000000000000000000, 0.000000000000000000 ) ) ;
#252 = CARTESIAN_POINT ( 'NONE',  ( -7.500000000000000888, 1.500000000000000000, 4.299999999999999822 ) ) ;
#253 = EDGE_LOOP ( 'NONE', ( #669, #713, #796, #631 ) ) ;
#254 = CARTESIAN_POINT ( 'NONE',  ( 0.4999999999999997780, 2.500000000000000000, 4.299999999999999822 ) ) ;
#255 = ORIENTED_EDGE ( 'NONE', *, *, #438, .F. ) ;
#256 = EDGE_LOOP ( 'NONE', ( #795, #861, #549, #892, #279, #745, #722, #536, #311, #940, #883, #475, #888, #496, #779, #232, #681, #323, #1012, #376, #867, #1005, #150, #899 ) ) ;
#257 = AXIS2_PLACEMENT_3D ( 'NONE', #920, #216, #141 ) ;
#258 = ORIENTED_EDGE ( 'NONE', *, *, #882, .T. ) ;
#259 = EDGE_LOOP ( 'NONE', ( #108, #200, #402, #258, #479, #561, #815, #463, #64, #564, #231, #730, #791, #1008, #245, #984, #41, #228, #346, #1001, #255, #414, #298, #69 ) ) ;
#260 = EDGE_CURVE ( 'NONE', #24, #431, #896, .T. ) ;
#261 = APPLICATION_PROTOCOL_DEFINITION ( 'draft international standard', 'automotive_design', 1998, #875 ) ;
#262 = VERTEX_POINT ( 'NONE', #56 ) ;
#263 = ADVANCED_FACE ( 'NONE', ( #761 ), #446, .F. ) ;
#264 = ADVANCED_FACE ( 'NONE', ( #244 ), #625, .T. ) ;
#265 = CARTESIAN_POINT ( 'NONE',  ( 16.07542097657991675, 1.734723475976807094E-15, 3.449999999999999734 ) ) ;
#266 = ORIENTED_EDGE ( 'NONE', *, *, #683, .F. ) ;
#267 = CARTESIAN_POINT ( 'NONE',  ( -2.000000000000001776, 5.000000000000001776, 4.299999999999999822 ) ) ;
#268 = CIRCLE ( 'NONE', #396, 1.300000000000000044 ) ;
#269 = PLANE ( 'NONE',  #89 ) ;
#270 = ORIENTED_EDGE ( 'NONE', *, *, #357, .F. ) ;
#271 = LINE ( 'NONE', #198, #973 ) ;
#272 = VECTOR ( 'NONE', #950, 1000.000000000000000 ) ;
#273 = PLANE ( 'NONE',  #477 ) ;
#274 = ORIENTED_EDGE ( 'NONE', *, *, #241, .F. ) ;
#275 = DIRECTION ( 'NONE',  ( 0.000000000000000000, 1.000000000000000000, 0.000000000000000000 ) ) ;
#276 = DIRECTION ( 'NONE',  ( 0.000000000000000000, -0.000000000000000000, -1.000000000000000000 ) ) ;
#277 = CYLINDRICAL_SURFACE ( 'NONE', #250, 1.299999999999999156 ) ;
#278 = DIRECTION ( 'NONE',  ( 1.000000000000000000, 2.365532012695646217E-16, 0.000000000000000000 ) ) ;
#279 = ORIENTED_EDGE ( 'NONE', *, *, #584, .T. ) ;
#280 = CARTESIAN_POINT ( 'NONE',  ( 19.00000000000000355, 0.5000000000000058842, 4.299999999999999822 ) ) ;
#281 = CARTESIAN_POINT ( 'NONE',  ( 0.000000000000000000, 2.500000000000000000, 4.299999999999999822 ) ) ;
#282 = VECTOR ( 'NONE', #299, 1000.000000000000000 ) ;
#283 = MECHANICAL_DESIGN_GEOMETRIC_PRESENTATION_REPRESENTATION (  '', ( #721 ), #863 ) ;
#284 = LINE ( 'NONE', #229, #803 ) ;
#285 = FACE_OUTER_BOUND ( 'NONE', #524, .T. ) ;
#286 = CIRCLE ( 'NONE', #423, 0.5000000000000000000 ) ;
#287 = LINE ( 'NONE', #55, #306 ) ;
#288 = EDGE_CURVE ( 'NONE', #879, #24, #872, .T. ) ;
#289 = AXIS2_PLACEMENT_3D ( 'NONE', #516, #506, #837 ) ;
#290 = CARTESIAN_POINT ( 'NONE',  ( -7.500000000000000888, 0.4999999999999998890, 0.000000000000000000 ) ) ;
#291 = CYLINDRICAL_SURFACE ( 'NONE', #582, 0.4999999999999995559 ) ;
#292 = ORIENTED_EDGE ( 'NONE', *, *, #83, .F. ) ;
#293 = DIRECTION ( 'NONE',  ( -0.000000000000000000, 0.000000000000000000, -1.000000000000000000 ) ) ;
#294 = ADVANCED_FACE ( 'NONE', ( #170 ), #386, .T. ) ;
#295 = CARTESIAN_POINT ( 'NONE',  ( 16.07542097657991675, 1.734723475976807094E-15, 0.8500000000000017542 ) ) ;
#296 = FACE_BOUND ( 'NONE', #405, .T. ) ;
#297 = ADVANCED_FACE ( 'NONE', ( #1019 ), #613, .F. ) ;
#298 = ORIENTED_EDGE ( 'NONE', *, *, #977, .F. ) ;
#299 = DIRECTION ( 'NONE',  ( 0.000000000000000000, -0.000000000000000000, 1.000000000000000000 ) ) ;
#300 = ORIENTED_EDGE ( 'NONE', *, *, #178, .T. ) ;
#301 = DIRECTION ( 'NONE',  ( -1.000000000000000000, 0.000000000000000000, 0.000000000000000000 ) ) ;
#302 = CARTESIAN_POINT ( 'NONE',  ( 12.49999999999999822, 4.500000000000002665, 4.299999999999999822 ) ) ;
#303 = ORIENTED_EDGE ( 'NONE', *, *, #510, .F. ) ;
#304 = EDGE_LOOP ( 'NONE', ( #609, #180, #143, #764 ) ) ;
#305 = DIRECTION ( 'NONE',  ( 0.000000000000000000, 1.000000000000000000, 0.000000000000000000 ) ) ;
#306 = VECTOR ( 'NONE', #659, 1000.000000000000000 ) ;
#307 = DIRECTION ( 'NONE',  ( -0.000000000000000000, 1.000000000000000000, -0.000000000000000000 ) ) ;
#308 = ORIENTED_EDGE ( 'NONE', *, *, #142, .F. ) ;
#309 = DIRECTION ( 'NONE',  ( -0.000000000000000000, -0.000000000000000000, 1.000000000000000000 ) ) ;
#310 = EDGE_CURVE ( 'NONE', #331, #208, #712, .T. ) ;
#311 = ORIENTED_EDGE ( 'NONE', *, *, #367, .T. ) ;
#312 = ORIENTED_EDGE ( 'NONE', *, *, #438, .T. ) ;
#313 = DIRECTION ( 'NONE',  ( 0.000000000000000000, -1.000000000000000000, 0.000000000000000000 ) ) ;
#314 = FACE_OUTER_BOUND ( 'NONE', #256, .T. ) ;
#315 = CARTESIAN_POINT ( 'NONE',  ( 10.49999999999999822, 2.500000000000002665, 0.000000000000000000 ) ) ;
#316 = EDGE_LOOP ( 'NONE', ( #411, #884, #418, #959 ) ) ;
#317 = CYLINDRICAL_SURFACE ( 'NONE', #975, 0.5000000000000004441 ) ;
#318 = CARTESIAN_POINT ( 'NONE',  ( -4.900729924305655238, 2.000000000000000000, 3.465948666567723713 ) ) ;
#319 = AXIS2_PLACEMENT_3D ( 'NONE', #585, #436, #900 ) ;
#320 = ORIENTED_EDGE ( 'NONE', *, *, #106, .T. ) ;
#321 = CARTESIAN_POINT ( 'NONE',  ( -4.900729924305655238, 2.000000000000000000, 0.8659486665677238459 ) ) ;
#322 = DIRECTION ( 'NONE',  ( -1.000000000000000000, -5.782411586589357392E-17, 0.000000000000000000 ) ) ;
#323 = ORIENTED_EDGE ( 'NONE', *, *, #333, .T. ) ;
#324 = VECTOR ( 'NONE', #322, 1000.000000000000000 ) ;
#325 = CARTESIAN_POINT ( 'NONE',  ( 0.000000000000000000, 0.000000000000000000, 4.299999999999999822 ) ) ;
#326 = ORIENTED_EDGE ( 'NONE', *, *, #6, .T. ) ;
#327 = ORIENTED_EDGE ( 'NONE', *, *, #310, .F. ) ;
#328 = DIRECTION ( 'NONE',  ( 0.000000000000000000, 0.000000000000000000, 1.000000000000000000 ) ) ;
#329 = VECTOR ( 'NONE', #313, 1000.000000000000000 ) ;
#330 = EDGE_CURVE ( 'NONE', #351, #400, #11, .T. ) ;
#331 = VERTEX_POINT ( 'NONE', #552 ) ;
#332 = VECTOR ( 'NONE', #169, 1000.000000000000000 ) ;
#333 = EDGE_CURVE ( 'NONE', #903, #951, #678, .T. ) ;
#334 = ORIENTED_EDGE ( 'NONE', *, *, #336, .F. ) ;
#335 = ORIENTED_EDGE ( 'NONE', *, *, #187, .F. ) ;
#336 = EDGE_CURVE ( 'NONE', #689, #331, #236, .T. ) ;
#337 = LINE ( 'NONE', #507, #344 ) ;
#338 = VERTEX_POINT ( 'NONE', #318 ) ;
#339 = LINE ( 'NONE', #649, #409 ) ;
#340 = ORIENTED_EDGE ( 'NONE', *, *, #403, .T. ) ;
#341 = DIRECTION ( 'NONE',  ( 0.000000000000000000, 0.000000000000000000, 1.000000000000000000 ) ) ;
#342 = CIRCLE ( 'NONE', #929, 0.5000000000000004441 ) ;
#343 = VECTOR ( 'NONE', #905, 1000.000000000000000 ) ;
#344 = VECTOR ( 'NONE', #500, 1000.000000000000000 ) ;
#345 = FACE_BOUND ( 'NONE', #487, .T. ) ;
#346 = ORIENTED_EDGE ( 'NONE', *, *, #921, .F. ) ;
#347 = FACE_BOUND ( 'NONE', #371, .T. ) ;
#348 = CARTESIAN_POINT ( 'NONE',  ( -1.500000000000001332, 4.500000000000001776, 4.299999999999999822 ) ) ;
#349 = EDGE_CURVE ( 'NONE', #757, #903, #777, .T. ) ;
#350 = CARTESIAN_POINT ( 'NONE',  ( 0.000000000000000000, 3.000000000000000000, 4.299999999999999822 ) ) ;
#351 = VERTEX_POINT ( 'NONE', #629 ) ;
#352 = CARTESIAN_POINT ( 'NONE',  ( 19.00000000000000355, 2.000000000000006217, 4.299999999999999822 ) ) ;
#353 = FACE_OUTER_BOUND ( 'NONE', #740, .T. ) ;
#354 = DIRECTION ( 'NONE',  ( -0.000000000000000000, 0.000000000000000000, 1.000000000000000000 ) ) ;
#355 = DIRECTION ( 'NONE',  ( -0.000000000000000000, 1.000000000000000000, -0.000000000000000000 ) ) ;
#356 = ORIENTED_EDGE ( 'NONE', *, *, #728, .F. ) ;
#357 = EDGE_CURVE ( 'NONE', #557, #1016, #953, .T. ) ;
#358 = DIRECTION ( 'NONE',  ( 1.445602896647338424E-16, -1.000000000000000000, 0.000000000000000000 ) ) ;
#359 = CARTESIAN_POINT ( 'NONE',  ( 11.00000000000000000, 0.5000000000000061062, 0.000000000000000000 ) ) ;
#360 = VECTOR ( 'NONE', #538, 1000.000000000000000 ) ;
#361 = AXIS2_PLACEMENT_3D ( 'NONE', #123, #919, #589 ) ;
#362 = CARTESIAN_POINT ( 'NONE',  ( 18.50000000000000355, 1.500000000000005995, 4.299999999999999822 ) ) ;
#363 = LINE ( 'NONE', #605, #243 ) ;
#364 = CARTESIAN_POINT ( 'NONE',  ( 0.4999999999999997780, 2.500000000000000000, 4.299999999999999822 ) ) ;
#365 = EDGE_CURVE ( 'NONE', #431, #63, #547, .T. ) ;
#366 = DIRECTION ( 'NONE',  ( -0.000000000000000000, 0.000000000000000000, 1.000000000000000000 ) ) ;
#367 = EDGE_CURVE ( 'NONE', #351, #157, #392, .T. ) ;
#368 = AXIS2_PLACEMENT_3D ( 'NONE', #362, #354, #754 ) ;
#369 = CARTESIAN_POINT ( 'NONE',  ( -8.000000000000000000, 0.5000000000000000000, 4.299999999999999822 ) ) ;
#370 = CARTESIAN_POINT ( 'NONE',  ( 13.00000000000000000, 2.500000000000005329, 4.299999999999999822 ) ) ;
#371 = EDGE_LOOP ( 'NONE', ( #335, #266 ) ) ;
#372 = CARTESIAN_POINT ( 'NONE',  ( -8.000000000000000000, 0.000000000000000000, 0.000000000000000000 ) ) ;
#373 = CARTESIAN_POINT ( 'NONE',  ( -4.900729924305655238, 2.000000000000000000, 0.8659486665677240680 ) ) ;
#374 = FACE_OUTER_BOUND ( 'NONE', #101, .T. ) ;
#375 = ORIENTED_EDGE ( 'NONE', *, *, #18, .F. ) ;
#376 = ORIENTED_EDGE ( 'NONE', *, *, #886, .T. ) ;
#377 = LINE ( 'NONE', #456, #635 ) ;
#378 = EDGE_CURVE ( 'NONE', #483, #726, #88, .T. ) ;
#379 = ORIENTED_EDGE ( 'NONE', *, *, #403, .F. ) ;
#380 = DIRECTION ( 'NONE',  ( -1.000000000000000000, 0.000000000000000000, 0.000000000000000000 ) ) ;
#381 = CARTESIAN_POINT ( 'NONE',  ( -7.500000000000001776, 2.000000000000000000, 0.000000000000000000 ) ) ;
#382 = ORIENTED_EDGE ( 'NONE', *, *, #977, .T. ) ;
#383 = ORIENTED_EDGE ( 'NONE', *, *, #801, .F. ) ;
#384 = DIRECTION ( 'NONE',  ( -1.000000000000000000, 0.000000000000000000, 0.000000000000000000 ) ) ;
#385 = LINE ( 'NONE', #465, #710 ) ;
#386 = CYLINDRICAL_SURFACE ( 'NONE', #412, 0.5000000000000004441 ) ;
#387 = ORIENTED_EDGE ( 'NONE', *, *, #288, .F. ) ;
#388 = DIRECTION ( 'NONE',  ( 0.000000000000000000, -1.000000000000000000, 0.000000000000000000 ) ) ;
#389 = CARTESIAN_POINT ( 'NONE',  ( -0.4999999999999998890, 0.4999999999999997780, 4.299999999999999822 ) ) ;
#390 = ORIENTED_EDGE ( 'NONE', *, *, #546, .T. ) ;
#391 = DIRECTION ( 'NONE',  ( -1.000000000000000000, 0.000000000000000000, 0.000000000000000000 ) ) ;
#392 = LINE ( 'NONE', #707, #324 ) ;
#393 = COLOUR_RGB ( '',0.7921568627450980005, 0.8196078431372548767, 0.9333333333333333481 ) ;
#394 = VERTEX_POINT ( 'NONE', #579 ) ;
#395 = ADVANCED_FACE ( 'NONE', ( #353 ), #586, .F. ) ;
#396 = AXIS2_PLACEMENT_3D ( 'NONE', #416, #31, #976 ) ;
#397 = AXIS2_PLACEMENT_3D ( 'NONE', #667, #983, #990 ) ;
#398 = DIRECTION ( 'NONE',  ( 1.000000000000000000, 7.228014483236697048E-17, 0.000000000000000000 ) ) ;
#399 = EDGE_CURVE ( 'NONE', #157, #95, #654, .T. ) ;
#400 = VERTEX_POINT ( 'NONE', #751 ) ;
#401 = DIRECTION ( 'NONE',  ( 1.000000000000000000, 5.782411586589357392E-17, 0.000000000000000000 ) ) ;
#402 = ORIENTED_EDGE ( 'NONE', *, *, #178, .F. ) ;
#403 = EDGE_CURVE ( 'NONE', #854, #156, #138, .T. ) ;
#404 = VECTOR ( 'NONE', #158, 1000.000000000000000 ) ;
#405 = EDGE_LOOP ( 'NONE', ( #870, #543 ) ) ;
#406 = ORIENTED_EDGE ( 'NONE', *, *, #646, .T. ) ;
#407 = CIRCLE ( 'NONE', #992, 0.5000000000000000000 ) ;
#408 = PRODUCT_CONTEXT ( 'NONE', #493, 'mechanical' ) ;
#409 = VECTOR ( 'NONE', #112, 1000.000000000000000 ) ;
#410 = FACE_BOUND ( 'NONE', #614, .T. ) ;
#411 = ORIENTED_EDGE ( 'NONE', *, *, #333, .F. ) ;
#412 = AXIS2_PLACEMENT_3D ( 'NONE', #541, #697, #859 ) ;
#413 = DIRECTION ( 'NONE',  ( 1.000000000000000000, 7.228014483236695569E-16, -0.000000000000000000 ) ) ;
#414 = ORIENTED_EDGE ( 'NONE', *, *, #835, .T. ) ;
#415 = CYLINDRICAL_SURFACE ( 'NONE', #890, 0.5000000000000000000 ) ;
#416 = CARTESIAN_POINT ( 'NONE',  ( -4.900729924305655238, 2.000000000000000000, 2.165948666567723890 ) ) ;
#417 = CARTESIAN_POINT ( 'NONE',  ( 0.000000000000000000, 0.000000000000000000, 4.299999999999999822 ) ) ;
#418 = ORIENTED_EDGE ( 'NONE', *, *, #621, .F. ) ;
#419 = FACE_OUTER_BOUND ( 'NONE', #806, .T. ) ;
#420 = EDGE_CURVE ( 'NONE', #82, #714, #503, .T. ) ;
#421 = CARTESIAN_POINT ( 'NONE',  ( 19.00000000000000355, 0.5000000000000058842, 4.299999999999999822 ) ) ;
#422 = VECTOR ( 'NONE', #498, 1000.000000000000000 ) ;
#423 = AXIS2_PLACEMENT_3D ( 'NONE', #62, #107, #100 ) ;
#424 = DIRECTION ( 'NONE',  ( -0.000000000000000000, 0.000000000000000000, -1.000000000000000000 ) ) ;
#425 = ORIENTED_EDGE ( 'NONE', *, *, #481, .T. ) ;
#426 = DIRECTION ( 'NONE',  ( -1.000000000000000000, 0.000000000000000000, 0.000000000000000000 ) ) ;
#427 = CARTESIAN_POINT ( 'NONE',  ( -1.999999999999999556, 2.000000000000000444, 0.000000000000000000 ) ) ;
#428 = EDGE_CURVE ( 'NONE', #168, #483, #437, .T. ) ;
#429 = CARTESIAN_POINT ( 'NONE',  ( -8.000000000000000000, 0.5000000000000000000, 0.000000000000000000 ) ) ;
#430 = CARTESIAN_POINT ( 'NONE',  ( -4.900729924305655238, 2.000000000000000000, 2.165948666567723890 ) ) ;
#431 = VERTEX_POINT ( 'NONE', #742 ) ;
#432 = DIRECTION ( 'NONE',  ( -1.000000000000000000, 0.000000000000000000, 0.000000000000000000 ) ) ;
#433 = EDGE_CURVE ( 'NONE', #726, #704, #572, .T. ) ;
#434 = DIRECTION ( 'NONE',  ( 1.000000000000000000, 0.000000000000000000, 0.000000000000000000 ) ) ;
#435 = DIRECTION ( 'NONE',  ( 0.000000000000000000, -0.000000000000000000, 1.000000000000000000 ) ) ;
#436 = DIRECTION ( 'NONE',  ( -0.000000000000000000, 0.000000000000000000, 1.000000000000000000 ) ) ;
#437 = LINE ( 'NONE', #996, #790 ) ;
#438 = EDGE_CURVE ( 'NONE', #616, #560, #287, .T. ) ;
#439 = AXIS2_PLACEMENT_3D ( 'NONE', #608, #149, #595 ) ;
#440 = LINE ( 'NONE', #373, #774 ) ;
#441 = CARTESIAN_POINT ( 'NONE',  ( 16.07542097657991675, 2.000000000000001776, 2.150000000000000799 ) ) ;
#442 = AXIS2_PLACEMENT_3D ( 'NONE', #348, #366, #110 ) ;
#443 = DIRECTION ( 'NONE',  ( -0.000000000000000000, 1.000000000000000000, -0.000000000000000000 ) ) ;
#444 = LINE ( 'NONE', #450, #329 ) ;
#445 = VECTOR ( 'NONE', #460, 1000.000000000000000 ) ;
#446 = PLANE ( 'NONE',  #58 ) ;
#447 = DIRECTION ( 'NONE',  ( 0.000000000000000000, 0.000000000000000000, -1.000000000000000000 ) ) ;
#448 = CARTESIAN_POINT ( 'NONE',  ( 0.000000000000000000, 0.000000000000000000, 0.000000000000000000 ) ) ;
#449 = ORIENTED_EDGE ( 'NONE', *, *, #330, .T. ) ;
#450 = CARTESIAN_POINT ( 'NONE',  ( 11.00000000000000000, 3.000000000000002665, 0.000000000000000000 ) ) ;
#451 = ORIENTED_EDGE ( 'NONE', *, *, #636, .F. ) ;
#452 = DIRECTION ( 'NONE',  ( 0.000000000000000000, 0.000000000000000000, 1.000000000000000000 ) ) ;
#453 = CARTESIAN_POINT ( 'NONE',  ( 0.4999999999999996669, 3.000000000000000000, 0.000000000000000000 ) ) ;
#454 = DIRECTION ( 'NONE',  ( 0.000000000000000000, 1.000000000000000000, 0.000000000000000000 ) ) ;
#455 = EDGE_LOOP ( 'NONE', ( #2, #709, #249, #657 ) ) ;
#456 = CARTESIAN_POINT ( 'NONE',  ( -7.500000000000000888, 0.000000000000000000, 4.299999999999999822 ) ) ;
#457 = VECTOR ( 'NONE', #129, 1000.000000000000000 ) ;
#458 = ADVANCED_FACE ( 'NONE', ( #203 ), #131, .F. ) ;
#459 = CARTESIAN_POINT ( 'NONE',  ( -7.500000000000000888, 0.000000000000000000, 4.299999999999999822 ) ) ;
#460 = DIRECTION ( 'NONE',  ( 0.000000000000000000, 0.000000000000000000, -1.000000000000000000 ) ) ;
#461 = CIRCLE ( 'NONE', #361, 1.299999999999999156 ) ;
#462 = VERTEX_POINT ( 'NONE', #281 ) ;
#463 = ORIENTED_EDGE ( 'NONE', *, *, #756, .T. ) ;
#464 = CARTESIAN_POINT ( 'NONE',  ( -2.000000000000001776, 5.000000000000001776, 0.000000000000000000 ) ) ;
#465 = CARTESIAN_POINT ( 'NONE',  ( -2.000000000000001332, 4.500000000000001776, 4.299999999999999822 ) ) ;
#466 = EDGE_CURVE ( 'NONE', #687, #482, #192, .T. ) ;
#467 = DIRECTION ( 'NONE',  ( -1.000000000000000000, 0.000000000000000000, 0.000000000000000000 ) ) ;
#468 = ORIENTED_EDGE ( 'NONE', *, *, #260, .F. ) ;
#469 = CARTESIAN_POINT ( 'NONE',  ( 11.50000000000000000, 0.5000000000000059952, 0.000000000000000000 ) ) ;
#470 = CARTESIAN_POINT ( 'NONE',  ( 18.50000000000000355, 2.000000000000006217, 4.299999999999999822 ) ) ;
#471 = ADVANCED_FACE ( 'NONE', ( #677 ), #509, .F. ) ;
#472 = ORIENTED_EDGE ( 'NONE', *, *, #182, .F. ) ;
#473 = EDGE_CURVE ( 'NONE', #701, #616, #214, .T. ) ;
#474 = DIRECTION ( 'NONE',  ( 5.782411586589357392E-17, -1.000000000000000000, 0.000000000000000000 ) ) ;
#475 = ORIENTED_EDGE ( 'NONE', *, *, #152, .T. ) ;
#476 = AXIS2_PLACEMENT_3D ( 'NONE', #901, #821, #121 ) ;
#477 = AXIS2_PLACEMENT_3D ( 'NONE', #417, #117, #26 ) ;
#478 = DIRECTION ( 'NONE',  ( -1.000000000000000000, 0.000000000000000000, 0.000000000000000000 ) ) ;
#479 = ORIENTED_EDGE ( 'NONE', *, *, #573, .F. ) ;
#480 = ORIENTED_EDGE ( 'NONE', *, *, #952, .F. ) ;
#481 = EDGE_CURVE ( 'NONE', #113, #633, #817, .T. ) ;
#482 = VERTEX_POINT ( 'NONE', #829 ) ;
#483 = VERTEX_POINT ( 'NONE', #567 ) ;
#484 =( NAMED_UNIT ( * ) SI_UNIT ( $, .STERADIAN. ) SOLID_ANGLE_UNIT ( ) );
#485 = DIRECTION ( 'NONE',  ( -1.000000000000000000, 0.000000000000000000, 0.000000000000000000 ) ) ;
#486 = ORIENTED_EDGE ( 'NONE', *, *, #201, .T. ) ;
#487 = EDGE_LOOP ( 'NONE', ( #303, #59 ) ) ;
#488 = DIRECTION ( 'NONE',  ( 0.000000000000000000, 0.000000000000000000, -1.000000000000000000 ) ) ;
#489 = VERTEX_POINT ( 'NONE', #359 ) ;
#490 = DIRECTION ( 'NONE',  ( 1.000000000000000000, 1.445602896647338424E-16, 0.000000000000000000 ) ) ;
#491 = DIRECTION ( 'NONE',  ( 1.000000000000000000, 0.000000000000000000, 0.000000000000000000 ) ) ;
#492 = AXIS2_PLACEMENT_3D ( 'NONE', #946, #941, #869 ) ;
#493 = APPLICATION_CONTEXT ( 'automotive_design' ) ;
#494 = EDGE_CURVE ( 'NONE', #979, #113, #10, .T. ) ;
#495 = DIRECTION ( 'NONE',  ( -0.000000000000000000, -0.000000000000000000, 1.000000000000000000 ) ) ;
#496 = ORIENTED_EDGE ( 'NONE', *, *, #378, .T. ) ;
#497 = DIRECTION ( 'NONE',  ( 1.000000000000000000, 0.000000000000000000, 0.000000000000000000 ) ) ;
#498 = DIRECTION ( 'NONE',  ( 0.000000000000000000, 0.000000000000000000, -1.000000000000000000 ) ) ;
#499 =( LENGTH_UNIT ( ) NAMED_UNIT ( * ) SI_UNIT ( .MILLI., .METRE. ) );
#500 = DIRECTION ( 'NONE',  ( 0.000000000000000000, 1.000000000000000000, 0.000000000000000000 ) ) ;
#501 = VERTEX_POINT ( 'NONE', #981 ) ;
#502 = DIRECTION ( 'NONE',  ( 1.000000000000000000, 0.000000000000000000, 0.000000000000000000 ) ) ;
#503 = LINE ( 'NONE', #427, #225 ) ;
#504 = EDGE_CURVE ( 'NONE', #400, #560, #568, .T. ) ;
#505 = AXIS2_PLACEMENT_3D ( 'NONE', #57, #221, #435 ) ;
#506 = DIRECTION ( 'NONE',  ( -0.000000000000000000, 0.000000000000000000, 1.000000000000000000 ) ) ;
#507 = CARTESIAN_POINT ( 'NONE',  ( 19.00000000000000355, 6.071532165918824830E-15, 4.299999999999999822 ) ) ;
#508 = ORIENTED_EDGE ( 'NONE', *, *, #873, .F. ) ;
#509 = CYLINDRICAL_SURFACE ( 'NONE', #893, 1.300000000000000044 ) ;
#510 = EDGE_CURVE ( 'NONE', #338, #970, #268, .T. ) ;
#511 = EDGE_CURVE ( 'NONE', #1016, #979, #271, .T. ) ;
#512 = DIRECTION ( 'NONE',  ( -1.000000000000000000, 0.000000000000000000, 0.000000000000000000 ) ) ;
#513 = CARTESIAN_POINT ( 'NONE',  ( -8.000000000000000000, 1.500000000000000000, 4.299999999999999822 ) ) ;
#514 = CYLINDRICAL_SURFACE ( 'NONE', #134, 0.5000000000000004441 ) ;
#515 = DIRECTION ( 'NONE',  ( -1.000000000000000000, -7.228014483236695816E-17, 0.000000000000000000 ) ) ;
#516 = CARTESIAN_POINT ( 'NONE',  ( 12.49999999999999822, 4.500000000000002665, 4.299999999999999822 ) ) ;
#517 = LINE ( 'NONE', #453, #457 ) ;
#518 = ORIENTED_EDGE ( 'NONE', *, *, #494, .F. ) ;
#519 = DIRECTION ( 'NONE',  ( -0.000000000000000000, 0.000000000000000000, 1.000000000000000000 ) ) ;
#520 = CIRCLE ( 'NONE', #752, 1.299999999999999600 ) ;
#521 = DIRECTION ( 'NONE',  ( -0.000000000000000000, 1.000000000000000000, -0.000000000000000000 ) ) ;
#522 = DIRECTION ( 'NONE',  ( 0.000000000000000000, -0.000000000000000000, -1.000000000000000000 ) ) ;
#523 = VECTOR ( 'NONE', #999, 1000.000000000000000 ) ;
#524 = EDGE_LOOP ( 'NONE', ( #766, #531, #948, #146 ) ) ;
#525 = ORIENTED_EDGE ( 'NONE', *, *, #698, .T. ) ;
#526 = CYLINDRICAL_SURFACE ( 'NONE', #98, 0.5000000000000004441 ) ;
#527 = ORIENTED_EDGE ( 'NONE', *, *, #797, .F. ) ;
#528 = CARTESIAN_POINT ( 'NONE',  ( 18.50000000000000355, 0.5000000000000058842, 0.000000000000000000 ) ) ;
#529 = LINE ( 'NONE', #680, #807 ) ;
#530 = EDGE_LOOP ( 'NONE', ( #270, #972, #612, #165 ) ) ;
#531 = ORIENTED_EDGE ( 'NONE', *, *, #550, .F. ) ;
#532 = CARTESIAN_POINT ( 'NONE',  ( -1.500000000000001332, 4.500000000000001776, 4.299999999999999822 ) ) ;
#533 = EDGE_CURVE ( 'NONE', #663, #208, #736, .T. ) ;
#534 = FACE_OUTER_BOUND ( 'NONE', #784, .T. ) ;
#535 = CARTESIAN_POINT ( 'NONE',  ( 19.00000000000000355, 6.071532165918824830E-15, 4.299999999999999822 ) ) ;
#536 = ORIENTED_EDGE ( 'NONE', *, *, #227, .T. ) ;
#537 = ORIENTED_EDGE ( 'NONE', *, *, #365, .F. ) ;
#538 = DIRECTION ( 'NONE',  ( -1.000000000000000000, -1.445602896647338424E-16, 0.000000000000000000 ) ) ;
#539 = EDGE_CURVE ( 'NONE', #82, #687, #770, .T. ) ;
#540 = LINE ( 'NONE', #864, #226 ) ;
#541 = CARTESIAN_POINT ( 'NONE',  ( 11.50000000000000000, 0.5000000000000059952, 4.299999999999999822 ) ) ;
#542 = AXIS2_PLACEMENT_3D ( 'NONE', #290, #989, #831 ) ;
#543 = ORIENTED_EDGE ( 'NONE', *, *, #12, .T. ) ;
#544 = VECTOR ( 'NONE', #278, 1000.000000000000000 ) ;
#545 = DIRECTION ( 'NONE',  ( -1.000000000000000000, -5.782411586589357392E-17, 0.000000000000000000 ) ) ;
#546 = EDGE_CURVE ( 'NONE', #489, #557, #596, .T. ) ;
#547 = LINE ( 'NONE', #470, #759 ) ;
#548 = VECTOR ( 'NONE', #46, 1000.000000000000000 ) ;
#549 = ORIENTED_EDGE ( 'NONE', *, *, #760, .T. ) ;
#550 = EDGE_CURVE ( 'NONE', #714, #483, #617, .T. ) ;
#551 = DIRECTION ( 'NONE',  ( -2.365532012695646710E-16, 1.000000000000000000, 0.000000000000000000 ) ) ;
#552 = CARTESIAN_POINT ( 'NONE',  ( 11.00000000000000000, 2.500000000000002665, 0.000000000000000000 ) ) ;
#553 = ORIENTED_EDGE ( 'NONE', *, *, #573, .T. ) ;
#554 = CARTESIAN_POINT ( 'NONE',  ( -0.4999999999999995559, 0.000000000000000000, 4.299999999999999822 ) ) ;
#555 = ADVANCED_FACE ( 'NONE', ( #849 ), #526, .T. ) ;
#556 = VERTEX_POINT ( 'NONE', #137 ) ;
#557 = VERTEX_POINT ( 'NONE', #71 ) ;
#558 = CIRCLE ( 'NONE', #844, 0.4999999999999995559 ) ;
#559 = ORIENTED_EDGE ( 'NONE', *, *, #330, .F. ) ;
#560 = VERTEX_POINT ( 'NONE', #78 ) ;
#561 = ORIENTED_EDGE ( 'NONE', *, *, #310, .T. ) ;
#562 = ORIENTED_EDGE ( 'NONE', *, *, #776, .F. ) ;
#563 = FACE_OUTER_BOUND ( 'NONE', #943, .T. ) ;
#564 = ORIENTED_EDGE ( 'NONE', *, *, #621, .T. ) ;
#565 = AXIS2_PLACEMENT_3D ( 'NONE', #352, #358, #490 ) ;
#566 = LINE ( 'NONE', #816, #841 ) ;
#567 = CARTESIAN_POINT ( 'NONE',  ( -7.500000000000001776, 2.000000000000000000, 4.299999999999999822 ) ) ;
#568 = CIRCLE ( 'NONE', #708, 0.5000000000000004441 ) ;
#569 = EDGE_CURVE ( 'NONE', #556, #757, #601, .T. ) ;
#570 = FACE_OUTER_BOUND ( 'NONE', #125, .T. ) ;
#571 = VERTEX_POINT ( 'NONE', #1017 ) ;
#572 = LINE ( 'NONE', #653, #343 ) ;
#573 = EDGE_CURVE ( 'NONE', #331, #489, #444, .T. ) ;
#574 = VECTOR ( 'NONE', #4, 1000.000000000000000 ) ;
#575 = DIRECTION ( 'NONE',  ( 1.000000000000000000, 0.000000000000000000, 0.000000000000000000 ) ) ;
#576 = FACE_OUTER_BOUND ( 'NONE', #967, .T. ) ;
#577 = ORIENTED_EDGE ( 'NONE', *, *, #161, .F. ) ;
#578 = CYLINDRICAL_SURFACE ( 'NONE', #602, 0.5000000000000004441 ) ;
#579 = CARTESIAN_POINT ( 'NONE',  ( 0.000000000000000000, 0.4999999999999997780, 0.000000000000000000 ) ) ;
#580 = DIRECTION ( 'NONE',  ( -0.000000000000000000, 1.000000000000000000, -0.000000000000000000 ) ) ;
#581 = CARTESIAN_POINT ( 'NONE',  ( -4.900729924305655238, 0.000000000000000000, 3.465948666567723269 ) ) ;
#582 = AXIS2_PLACEMENT_3D ( 'NONE', #915, #853, #768 ) ;
#583 = ORIENTED_EDGE ( 'NONE', *, *, #473, .F. ) ;
#584 = EDGE_CURVE ( 'NONE', #431, #771, #60, .T. ) ;
#585 = CARTESIAN_POINT ( 'NONE',  ( -7.500000000000000888, 0.4999999999999998890, 4.299999999999999822 ) ) ;
#586 = PLANE ( 'NONE',  #476 ) ;
#587 = VECTOR ( 'NONE', #767, 1000.000000000000000 ) ;
#588 = VECTOR ( 'NONE', #939, 1000.000000000000000 ) ;
#589 = DIRECTION ( 'NONE',  ( 0.000000000000000000, 0.000000000000000000, 1.000000000000000000 ) ) ;
#590 = CARTESIAN_POINT ( 'NONE',  ( 11.00000000000000000, 3.000000000000002665, 4.299999999999999822 ) ) ;
#591 = CARTESIAN_POINT ( 'NONE',  ( 11.50000000000000000, 6.071532165918824830E-15, 0.000000000000000000 ) ) ;
#592 = CARTESIAN_POINT ( 'NONE',  ( 16.07542097657991675, 1.734723475976807094E-15, 2.150000000000000799 ) ) ;
#593 = CARTESIAN_POINT ( 'NONE',  ( -8.000000000000000000, 1.500000000000000000, 0.000000000000000000 ) ) ;
#594 = DIRECTION ( 'NONE',  ( 0.000000000000000000, -1.000000000000000000, 0.000000000000000000 ) ) ;
#595 = DIRECTION ( 'NONE',  ( -1.000000000000000000, 0.000000000000000000, 0.000000000000000000 ) ) ;
#596 = LINE ( 'NONE', #781, #282 ) ;
#597 = CARTESIAN_POINT ( 'NONE',  ( -1.499999999999997780, 5.000000000000001776, 4.299999999999999822 ) ) ;
#598 = DIRECTION ( 'NONE',  ( -0.000000000000000000, 1.000000000000000000, -0.000000000000000000 ) ) ;
#599 = ORIENTED_EDGE ( 'NONE', *, *, #615, .T. ) ;
#600 = EDGE_LOOP ( 'NONE', ( #48, #171, #90, #527 ) ) ;
#601 = LINE ( 'NONE', #372, #404 ) ;
#602 = AXIS2_PLACEMENT_3D ( 'NONE', #980, #130, #497 ) ;
#603 = ORIENTED_EDGE ( 'NONE', *, *, #193, .F. ) ;
#604 = CARTESIAN_POINT ( 'NONE',  ( -4.900729924305655238, 2.000000000000000000, 2.165948666567723890 ) ) ;
#605 = CARTESIAN_POINT ( 'NONE',  ( 13.50000000000000000, 2.000000000000005329, 4.299999999999999822 ) ) ;
#606 = AXIS2_PLACEMENT_3D ( 'NONE', #895, #127, #432 ) ;
#607 = CIRCLE ( 'NONE', #397, 0.5000000000000004441 ) ;
#608 = CARTESIAN_POINT ( 'NONE',  ( 13.50000000000000000, 2.500000000000005329, 4.299999999999999822 ) ) ;
#609 = ORIENTED_EDGE ( 'NONE', *, *, #886, .F. ) ;
#610 = FACE_OUTER_BOUND ( 'NONE', #810, .T. ) ;
#611 = DIRECTION ( 'NONE',  ( -1.000000000000000000, 0.000000000000000000, -0.000000000000000000 ) ) ;
#612 = ORIENTED_EDGE ( 'NONE', *, *, #882, .F. ) ;
#613 = PLANE ( 'NONE',  #630 ) ;
#614 = EDGE_LOOP ( 'NONE', ( #340, #819 ) ) ;
#615 = EDGE_CURVE ( 'NONE', #828, #687, #218, .T. ) ;
#616 = VERTEX_POINT ( 'NONE', #765 ) ;
#617 = LINE ( 'NONE', #856, #800 ) ;
#618 = CARTESIAN_POINT ( 'NONE',  ( 0.000000000000000000, 0.4999999999999997780, 4.299999999999999822 ) ) ;
#619 = DIRECTION ( 'NONE',  ( -0.000000000000000000, 0.000000000000000000, 1.000000000000000000 ) ) ;
#620 = ORIENTED_EDGE ( 'NONE', *, *, #336, .T. ) ;
#621 = EDGE_CURVE ( 'NONE', #394, #757, #906, .T. ) ;
#622 = AXIS2_PLACEMENT_3D ( 'NONE', #758, #862, #65 ) ;
#623 = CARTESIAN_POINT ( 'NONE',  ( 0.000000000000000000, 3.000000000000000000, 4.299999999999999822 ) ) ;
#624 = CLOSED_SHELL ( 'NONE', ( #471, #188, #857, #876, #395, #690, #792, #993, #297, #822, #263, #111, #913, #918, #885, #957, #45, #555, #995, #645, #39, #75, #294, #264, #660, #842, #458, #642, #219, #802 ) ) ;
#625 = CYLINDRICAL_SURFACE ( 'NONE', #492, 0.5000000000000001110 ) ;
#626 = EDGE_CURVE ( 'NONE', #927, #556, #377, .T. ) ;
#627 = ORIENTED_EDGE ( 'NONE', *, *, #201, .F. ) ;
#628 = PLANE ( 'NONE',  #778 ) ;
#629 = CARTESIAN_POINT ( 'NONE',  ( 12.49999999999999822, 5.000000000000002665, 4.299999999999999822 ) ) ;
#630 = AXIS2_PLACEMENT_3D ( 'NONE', #167, #691, #955 ) ;
#631 = ORIENTED_EDGE ( 'NONE', *, *, #7, .F. ) ;
#632 = CARTESIAN_POINT ( 'NONE',  ( 13.00000000000000000, 5.000000000000002665, 0.000000000000000000 ) ) ;
#633 = VERTEX_POINT ( 'NONE', #688 ) ;
#634 = ORIENTED_EDGE ( 'NONE', *, *, #420, .T. ) ;
#635 = VECTOR ( 'NONE', #293, 1000.000000000000000 ) ;
#636 = EDGE_CURVE ( 'NONE', #701, #571, #233, .T. ) ;
#637 = AXIS2_PLACEMENT_3D ( 'NONE', #604, #661, #674 ) ;
#638 = ORIENTED_EDGE ( 'NONE', *, *, #962, .F. ) ;
#639 = AXIS2_PLACEMENT_3D ( 'NONE', #775, #307, #87 ) ;
#640 = EDGE_LOOP ( 'NONE', ( #181, #17, #603, #102 ) ) ;
#641 = ORIENTED_EDGE ( 'NONE', *, *, #921, .T. ) ;
#642 = ADVANCED_FACE ( 'NONE', ( #610 ), #938, .T. ) ;
#643 = CARTESIAN_POINT ( 'NONE',  ( 0.000000000000000000, 2.500000000000000000, 0.000000000000000000 ) ) ;
#644 = ORIENTED_EDGE ( 'NONE', *, *, #187, .T. ) ;
#645 = ADVANCED_FACE ( 'NONE', ( #695 ), #944, .T. ) ;
#646 = EDGE_CURVE ( 'NONE', #184, #771, #363, .T. ) ;
#647 =( NAMED_UNIT ( * ) PLANE_ANGLE_UNIT ( ) SI_UNIT ( $, .RADIAN. ) );
#648 = EDGE_CURVE ( 'NONE', #963, #663, #517, .T. ) ;
#649 = CARTESIAN_POINT ( 'NONE',  ( 13.00000000000000000, 4.500000000000002665, 4.299999999999999822 ) ) ;
#650 = ORIENTED_EDGE ( 'NONE', *, *, #44, .F. ) ;
#651 = CIRCLE ( 'NONE', #439, 0.5000000000000004441 ) ;
#652 =( LENGTH_UNIT ( ) NAMED_UNIT ( * ) SI_UNIT ( .MILLI., .METRE. ) );
#653 = CARTESIAN_POINT ( 'NONE',  ( -8.000000000000000000, 2.000000000000000000, 4.299999999999999822 ) ) ;
#654 = CIRCLE ( 'NONE', #442, 0.5000000000000000000 ) ;
#655 = CIRCLE ( 'NONE', #823, 0.5000000000000000000 ) ;
#656 = FACE_OUTER_BOUND ( 'NONE', #799, .T. ) ;
#657 = ORIENTED_EDGE ( 'NONE', *, *, #698, .F. ) ;
#658 = FACE_OUTER_BOUND ( 'NONE', #769, .T. ) ;
#659 = DIRECTION ( 'NONE',  ( 0.000000000000000000, 1.000000000000000000, 0.000000000000000000 ) ) ;
#660 = ADVANCED_FACE ( 'NONE', ( #374 ), #291, .T. ) ;
#661 = DIRECTION ( 'NONE',  ( -0.000000000000000000, 1.000000000000000000, -0.000000000000000000 ) ) ;
#662 = DIRECTION ( 'NONE',  ( -0.000000000000000000, 1.000000000000000000, -0.000000000000000000 ) ) ;
#663 = VERTEX_POINT ( 'NONE', #925 ) ;
#664 = CARTESIAN_POINT ( 'NONE',  ( 0.000000000000000000, 0.000000000000000000, 4.299999999999999822 ) ) ;
#665 = DIRECTION ( 'NONE',  ( -0.000000000000000000, 1.000000000000000000, -0.000000000000000000 ) ) ;
#666 = CARTESIAN_POINT ( 'NONE',  ( -2.499999999999999556, 2.500000000000000444, 4.299999999999999822 ) ) ;
#667 = CARTESIAN_POINT ( 'NONE',  ( 13.50000000000000000, 2.500000000000005329, 0.000000000000000000 ) ) ;
#668 = VECTOR ( 'NONE', #305, 1000.000000000000000 ) ;
#669 = ORIENTED_EDGE ( 'NONE', *, *, #152, .F. ) ;
#670 = CARTESIAN_POINT ( 'NONE',  ( 18.50000000000000355, 0.5000000000000058842, 4.299999999999999822 ) ) ;
#671 = DIRECTION ( 'NONE',  ( 0.000000000000000000, 0.000000000000000000, 1.000000000000000000 ) ) ;
#672 = PRESENTATION_LAYER_ASSIGNMENT (  '', '', ( #721 ) ) ;
#673 = AXIS2_PLACEMENT_3D ( 'NONE', #887, #488, #485 ) ;
#674 = DIRECTION ( 'NONE',  ( 0.000000000000000000, 0.000000000000000000, 1.000000000000000000 ) ) ;
#675 = LINE ( 'NONE', #846, #523 ) ;
#676 = LINE ( 'NONE', #267, #8 ) ;
#677 = FACE_OUTER_BOUND ( 'NONE', #455, .T. ) ;
#678 = CIRCLE ( 'NONE', #14, 0.5000000000000001110 ) ;
#679 = CARTESIAN_POINT ( 'NONE',  ( 16.07542097657991675, 2.000000000000001776, 2.150000000000000799 ) ) ;
#680 = CARTESIAN_POINT ( 'NONE',  ( -4.900729924305655238, 2.000000000000000000, 3.465948666567723713 ) ) ;
#681 = ORIENTED_EDGE ( 'NONE', *, *, #193, .T. ) ;
#682 = CARTESIAN_POINT ( 'NONE',  ( -2.499999999999999556, 2.500000000000000444, 0.000000000000000000 ) ) ;
#683 = EDGE_CURVE ( 'NONE', #780, #922, #21, .T. ) ;
#684 = CARTESIAN_POINT ( 'NONE',  ( -4.900729924305655238, 0.000000000000000000, 0.8659486665677242900 ) ) ;
#685 = FACE_OUTER_BOUND ( 'NONE', #640, .T. ) ;
#686 = ORIENTED_EDGE ( 'NONE', *, *, #33, .F. ) ;
#687 = VERTEX_POINT ( 'NONE', #749 ) ;
#688 = CARTESIAN_POINT ( 'NONE',  ( 19.00000000000000355, 0.5000000000000058842, 0.000000000000000000 ) ) ;
#689 = VERTEX_POINT ( 'NONE', #1004 ) ;
#690 = ADVANCED_FACE ( 'NONE', ( #296, #685 ), #230, .F. ) ;
#691 = DIRECTION ( 'NONE',  ( 1.000000000000000000, 0.000000000000000000, -0.000000000000000000 ) ) ;
#692 = AXIS2_PLACEMENT_3D ( 'NONE', #430, #908, #34 ) ;
#693 = DIRECTION ( 'NONE',  ( -0.000000000000000000, 0.000000000000000000, 1.000000000000000000 ) ) ;
#694 = ORIENTED_EDGE ( 'NONE', *, *, #510, .T. ) ;
#695 = FACE_OUTER_BOUND ( 'NONE', #144, .T. ) ;
#696 = CARTESIAN_POINT ( 'NONE',  ( 18.50000000000000355, 6.071532165918824830E-15, 4.299999999999999822 ) ) ;
#697 = DIRECTION ( 'NONE',  ( -0.000000000000000000, 0.000000000000000000, -1.000000000000000000 ) ) ;
#698 = EDGE_CURVE ( 'NONE', #787, #338, #529, .T. ) ;
#699 = EDGE_CURVE ( 'NONE', #176, #714, #558, .T. ) ;
#700 = UNCERTAINTY_MEASURE_WITH_UNIT (LENGTH_MEASURE( 1.000000000000000082E-05 ), #499, 'distance_accuracy_value', 'NONE');
#701 = VERTEX_POINT ( 'NONE', #370 ) ;
#702 = FACE_OUTER_BOUND ( 'NONE', #238, .T. ) ;
#703 = CARTESIAN_POINT ( 'NONE',  ( 11.00000000000000000, 2.500000000000002665, 0.000000000000000000 ) ) ;
#704 = VERTEX_POINT ( 'NONE', #148 ) ;
#705 = FACE_OUTER_BOUND ( 'NONE', #855, .T. ) ;
#706 = VECTOR ( 'NONE', #454, 1000.000000000000000 ) ;
#707 = CARTESIAN_POINT ( 'NONE',  ( 13.00000000000000000, 5.000000000000002665, 4.299999999999999822 ) ) ;
#708 = AXIS2_PLACEMENT_3D ( 'NONE', #747, #276, #812 ) ;
#709 = ORIENTED_EDGE ( 'NONE', *, *, #163, .T. ) ;
#710 = VECTOR ( 'NONE', #711, 1000.000000000000000 ) ;
#711 = DIRECTION ( 'NONE',  ( 0.000000000000000000, 0.000000000000000000, -1.000000000000000000 ) ) ;
#712 = CIRCLE ( 'NONE', #1000, 0.5000000000000004441 ) ;
#713 = ORIENTED_EDGE ( 'NONE', *, *, #466, .F. ) ;
#714 = VERTEX_POINT ( 'NONE', #381 ) ;
#715 = CARTESIAN_POINT ( 'NONE',  ( 16.07542097657991675, 2.000000000000001776, 3.449999999999999734 ) ) ;
#716 = EDGE_CURVE ( 'NONE', #689, #557, #53, .T. ) ;
#717 = ORIENTED_EDGE ( 'NONE', *, *, #481, .F. ) ;
#718 = EDGE_LOOP ( 'NONE', ( #734, #620, #553, #390 ) ) ;
#719 = AXIS2_PLACEMENT_3D ( 'NONE', #532, #772, #384 ) ;
#720 = EDGE_CURVE ( 'NONE', #828, #805, #724, .T. ) ;
#721 = STYLED_ITEM ( 'NONE', ( #911 ), #116 ) ;
#722 = ORIENTED_EDGE ( 'NONE', *, *, #636, .T. ) ;
#723 = ORIENTED_EDGE ( 'NONE', *, *, #428, .F. ) ;
#724 = CIRCLE ( 'NONE', #103, 0.5000000000000000000 ) ;
#725 = LINE ( 'NONE', #729, #25 ) ;
#726 = VERTEX_POINT ( 'NONE', #513 ) ;
#727 = EDGE_CURVE ( 'NONE', #847, #462, #675, .T. ) ;
#728 = EDGE_CURVE ( 'NONE', #501, #689, #120, .T. ) ;
#729 = CARTESIAN_POINT ( 'NONE',  ( 16.07542097657991675, 2.000000000000001776, 3.449999999999999734 ) ) ;
#730 = ORIENTED_EDGE ( 'NONE', *, *, #161, .T. ) ;
#731 = SURFACE_STYLE_FILL_AREA ( #109 ) ;
#732 = CARTESIAN_POINT ( 'NONE',  ( 13.00000000000000000, 2.500000000000005329, 0.000000000000000000 ) ) ;
#733 = LINE ( 'NONE', #195, #175 ) ;
#734 = ORIENTED_EDGE ( 'NONE', *, *, #716, .F. ) ;
#735 = CARTESIAN_POINT ( 'NONE',  ( 18.50000000000000355, 2.000000000000006217, 0.000000000000000000 ) ) ;
#736 = LINE ( 'NONE', #38, #988 ) ;
#737 = AXIS2_PLACEMENT_3D ( 'NONE', #592, #834, #341 ) ;
#738 = AXIS2_PLACEMENT_3D ( 'NONE', #902, #355, #827 ) ;
#739 = CYLINDRICAL_SURFACE ( 'NONE', #673, 0.4999999999999995559 ) ;
#740 = EDGE_LOOP ( 'NONE', ( #86, #486, #909, #860 ) ) ;
#741 = CARTESIAN_POINT ( 'NONE',  ( -2.000000000000001332, 4.500000000000001776, 4.299999999999999822 ) ) ;
#742 = CARTESIAN_POINT ( 'NONE',  ( 18.50000000000000355, 2.000000000000006217, 4.299999999999999822 ) ) ;
#743 = DIRECTION ( 'NONE',  ( -0.000000000000000000, -0.000000000000000000, 1.000000000000000000 ) ) ;
#744 = CARTESIAN_POINT ( 'NONE',  ( 13.50000000000000000, 2.000000000000005329, 4.299999999999999822 ) ) ;
#745 = ORIENTED_EDGE ( 'NONE', *, *, #1, .T. ) ;
#746 = CARTESIAN_POINT ( 'NONE',  ( 18.50000000000000355, 6.071532165918824830E-15, 4.299999999999999822 ) ) ;
#747 = CARTESIAN_POINT ( 'NONE',  ( 12.49999999999999822, 4.500000000000002665, 0.000000000000000000 ) ) ;
#748 = DIRECTION ( 'NONE',  ( 0.000000000000000000, -0.000000000000000000, 1.000000000000000000 ) ) ;
#749 = CARTESIAN_POINT ( 'NONE',  ( -2.000000000000000000, 2.500000000000000888, 0.000000000000000000 ) ) ;
#750 = LINE ( 'NONE', #746, #32 ) ;
#751 = CARTESIAN_POINT ( 'NONE',  ( 12.49999999999999822, 5.000000000000002665, 0.000000000000000000 ) ) ;
#752 = AXIS2_PLACEMENT_3D ( 'NONE', #135, #443, #213 ) ;
#753 = PRODUCT_DEFINITION_SHAPE ( 'NONE', 'NONE',  #179 ) ;
#754 = DIRECTION ( 'NONE',  ( -1.000000000000000000, 0.000000000000000000, 0.000000000000000000 ) ) ;
#755 = CARTESIAN_POINT ( 'NONE',  ( -7.500000000000000888, 1.500000000000000000, 0.000000000000000000 ) ) ;
#756 = EDGE_CURVE ( 'NONE', #663, #847, #286, .T. ) ;
#757 = VERTEX_POINT ( 'NONE', #969 ) ;
#758 = CARTESIAN_POINT ( 'NONE',  ( -0.4999999999999998890, 0.4999999999999997780, 0.000000000000000000 ) ) ;
#759 = VECTOR ( 'NONE', #786, 1000.000000000000000 ) ;
#760 = EDGE_CURVE ( 'NONE', #113, #24, #337, .T. ) ;
#761 = FACE_OUTER_BOUND ( 'NONE', #880, .T. ) ;
#762 = DIRECTION ( 'NONE',  ( -1.000000000000000000, 0.000000000000000000, 0.000000000000000000 ) ) ;
#763 = ORIENTED_EDGE ( 'NONE', *, *, #776, .T. ) ;
#764 = ORIENTED_EDGE ( 'NONE', *, *, #648, .F. ) ;
#765 = CARTESIAN_POINT ( 'NONE',  ( 13.00000000000000000, 2.500000000000005329, 0.000000000000000000 ) ) ;
#766 = ORIENTED_EDGE ( 'NONE', *, *, #378, .F. ) ;
#767 = DIRECTION ( 'NONE',  ( 1.000000000000000000, 0.000000000000000000, 0.000000000000000000 ) ) ;
#768 = DIRECTION ( 'NONE',  ( -1.000000000000000000, 0.000000000000000000, 0.000000000000000000 ) ) ;
#769 = EDGE_LOOP ( 'NONE', ( #518, #650, #472, #717 ) ) ;
#770 = CIRCLE ( 'NONE', #947, 0.5000000000000000000 ) ;
#771 = VERTEX_POINT ( 'NONE', #744 ) ;
#772 = DIRECTION ( 'NONE',  ( 0.000000000000000000, 0.000000000000000000, -1.000000000000000000 ) ) ;
#773 = ADVANCED_BREP_SHAPE_REPRESENTATION ( 'ir sensor clamp final', ( #116, #935 ), #91 ) ;
#774 = VECTOR ( 'NONE', #924, 1000.000000000000000 ) ;
#776 = EDGE_CURVE ( 'NONE', #208, #501, #818, .T. ) ;
#775 = CARTESIAN_POINT ( 'NONE',  ( -4.900729924305655238, 0.000000000000000000, 2.165948666567723890 ) ) ;
#777 = LINE ( 'NONE', #783, #272 ) ;
#778 = AXIS2_PLACEMENT_3D ( 'NONE', #623, #551, #84 ) ;
#779 = ORIENTED_EDGE ( 'NONE', *, *, #433, .T. ) ;
#780 = VERTEX_POINT ( 'NONE', #47 ) ;
#781 = CARTESIAN_POINT ( 'NONE',  ( 11.00000000000000000, 0.5000000000000061062, 4.299999999999999822 ) ) ;
#782 = LINE ( 'NONE', #73, #588 ) ;
#783 = CARTESIAN_POINT ( 'NONE',  ( -0.4999999999999995559, 0.000000000000000000, 4.299999999999999822 ) ) ;
#784 = EDGE_LOOP ( 'NONE', ( #20, #449, #641, #889 ) ) ;
#785 = DIRECTION ( 'NONE',  ( 0.000000000000000000, 0.000000000000000000, -1.000000000000000000 ) ) ;
#786 = DIRECTION ( 'NONE',  ( 0.000000000000000000, 0.000000000000000000, -1.000000000000000000 ) ) ;
#787 = VERTEX_POINT ( 'NONE', #581 ) ;
#788 = PLANE ( 'NONE',  #37 ) ;
#789 = CIRCLE ( 'NONE', #319, 0.4999999999999995559 ) ;
#790 = VECTOR ( 'NONE', #912, 1000.000000000000000 ) ;
#791 = ORIENTED_EDGE ( 'NONE', *, *, #985, .F. ) ;
#792 = ADVANCED_FACE ( 'NONE', ( #570 ), #273, .F. ) ;
#793 = AXIS2_PLACEMENT_3D ( 'NONE', #877, #474, #401 ) ;
#794 = DIRECTION ( 'NONE',  ( 0.000000000000000000, 0.000000000000000000, -1.000000000000000000 ) ) ;
#795 = ORIENTED_EDGE ( 'NONE', *, *, #511, .T. ) ;
#796 = ORIENTED_EDGE ( 'NONE', *, *, #539, .F. ) ;
#797 = EDGE_CURVE ( 'NONE', #854, #922, #725, .T. ) ;
#798 = ORIENTED_EDGE ( 'NONE', *, *, #504, .F. ) ;
#799 = EDGE_LOOP ( 'NONE', ( #634, #96, #723, #13 ) ) ;
#800 = VECTOR ( 'NONE', #151, 1000.000000000000000 ) ;
#801 = EDGE_CURVE ( 'NONE', #963, #501, #207, .T. ) ;
#802 = ADVANCED_FACE ( 'NONE', ( #124 ), #814, .F. ) ;
#803 = VECTOR ( 'NONE', #434, 1000.000000000000000 ) ;
#804 = CARTESIAN_POINT ( 'NONE',  ( 11.00000000000000000, 6.071532165918824830E-15, 4.299999999999999822 ) ) ;
#805 = VERTEX_POINT ( 'NONE', #183 ) ;
#806 = EDGE_LOOP ( 'NONE', ( #356, #562, #327, #334 ) ) ;
#807 = VECTOR ( 'NONE', #598, 1000.000000000000000 ) ;
#808 = VECTOR ( 'NONE', #309, 1000.000000000000000 ) ;
#809 = CARTESIAN_POINT ( 'NONE',  ( -2.000000000000001776, 5.000000000000001776, 4.299999999999999822 ) ) ;
#810 = EDGE_LOOP ( 'NONE', ( #19, #308, #222, #638 ) ) ;
#811 = FILL_AREA_STYLE_COLOUR ( '', #393 ) ;
#812 = DIRECTION ( 'NONE',  ( -1.000000000000000000, 0.000000000000000000, 0.000000000000000000 ) ) ;
#813 = APPLICATION_PROTOCOL_DEFINITION ( 'draft international standard', 'automotive_design', 1998, #493 ) ;
#814 = CYLINDRICAL_SURFACE ( 'NONE', #692, 1.300000000000000044 ) ;
#815 = ORIENTED_EDGE ( 'NONE', *, *, #533, .F. ) ;
#816 = CARTESIAN_POINT ( 'NONE',  ( 19.00000000000000355, 6.071532165918824830E-15, 0.000000000000000000 ) ) ;
#817 = LINE ( 'NONE', #421, #843 ) ;
#818 = LINE ( 'NONE', #199, #74 ) ;
#819 = ORIENTED_EDGE ( 'NONE', *, *, #830, .T. ) ;
#820 = CARTESIAN_POINT ( 'NONE',  ( 19.00000000000000355, 1.500000000000005995, 4.299999999999999822 ) ) ;
#821 = DIRECTION ( 'NONE',  ( 1.000000000000000000, 0.000000000000000000, -0.000000000000000000 ) ) ;
#822 = ADVANCED_FACE ( 'NONE', ( #410, #576 ), #269, .F. ) ;
#823 = AXIS2_PLACEMENT_3D ( 'NONE', #254, #9, #478 ) ;
#824 = PRODUCT_DEFINITION_FORMATION_WITH_SPECIFIED_SOURCE ( 'ANY', '', #136, .NOT_KNOWN. ) ;
#825 = PRODUCT_RELATED_PRODUCT_CATEGORY ( 'part', '', ( #136 ) ) ;
#826 = DIRECTION ( 'NONE',  ( 0.000000000000000000, 0.000000000000000000, -1.000000000000000000 ) ) ;
#827 = DIRECTION ( 'NONE',  ( 0.000000000000000000, 0.000000000000000000, 1.000000000000000000 ) ) ;
#828 = VERTEX_POINT ( 'NONE', #897 ) ;
#829 = CARTESIAN_POINT ( 'NONE',  ( -2.000000000000000000, 2.500000000000000888, 4.299999999999999822 ) ) ;
#830 = EDGE_CURVE ( 'NONE', #156, #854, #866, .T. ) ;
#831 = DIRECTION ( 'NONE',  ( -1.000000000000000000, 0.000000000000000000, 0.000000000000000000 ) ) ;
#832 = DIRECTION ( 'NONE',  ( -1.000000000000000000, 0.000000000000000000, 0.000000000000000000 ) ) ;
#833 = DIRECTION ( 'NONE',  ( 0.000000000000000000, 0.000000000000000000, -1.000000000000000000 ) ) ;
#834 = DIRECTION ( 'NONE',  ( -0.000000000000000000, 1.000000000000000000, -0.000000000000000000 ) ) ;
#835 = EDGE_CURVE ( 'NONE', #616, #184, #607, .T. ) ;
#836 = EDGE_CURVE ( 'NONE', #1016, #16, #733, .T. ) ;
#837 = DIRECTION ( 'NONE',  ( -1.000000000000000000, 0.000000000000000000, 0.000000000000000000 ) ) ;
#838 = DIRECTION ( 'NONE',  ( -0.000000000000000000, 1.000000000000000000, -0.000000000000000000 ) ) ;
#839 = DIRECTION ( 'NONE',  ( 0.000000000000000000, 0.000000000000000000, -1.000000000000000000 ) ) ;
#840 = DIRECTION ( 'NONE',  ( -1.000000000000000000, 0.000000000000000000, 0.000000000000000000 ) ) ;
#841 = VECTOR ( 'NONE', #275, 1000.000000000000000 ) ;
#842 = ADVANCED_FACE ( 'NONE', ( #285 ), #739, .T. ) ;
#843 = VECTOR ( 'NONE', #1002, 1000.000000000000000 ) ;
#844 = AXIS2_PLACEMENT_3D ( 'NONE', #755, #68, #832 ) ;
#845 = LINE ( 'NONE', #998, #205 ) ;
#846 = CARTESIAN_POINT ( 'NONE',  ( 0.000000000000000000, 2.500000000000000000, 4.299999999999999822 ) ) ;
#847 = VERTEX_POINT ( 'NONE', #643 ) ;
#848 = EDGE_LOOP ( 'NONE', ( #27, #235, #936, #583 ) ) ;
#849 = FACE_OUTER_BOUND ( 'NONE', #185, .T. ) ;
#850 = CIRCLE ( 'NONE', #289, 0.5000000000000004441 ) ;
#851 = ORIENTED_EDGE ( 'NONE', *, *, #626, .F. ) ;
#852 = CARTESIAN_POINT ( 'NONE',  ( 13.50000000000000000, 2.000000000000005329, 0.000000000000000000 ) ) ;
#853 = DIRECTION ( 'NONE',  ( -0.000000000000000000, 0.000000000000000000, -1.000000000000000000 ) ) ;
#854 = VERTEX_POINT ( 'NONE', #265 ) ;
#855 = EDGE_LOOP ( 'NONE', ( #451, #94, #312, #97 ) ) ;
#856 = CARTESIAN_POINT ( 'NONE',  ( -7.500000000000001776, 2.000000000000000000, 4.299999999999999822 ) ) ;
#857 = ADVANCED_FACE ( 'NONE', ( #563 ), #891, .F. ) ;
#858 = PLANE ( 'NONE',  #881 ) ;
#859 = DIRECTION ( 'NONE',  ( -1.000000000000000000, 0.000000000000000000, 0.000000000000000000 ) ) ;
#860 = ORIENTED_EDGE ( 'NONE', *, *, #240, .T. ) ;
#861 = ORIENTED_EDGE ( 'NONE', *, *, #494, .T. ) ;
#862 = DIRECTION ( 'NONE',  ( 0.000000000000000000, -0.000000000000000000, -1.000000000000000000 ) ) ;
#863 =( GEOMETRIC_REPRESENTATION_CONTEXT ( 3 ) GLOBAL_UNCERTAINTY_ASSIGNED_CONTEXT ( ( #93 ) ) GLOBAL_UNIT_ASSIGNED_CONTEXT ( ( #652, #994, #49 ) ) REPRESENTATION_CONTEXT ( 'NONE', 'WORKASPACE' ) );
#864 = CARTESIAN_POINT ( 'NONE',  ( -8.000000000000000000, 2.000000000000000000, 0.000000000000000000 ) ) ;
#865 = DIRECTION ( 'NONE',  ( -0.000000000000000000, 0.000000000000000000, 1.000000000000000000 ) ) ;
#866 = CIRCLE ( 'NONE', #738, 1.299999999999999156 ) ;
#867 = ORIENTED_EDGE ( 'NONE', *, *, #801, .T. ) ;
#868 = DIRECTION ( 'NONE',  ( 1.000000000000000000, 0.000000000000000000, 0.000000000000000000 ) ) ;
#869 = DIRECTION ( 'NONE',  ( -1.000000000000000000, 0.000000000000000000, 0.000000000000000000 ) ) ;
#870 = ORIENTED_EDGE ( 'NONE', *, *, #952, .T. ) ;
#871 = CARTESIAN_POINT ( 'NONE',  ( 0.000000000000000000, 0.4999999999999997780, 4.299999999999999822 ) ) ;
#872 = LINE ( 'NONE', #155, #808 ) ;
#873 = EDGE_CURVE ( 'NONE', #560, #571, #339, .T. ) ;
#874 = EDGE_LOOP ( 'NONE', ( #274, #379, #1009, #644 ) ) ;
#875 = APPLICATION_CONTEXT ( 'automotive_design' ) ;
#876 = ADVANCED_FACE ( 'NONE', ( #345, #656 ), #978, .F. ) ;
#877 = CARTESIAN_POINT ( 'NONE',  ( 13.00000000000000000, 5.000000000000002665, 4.299999999999999822 ) ) ;
#878 = VECTOR ( 'NONE', #917, 1000.000000000000000 ) ;
#879 = VERTEX_POINT ( 'NONE', #1018 ) ;
#880 = EDGE_LOOP ( 'NONE', ( #23, #425, #320, #29 ) ) ;
#881 = AXIS2_PLACEMENT_3D ( 'NONE', #954, #251, #92 ) ;
#882 = EDGE_CURVE ( 'NONE', #16, #489, #162, .T. ) ;
#883 = ORIENTED_EDGE ( 'NONE', *, *, #83, .T. ) ;
#884 = ORIENTED_EDGE ( 'NONE', *, *, #349, .F. ) ;
#885 = ADVANCED_FACE ( 'NONE', ( #314 ), #788, .F. ) ;
#886 = EDGE_CURVE ( 'NONE', #462, #963, #655, .T. ) ;
#887 = CARTESIAN_POINT ( 'NONE',  ( -7.500000000000000888, 1.500000000000000000, 4.299999999999999822 ) ) ;
#888 = ORIENTED_EDGE ( 'NONE', *, *, #428, .T. ) ;
#889 = ORIENTED_EDGE ( 'NONE', *, *, #142, .T. ) ;
#890 = AXIS2_PLACEMENT_3D ( 'NONE', #364, #114, #502 ) ;
#891 = PLANE ( 'NONE',  #931 ) ;
#892 = ORIENTED_EDGE ( 'NONE', *, *, #260, .T. ) ;
#893 = AXIS2_PLACEMENT_3D ( 'NONE', #50, #665, #987 ) ;
#894 = FACE_OUTER_BOUND ( 'NONE', #177, .T. ) ;
#895 = CARTESIAN_POINT ( 'NONE',  ( 18.50000000000000355, 0.5000000000000058842, 4.299999999999999822 ) ) ;
#896 = CIRCLE ( 'NONE', #368, 0.5000000000000004441 ) ;
#897 = CARTESIAN_POINT ( 'NONE',  ( -2.000000000000001332, 4.500000000000001776, 0.000000000000000000 ) ) ;
#898 = PRODUCT_DEFINITION_CONTEXT ( 'detailed design', #875, 'design' ) ;
#899 = ORIENTED_EDGE ( 'NONE', *, *, #357, .T. ) ;
#900 = DIRECTION ( 'NONE',  ( -1.000000000000000000, 0.000000000000000000, 0.000000000000000000 ) ) ;
#901 = CARTESIAN_POINT ( 'NONE',  ( -8.000000000000000000, 2.000000000000000000, 4.299999999999999822 ) ) ;
#902 = CARTESIAN_POINT ( 'NONE',  ( 16.07542097657991675, 1.734723475976807094E-15, 2.150000000000000799 ) ) ;
#903 = VERTEX_POINT ( 'NONE', #554 ) ;
#904 = DIRECTION ( 'NONE',  ( -1.000000000000000000, 0.000000000000000000, 0.000000000000000000 ) ) ;
#905 = DIRECTION ( 'NONE',  ( 0.000000000000000000, -1.000000000000000000, 0.000000000000000000 ) ) ;
#906 = CIRCLE ( 'NONE', #622, 0.5000000000000001110 ) ;
#907 = DIRECTION ( 'NONE',  ( 0.000000000000000000, 0.000000000000000000, 1.000000000000000000 ) ) ;
#908 = DIRECTION ( 'NONE',  ( -0.000000000000000000, 1.000000000000000000, -0.000000000000000000 ) ) ;
#909 = ORIENTED_EDGE ( 'NONE', *, *, #433, .F. ) ;
#910 = CIRCLE ( 'NONE', #159, 0.5000000000000004441 ) ;
#911 = PRESENTATION_STYLE_ASSIGNMENT (( #30 ) ) ;
#912 = DIRECTION ( 'NONE',  ( -1.000000000000000000, -7.228014483236695816E-17, 0.000000000000000000 ) ) ;
#913 = ADVANCED_FACE ( 'NONE', ( #705 ), #858, .F. ) ;
#914 = LINE ( 'NONE', #61, #105 ) ;
#915 = CARTESIAN_POINT ( 'NONE',  ( -7.500000000000000888, 0.4999999999999998890, 4.299999999999999822 ) ) ;
#916 = FACE_OUTER_BOUND ( 'NONE', #304, .T. ) ;
#917 = DIRECTION ( 'NONE',  ( -0.000000000000000000, -0.000000000000000000, 1.000000000000000000 ) ) ;
#918 = ADVANCED_FACE ( 'NONE', ( #534 ), #153, .F. ) ;
#919 = DIRECTION ( 'NONE',  ( -0.000000000000000000, 1.000000000000000000, -0.000000000000000000 ) ) ;
#920 = CARTESIAN_POINT ( 'NONE',  ( 10.49999999999999822, 2.500000000000002665, 4.299999999999999822 ) ) ;
#921 = EDGE_CURVE ( 'NONE', #400, #805, #173, .T. ) ;
#922 = VERTEX_POINT ( 'NONE', #715 ) ;
#923 = DIRECTION ( 'NONE',  ( -1.000000000000000000, 0.000000000000000000, 0.000000000000000000 ) ) ;
#924 = DIRECTION ( 'NONE',  ( -0.000000000000000000, 1.000000000000000000, -0.000000000000000000 ) ) ;
#925 = CARTESIAN_POINT ( 'NONE',  ( 0.4999999999999996669, 3.000000000000000000, 0.000000000000000000 ) ) ;
#926 = LINE ( 'NONE', #448, #706 ) ;
#927 = VERTEX_POINT ( 'NONE', #459 ) ;
#928 = DIRECTION ( 'NONE',  ( 7.228014483236693597E-16, -1.000000000000000000, 0.000000000000000000 ) ) ;
#929 = AXIS2_PLACEMENT_3D ( 'NONE', #54, #42, #197 ) ;
#930 = AXIS2_PLACEMENT_3D ( 'NONE', #43, #671, #491 ) ;
#931 = AXIS2_PLACEMENT_3D ( 'NONE', #809, #413, #28 ) ;
#932 = ORIENTED_EDGE ( 'NONE', *, *, #81, .F. ) ;
#933 = CARTESIAN_POINT ( 'NONE',  ( -2.499999999999999556, 2.000000000000000444, 4.299999999999999822 ) ) ;
#934 = DIRECTION ( 'NONE',  ( -0.000000000000000000, -0.000000000000000000, 1.000000000000000000 ) ) ;
#935 = AXIS2_PLACEMENT_3D ( 'NONE', #966, #328, #575 ) ;
#936 = ORIENTED_EDGE ( 'NONE', *, *, #835, .F. ) ;
#937 = ORIENTED_EDGE ( 'NONE', *, *, #466, .T. ) ;
#938 = CYLINDRICAL_SURFACE ( 'NONE', #719, 0.5000000000000000000 ) ;
#939 = DIRECTION ( 'NONE',  ( -1.000000000000000000, -1.445602896647338424E-16, 0.000000000000000000 ) ) ;
#940 = ORIENTED_EDGE ( 'NONE', *, *, #399, .T. ) ;
#941 = DIRECTION ( 'NONE',  ( 0.000000000000000000, 0.000000000000000000, -1.000000000000000000 ) ) ;
#942 = ORIENTED_EDGE ( 'NONE', *, *, #727, .T. ) ;
#943 = EDGE_LOOP ( 'NONE', ( #599, #937, #292, #35 ) ) ;
#944 = CYLINDRICAL_SURFACE ( 'NONE', #204, 0.5000000000000004441 ) ;
#945 = CARTESIAN_POINT ( 'NONE',  ( 0.000000000000000000, 0.000000000000000000, 0.000000000000000000 ) ) ;
#946 = CARTESIAN_POINT ( 'NONE',  ( -0.4999999999999998890, 0.4999999999999997780, 4.299999999999999822 ) ) ;
#947 = AXIS2_PLACEMENT_3D ( 'NONE', #682, #519, #923 ) ;
#948 = ORIENTED_EDGE ( 'NONE', *, *, #699, .F. ) ;
#949 = CARTESIAN_POINT ( 'NONE',  ( 13.50000000000000000, 2.500000000000005329, 4.299999999999999822 ) ) ;
#950 = DIRECTION ( 'NONE',  ( -0.000000000000000000, -0.000000000000000000, 1.000000000000000000 ) ) ;
#951 = VERTEX_POINT ( 'NONE', #618 ) ;
#952 = EDGE_CURVE ( 'NONE', #787, #118, #997, .T. ) ;
#953 = CIRCLE ( 'NONE', #194, 0.5000000000000004441 ) ;
#954 = CARTESIAN_POINT ( 'NONE',  ( 13.00000000000000000, 2.000000000000005329, 4.299999999999999822 ) ) ;
#955 = DIRECTION ( 'NONE',  ( -0.000000000000000000, 0.000000000000000000, -1.000000000000000000 ) ) ;
#956 = ORIENTED_EDGE ( 'NONE', *, *, #44, .T. ) ;
#957 = ADVANCED_FACE ( 'NONE', ( #79 ), #958, .T. ) ;
#958 = PLANE ( 'NONE',  #209 ) ;
#959 = ORIENTED_EDGE ( 'NONE', *, *, #1014, .F. ) ;
#960 = CARTESIAN_POINT ( 'NONE',  ( 11.50000000000000000, 6.071532165918824830E-15, 4.299999999999999822 ) ) ;
#961 = CIRCLE ( 'NONE', #637, 1.300000000000000044 ) ;
#962 = EDGE_CURVE ( 'NONE', #95, #828, #385, .T. ) ;
#963 = VERTEX_POINT ( 'NONE', #15 ) ;
#964 = ORIENTED_EDGE ( 'NONE', *, *, #648, .T. ) ;
#965 = VECTOR ( 'NONE', #545, 1000.000000000000000 ) ;
#966 = CARTESIAN_POINT ( 'NONE',  ( 0.000000000000000000, 0.000000000000000000, 0.000000000000000000 ) ) ;
#967 = EDGE_LOOP ( 'NONE', ( #300, #956, #968, #66 ) ) ;
#968 = ORIENTED_EDGE ( 'NONE', *, *, #511, .F. ) ;
#969 = CARTESIAN_POINT ( 'NONE',  ( -0.4999999999999995559, 0.000000000000000000, 0.000000000000000000 ) ) ;
#970 = VERTEX_POINT ( 'NONE', #321 ) ;
#971 = DIRECTION ( 'NONE',  ( 0.000000000000000000, 1.000000000000000000, 0.000000000000000000 ) ) ;
#972 = ORIENTED_EDGE ( 'NONE', *, *, #546, .F. ) ;
#973 = VECTOR ( 'NONE', #115, 1000.000000000000000 ) ;
#974 = DIRECTION ( 'NONE',  ( 0.000000000000000000, 1.000000000000000000, 0.000000000000000000 ) ) ;
#975 = AXIS2_PLACEMENT_3D ( 'NONE', #949, #246, #868 ) ;
#976 = DIRECTION ( 'NONE',  ( 0.000000000000000000, 0.000000000000000000, 1.000000000000000000 ) ) ;
#977 = EDGE_CURVE ( 'NONE', #63, #184, #782, .T. ) ;
#978 = PLANE ( 'NONE',  #247 ) ;
#979 = VERTEX_POINT ( 'NONE', #696 ) ;
#980 = CARTESIAN_POINT ( 'NONE',  ( 10.49999999999999822, 2.500000000000002665, 4.299999999999999822 ) ) ;
#981 = CARTESIAN_POINT ( 'NONE',  ( 10.49999999999999822, 3.000000000000002665, 4.299999999999999822 ) ) ;
#982 = FACE_OUTER_BOUND ( 'NONE', #874, .T. ) ;
#983 = DIRECTION ( 'NONE',  ( -0.000000000000000000, 0.000000000000000000, 1.000000000000000000 ) ) ;
#984 = ORIENTED_EDGE ( 'NONE', *, *, #539, .T. ) ;
#985 = EDGE_CURVE ( 'NONE', #176, #223, #540, .T. ) ;
#986 = DIRECTION ( 'NONE',  ( -0.000000000000000000, -0.000000000000000000, 1.000000000000000000 ) ) ;
#987 = DIRECTION ( 'NONE',  ( 0.000000000000000000, 0.000000000000000000, 1.000000000000000000 ) ) ;
#988 = VECTOR ( 'NONE', #224, 1000.000000000000000 ) ;
#989 = DIRECTION ( 'NONE',  ( 0.000000000000000000, -0.000000000000000000, -1.000000000000000000 ) ) ;
#990 = DIRECTION ( 'NONE',  ( -1.000000000000000000, 0.000000000000000000, 0.000000000000000000 ) ) ;
#991 = ORIENTED_EDGE ( 'NONE', *, *, #533, .T. ) ;
#992 = AXIS2_PLACEMENT_3D ( 'NONE', #666, #128, #301 ) ;
#993 = ADVANCED_FACE ( 'NONE', ( #702 ), #628, .F. ) ;
#994 =( NAMED_UNIT ( * ) PLANE_ANGLE_UNIT ( ) SI_UNIT ( $, .RADIAN. ) );
#995 = ADVANCED_FACE ( 'NONE', ( #3 ), #317, .F. ) ;
#996 = CARTESIAN_POINT ( 'NONE',  ( -1.999999999999999556, 2.000000000000000444, 4.299999999999999822 ) ) ;
#997 = CIRCLE ( 'NONE', #639, 1.299999999999999600 ) ;
#998 = CARTESIAN_POINT ( 'NONE',  ( -1.500000000000001332, 5.000000000000001776, 4.299999999999999822 ) ) ;
#999 = DIRECTION ( 'NONE',  ( -0.000000000000000000, -0.000000000000000000, 1.000000000000000000 ) ) ;
#1000 = AXIS2_PLACEMENT_3D ( 'NONE', #315, #164, #380 ) ;
#1001 = ORIENTED_EDGE ( 'NONE', *, *, #504, .T. ) ;
#1002 = DIRECTION ( 'NONE',  ( 0.000000000000000000, 0.000000000000000000, -1.000000000000000000 ) ) ;
#1003 = DIRECTION ( 'NONE',  ( 0.000000000000000000, -0.000000000000000000, -1.000000000000000000 ) ) ;
#1004 = CARTESIAN_POINT ( 'NONE',  ( 11.00000000000000000, 2.500000000000002665, 4.299999999999999822 ) ) ;
#1005 = ORIENTED_EDGE ( 'NONE', *, *, #728, .T. ) ;
#1006 = DIRECTION ( 'NONE',  ( 0.000000000000000000, 0.000000000000000000, -1.000000000000000000 ) ) ;
#1007 = DIRECTION ( 'NONE',  ( 0.000000000000000000, 0.000000000000000000, 1.000000000000000000 ) ) ;
#1008 = ORIENTED_EDGE ( 'NONE', *, *, #699, .T. ) ;
#1009 = ORIENTED_EDGE ( 'NONE', *, *, #797, .T. ) ;
#1010 = CARTESIAN_POINT ( 'NONE',  ( 13.00000000000000000, 2.000000000000005329, 4.299999999999999822 ) ) ;
#1011 = VECTOR ( 'NONE', #594, 1000.000000000000000 ) ;
#1012 = ORIENTED_EDGE ( 'NONE', *, *, #81, .T. ) ;
#1013 = CARTESIAN_POINT ( 'NONE',  ( 12.49999999999999822, 5.000000000000002665, 4.299999999999999822 ) ) ;
#1014 = EDGE_CURVE ( 'NONE', #951, #394, #166, .T. ) ;
#1015 = LINE ( 'NONE', #217, #186 ) ;
#1016 = VERTEX_POINT ( 'NONE', #960 ) ;
#1017 = CARTESIAN_POINT ( 'NONE',  ( 13.00000000000000000, 4.500000000000002665, 4.299999999999999822 ) ) ;
#1018 = CARTESIAN_POINT ( 'NONE',  ( 19.00000000000000355, 1.500000000000005995, 0.000000000000000000 ) ) ;
#1019 = FACE_OUTER_BOUND ( 'NONE', #718, .T. ) ;
ENDSEC;
END-ISO-10303-21;
