ISO-10303-21;
HEADER;
FILE_DESCRIPTION (( 'STEP AP214' ),
    '1' );
FILE_NAME ('ultrasonic sensor cap.STEP',
    '2026-05-05T20:59:08',
    ( '' ),
    ( '' ),
    'SwSTEP 2.0',
    'SolidWorks 2025',
    '' );
FILE_SCHEMA (( 'AUTOMOTIVE_DESIGN' ));
ENDSEC;

DATA;
#1 = CIRCLE ( 'NONE', #923, 0.7366000000000000325 ) ;
#2 = ADVANCED_FACE ( 'NONE', ( #1237 ), #1315, .F. ) ;
#3 = DIRECTION ( 'NONE',  ( -1.000000000000000000, 0.000000000000000000, 0.000000000000000000 ) ) ;
#4 = CIRCLE ( 'NONE', #552, 2.200000000000000622 ) ;
#5 = DIRECTION ( 'NONE',  ( 0.000000000000000000, 3.548298019043467945E-15, 1.000000000000000000 ) ) ;
#6 = ORIENTED_EDGE ( 'NONE', *, *, #561, .T. ) ;
#7 = EDGE_CURVE ( 'NONE', #551, #652, #657, .T. ) ;
#8 = LINE ( 'NONE', #210, #837 ) ;
#9 = LINE ( 'NONE', #1064, #1160 ) ;
#10 =( NAMED_UNIT ( * ) SI_UNIT ( $, .STERADIAN. ) SOLID_ANGLE_UNIT ( ) );
#11 = FACE_OUTER_BOUND ( 'NONE', #51, .T. ) ;
#12 = VERTEX_POINT ( 'NONE', #611 ) ;
#13 = CARTESIAN_POINT ( 'NONE',  ( 22.99999999999989697, -9.035206014881090653, -22.28985091599319190 ) ) ;
#14 = DIRECTION ( 'NONE',  ( 0.000000000000000000, 3.548298019043467945E-15, 1.000000000000000000 ) ) ;
#15 = FACE_OUTER_BOUND ( 'NONE', #1211, .T. ) ;
#16 = EDGE_CURVE ( 'NONE', #1241, #165, #414, .T. ) ;
#17 = DIRECTION ( 'NONE',  ( -0.000000000000000000, 1.000000000000000000, -3.491481338843133355E-15 ) ) ;
#18 = ADVANCED_FACE ( 'NONE', ( #172 ), #298, .F. ) ;
#19 = ORIENTED_EDGE ( 'NONE', *, *, #16, .T. ) ;
#20 = CARTESIAN_POINT ( 'NONE',  ( 23.00000000000009237, -7.035206014880992953, 5.710149084006800990 ) ) ;
#21 = DIRECTION ( 'NONE',  ( 0.000000000000000000, 3.491481338843133355E-15, 1.000000000000000000 ) ) ;
#22 = CONICAL_SURFACE ( 'NONE', #328, 2.200000000000000622, 0.7853981633974479459 ) ;
#23 = DIRECTION ( 'NONE',  ( -1.000000000000000000, 0.000000000000000000, 0.000000000000000000 ) ) ;
#24 = VECTOR ( 'NONE', #845, 1000.000000000000000 ) ;
#25 = CARTESIAN_POINT ( 'NONE',  ( -17.80495558745176510, -7.035206014881009828, 0.7366000000000073600 ) ) ;
#26 = AXIS2_PLACEMENT_3D ( 'NONE', #757, #649, #1065 ) ;
#27 = ORIENTED_EDGE ( 'NONE', *, *, #1132, .T. ) ;
#28 = CARTESIAN_POINT ( 'NONE',  ( 0.4577717036866602029, -7.035206014881001835, 2.480825453516233292 ) ) ;
#29 = DIRECTION ( 'NONE',  ( 0.000000000000000000, 2.891205793294679017E-15, 1.000000000000000000 ) ) ;
#30 = CARTESIAN_POINT ( 'NONE',  ( -22.99999999999993250, -9.035206014881168812, 0.7366000000000021419 ) ) ;
#31 = EDGE_LOOP ( 'NONE', ( #1144, #181, #690, #987, #229 ) ) ;
#32 = DIRECTION ( 'NONE',  ( -7.062802723619858470E-15, 1.000000000000000000, 0.000000000000000000 ) ) ;
#33 = CARTESIAN_POINT ( 'NONE',  ( -22.99999999999990052, -7.035206014880992953, 5.710149084007134057 ) ) ;
#34 = ORIENTED_EDGE ( 'NONE', *, *, #85, .F. ) ;
#35 = PLANE ( 'NONE',  #306 ) ;
#36 = EDGE_LOOP ( 'NONE', ( #75, #34, #303, #1203 ) ) ;
#37 = CARTESIAN_POINT ( 'NONE',  ( 20.79276119645001586, -8.035206014881003611, 2.480825453516236401 ) ) ;
#38 = EDGE_CURVE ( 'NONE', #296, #1121, #1265, .T. ) ;
#39 = ORIENTED_EDGE ( 'NONE', *, *, #196, .F. ) ;
#40 = DIRECTION ( 'NONE',  ( -1.000000000000000000, 0.000000000000000000, 0.000000000000000000 ) ) ;
#41 = VECTOR ( 'NONE', #335, 1000.000000000000000 ) ;
#42 = CIRCLE ( 'NONE', #1289, 0.7750000000000013545 ) ;
#43 = ORIENTED_EDGE ( 'NONE', *, *, #1090, .F. ) ;
#44 = AXIS2_PLACEMENT_3D ( 'NONE', #867, #228, #555 ) ;
#45 = ORIENTED_EDGE ( 'NONE', *, *, #664, .T. ) ;
#46 = CARTESIAN_POINT ( 'NONE',  ( 0.000000000000000000, -7.035206014881009828, 0.7366000000000073600 ) ) ;
#47 = ORIENTED_EDGE ( 'NONE', *, *, #786, .T. ) ;
#48 = DIRECTION ( 'NONE',  ( -7.062802723619857681E-15, 1.000000000000000000, -0.000000000000000000 ) ) ;
#49 = ORIENTED_EDGE ( 'NONE', *, *, #16, .F. ) ;
#50 = CARTESIAN_POINT ( 'NONE',  ( -22.10000000000010090, -5.398606014881004889, 0.000000000000000000 ) ) ;
#51 = EDGE_LOOP ( 'NONE', ( #359, #141, #27, #404 ) ) ;
#52 = CARTESIAN_POINT ( 'NONE',  ( 3.550000000000047784, -5.298606014881002579, 0.000000000000000000 ) ) ;
#53 = DIRECTION ( 'NONE',  ( 0.000000000000000000, 3.548298019043467945E-15, 1.000000000000000000 ) ) ;
#54 = EDGE_CURVE ( 'NONE', #189, #697, #1273, .T. ) ;
#55 = ORIENTED_EDGE ( 'NONE', *, *, #1282, .T. ) ;
#56 = FACE_OUTER_BOUND ( 'NONE', #82, .T. ) ;
#57 = ORIENTED_EDGE ( 'NONE', *, *, #419, .T. ) ;
#58 = FACE_BOUND ( 'NONE', #397, .T. ) ;
#59 = CIRCLE ( 'NONE', #232, 0.7750000000000013545 ) ;
#60 = CARTESIAN_POINT ( 'NONE',  ( -22.99999999999990052, -9.035206014880992953, 5.710149084007141163 ) ) ;
#61 = CIRCLE ( 'NONE', #1287, 0.7366000000000000325 ) ;
#62 = AXIS2_PLACEMENT_3D ( 'NONE', #1268, #938, #945 ) ;
#63 = VERTEX_POINT ( 'NONE', #955 ) ;
#64 = AXIS2_PLACEMENT_3D ( 'NONE', #320, #836, #937 ) ;
#65 = PRODUCT_DEFINITION ( 'UNKNOWN', '', #991, #247 ) ;
#66 = CIRCLE ( 'NONE', #26, 2.736600000000000588 ) ;
#67 = LINE ( 'NONE', #164, #865 ) ;
#68 = ORIENTED_EDGE ( 'NONE', *, *, #1242, .F. ) ;
#69 = DIRECTION ( 'NONE',  ( 0.000000000000000000, 3.548298019043467945E-15, 1.000000000000000000 ) ) ;
#70 = DIRECTION ( 'NONE',  ( 1.000000000000000000, -2.528036721151771249E-29, -7.240584943207544438E-15 ) ) ;
#71 = EDGE_LOOP ( 'NONE', ( #342, #896, #456, #1295 ) ) ;
#72 = ORIENTED_EDGE ( 'NONE', *, *, #835, .T. ) ;
#73 = LINE ( 'NONE', #160, #617 ) ;
#74 = CARTESIAN_POINT ( 'NONE',  ( 23.00000000000004263, -6.298606014881002579, 0.7366000000000000325 ) ) ;
#75 = ORIENTED_EDGE ( 'NONE', *, *, #322, .F. ) ;
#76 = CARTESIAN_POINT ( 'NONE',  ( -12.89999999999995062, 2.955656850763491938, -2.000000000000000000 ) ) ;
#77 = ORIENTED_EDGE ( 'NONE', *, *, #385, .F. ) ;
#78 = EDGE_CURVE ( 'NONE', #193, #832, #9, .T. ) ;
#79 = DIRECTION ( 'NONE',  ( 0.000000000000000000, 3.548298019043467945E-15, 1.000000000000000000 ) ) ;
#80 = DIRECTION ( 'NONE',  ( -0.000000000000000000, 1.000000000000000000, -3.491481338843133355E-15 ) ) ;
#81 = AXIS2_PLACEMENT_3D ( 'NONE', #1333, #811, #1219 ) ;
#82 = EDGE_LOOP ( 'NONE', ( #673, #291, #136, #132 ) ) ;
#83 = DIRECTION ( 'NONE',  ( 7.310620363045116288E-15, 3.491481338843133355E-15, 1.000000000000000000 ) ) ;
#84 = VERTEX_POINT ( 'NONE', #319 ) ;
#85 = EDGE_CURVE ( 'NONE', #1325, #796, #941, .T. ) ;
#86 = AXIS2_PLACEMENT_3D ( 'NONE', #825, #201, #525 ) ;
#87 = DIRECTION ( 'NONE',  ( -0.000000000000000000, 1.000000000000000000, -3.491481338843133355E-15 ) ) ;
#88 = VERTEX_POINT ( 'NONE', #1258 ) ;
#89 = CARTESIAN_POINT ( 'NONE',  ( 46.12419254365899235, -6.298606014881002579, 0.7366000000000000325 ) ) ;
#90 = ORIENTED_EDGE ( 'NONE', *, *, #54, .F. ) ;
#91 = SURFACE_SIDE_STYLE ('',( #1253 ) ) ;
#92 = ADVANCED_FACE ( 'NONE', ( #327 ), #1159, .F. ) ;
#93 = CARTESIAN_POINT ( 'NONE',  ( 23.00000000000005684, -9.035206014881168812, 0.7366000000000021419 ) ) ;
#94 = ADVANCED_FACE ( 'NONE', ( #312, #1341, #1048, #1043, #756, #643 ), #746, .T. ) ;
#95 = VERTEX_POINT ( 'NONE', #539 ) ;
#96 = LINE ( 'NONE', #523, #1162 ) ;
#97 = DIRECTION ( 'NONE',  ( 0.000000000000000000, 0.000000000000000000, -1.000000000000000000 ) ) ;
#98 = DIRECTION ( 'NONE',  ( -0.000000000000000000, 1.000000000000000000, -3.491481338843133355E-15 ) ) ;
#99 = DIRECTION ( 'NONE',  ( 4.931928781889839023E-29, 1.000000000000000000, 3.491481338843134144E-15 ) ) ;
#100 = ORIENTED_EDGE ( 'NONE', *, *, #849, .T. ) ;
#101 = EDGE_CURVE ( 'NONE', #146, #832, #461, .T. ) ;
#102 = AXIS2_PLACEMENT_3D ( 'NONE', #1327, #1028, #919 ) ;
#103 = LINE ( 'NONE', #870, #302 ) ;
#104 = CARTESIAN_POINT ( 'NONE',  ( 20.79276119645001586, -7.035206014881009828, 0.2808254535162325594 ) ) ;
#105 = AXIS2_PLACEMENT_3D ( 'NONE', #481, #80, #693 ) ;
#106 = CIRCLE ( 'NONE', #1328, 2.200000000000000622 ) ;
#107 = CARTESIAN_POINT ( 'NONE',  ( 0.4577717036866602029, -7.035206014881001835, 2.480825453516233292 ) ) ;
#108 = CIRCLE ( 'NONE', #755, 2.736600000000000588 ) ;
#109 = FACE_OUTER_BOUND ( 'NONE', #1292, .T. ) ;
#110 = EDGE_LOOP ( 'NONE', ( #1301, #254 ) ) ;
#111 = EDGE_CURVE ( 'NONE', #1035, #1137, #147, .T. ) ;
#112 = DIRECTION ( 'NONE',  ( 0.000000000000000000, 0.000000000000000000, -1.000000000000000000 ) ) ;
#113 = DIRECTION ( 'NONE',  ( 0.000000000000000000, 0.000000000000000000, 1.000000000000000000 ) ) ;
#114 = DIRECTION ( 'NONE',  ( 0.000000000000000000, 2.891205793294712938E-15, 1.000000000000000000 ) ) ;
#115 = ADVANCED_FACE ( 'NONE', ( #1153 ), #761, .F. ) ;
#116 = LINE ( 'NONE', #93, #925 ) ;
#117 = VERTEX_POINT ( 'NONE', #205 ) ;
#118 = CARTESIAN_POINT ( 'NONE',  ( 13.60000000000004761, 3.535456167226438851, -2.000000000000000000 ) ) ;
#119 = CARTESIAN_POINT ( 'NONE',  ( 13.60000000000004761, 3.535456167226438851, -2.000000000000000000 ) ) ;
#120 = CARTESIAN_POINT ( 'NONE',  ( 22.87499999999989697, -5.398606014881004889, -2.000000000000000000 ) ) ;
#121 = DIRECTION ( 'NONE',  ( -1.000000000000000000, 0.000000000000000000, 0.000000000000000000 ) ) ;
#122 = ORIENTED_EDGE ( 'NONE', *, *, #622, .F. ) ;
#123 = DIRECTION ( 'NONE',  ( 1.000000000000000000, 7.062802723619858470E-15, -0.000000000000000000 ) ) ;
#124 = DIRECTION ( 'NONE',  ( 0.000000000000000000, -1.000000000000000000, 3.491481338843133355E-15 ) ) ;
#125 = AXIS2_PLACEMENT_3D ( 'NONE', #863, #1168, #962 ) ;
#126 = CARTESIAN_POINT ( 'NONE',  ( 19.45198620887525109, -7.035206014881009828, 0.7366000000000073600 ) ) ;
#127 = ADVANCED_FACE ( 'NONE', ( #423 ), #1245, .T. ) ;
#128 = VECTOR ( 'NONE', #783, 1000.000000000000000 ) ;
#129 = CARTESIAN_POINT ( 'NONE',  ( 22.09999999999989484, -5.398606014881004889, 0.000000000000000000 ) ) ;
#130 = MECHANICAL_DESIGN_GEOMETRIC_PRESENTATION_REPRESENTATION (  '', ( #215 ), #573 ) ;
#131 = VECTOR ( 'NONE', #248, 1000.000000000000000 ) ;
#132 = ORIENTED_EDGE ( 'NONE', *, *, #650, .F. ) ;
#133 = LINE ( 'NONE', #975, #438 ) ;
#134 = ORIENTED_EDGE ( 'NONE', *, *, #1242, .T. ) ;
#135 = CARTESIAN_POINT ( 'NONE',  ( 20.79276119645001586, -7.035206014881008052, 1.280825453516240442 ) ) ;
#136 = ORIENTED_EDGE ( 'NONE', *, *, #385, .T. ) ;
#137 = DIRECTION ( 'NONE',  ( -0.000000000000000000, 1.000000000000000000, -3.491481338843133355E-15 ) ) ;
#138 = ORIENTED_EDGE ( 'NONE', *, *, #958, .F. ) ;
#139 = EDGE_CURVE ( 'NONE', #1165, #1318, #1070, .T. ) ;
#140 = DIRECTION ( 'NONE',  ( -1.000000000000000000, 0.000000000000000000, 0.000000000000000000 ) ) ;
#141 = ORIENTED_EDGE ( 'NONE', *, *, #269, .F. ) ;
#142 = CARTESIAN_POINT ( 'NONE',  ( -2.918521562633490607, -1.367127577514541503, -2.000000000000000000 ) ) ;
#143 = ORIENTED_EDGE ( 'NONE', *, *, #664, .F. ) ;
#144 = ADVANCED_FACE ( 'NONE', ( #307 ), #1346, .F. ) ;
#145 = LINE ( 'NONE', #795, #1102 ) ;
#146 = VERTEX_POINT ( 'NONE', #1147 ) ;
#147 = CIRCLE ( 'NONE', #125, 0.7750000000000013545 ) ;
#148 = CARTESIAN_POINT ( 'NONE',  ( 20.79276119645001586, -7.035206014881001835, 2.480825453516233292 ) ) ;
#149 = ORIENTED_EDGE ( 'NONE', *, *, #344, .T. ) ;
#150 = CIRCLE ( 'NONE', #1080, 8.050000000000002487 ) ;
#151 = CIRCLE ( 'NONE', #284, 1.965739218683230538 ) ;
#152 = DIRECTION ( 'NONE',  ( 1.000000000000000000, 0.000000000000000000, 0.000000000000000000 ) ) ;
#153 = VERTEX_POINT ( 'NONE', #200 ) ;
#154 = EDGE_CURVE ( 'NONE', #198, #1105, #527, .T. ) ;
#155 = DIRECTION ( 'NONE',  ( 0.000000000000000000, 3.614007241618367309E-15, 1.000000000000000000 ) ) ;
#156 = LINE ( 'NONE', #581, #616 ) ;
#157 = EDGE_LOOP ( 'NONE', ( #224, #1303, #1127, #497, #788 ) ) ;
#158 = LINE ( 'NONE', #271, #1166 ) ;
#159 = ORIENTED_EDGE ( 'NONE', *, *, #1014, .T. ) ;
#160 = CARTESIAN_POINT ( 'NONE',  ( 3.550000000000047784, -1.367127577514541503, 0.000000000000000000 ) ) ;
#161 = ADVANCED_FACE ( 'NONE', ( #843 ), #1252, .T. ) ;
#162 = DIRECTION ( 'NONE',  ( -7.062802723619857681E-15, 1.000000000000000000, -0.000000000000000000 ) ) ;
#163 = VERTEX_POINT ( 'NONE', #405 ) ;
#164 = CARTESIAN_POINT ( 'NONE',  ( 22.87499999999989697, -5.398606014881004889, 0.000000000000000000 ) ) ;
#165 = VERTEX_POINT ( 'NONE', #311 ) ;
#166 = CYLINDRICAL_SURFACE ( 'NONE', #1122, 1.965739218683230538 ) ;
#167 = EDGE_CURVE ( 'NONE', #453, #1046, #680, .T. ) ;
#168 = PLANE ( 'NONE',  #681 ) ;
#169 = ORIENTED_EDGE ( 'NONE', *, *, #195, .F. ) ;
#170 = CIRCLE ( 'NONE', #946, 1.965739218683230538 ) ;
#171 = CARTESIAN_POINT ( 'NONE',  ( 0.000000000000000000, 0.000000000000000000, 0.000000000000000000 ) ) ;
#172 = FACE_OUTER_BOUND ( 'NONE', #324, .T. ) ;
#173 = FACE_BOUND ( 'NONE', #587, .T. ) ;
#174 = CARTESIAN_POINT ( 'NONE',  ( -23.00000000000010303, 13.99999999999983302, -2.000000000000000000 ) ) ;
#175 = ORIENTED_EDGE ( 'NONE', *, *, #1040, .F. ) ;
#176 = EDGE_CURVE ( 'NONE', #363, #84, #610, .T. ) ;
#177 = DIRECTION ( 'NONE',  ( -0.000000000000000000, 1.000000000000000000, -3.491481338843133355E-15 ) ) ;
#178 = ORIENTED_EDGE ( 'NONE', *, *, #167, .T. ) ;
#179 = DIRECTION ( 'NONE',  ( 1.000000000000000000, 0.000000000000000000, 0.000000000000000000 ) ) ;
#180 = CARTESIAN_POINT ( 'NONE',  ( 23.00000000000005684, -6.298606014881002579, 0.7366000000000000325 ) ) ;
#181 = ORIENTED_EDGE ( 'NONE', *, *, #569, .F. ) ;
#182 = ADVANCED_FACE ( 'NONE', ( #504 ), #1131, .T. ) ;
#183 = DIRECTION ( 'NONE',  ( 0.000000000000000000, 0.000000000000000000, 1.000000000000000000 ) ) ;
#184 = VERTEX_POINT ( 'NONE', #725 ) ;
#185 = SURFACE_STYLE_USAGE ( .BOTH. , #91 ) ;
#186 = LINE ( 'NONE', #748, #730 ) ;
#187 = CIRCLE ( 'NONE', #255, 0.7750000000000013545 ) ;
#188 = CIRCLE ( 'NONE', #371, 0.7750000000000013545 ) ;
#189 = VERTEX_POINT ( 'NONE', #399 ) ;
#190 = AXIS2_PLACEMENT_3D ( 'NONE', #729, #202, #932 ) ;
#191 = DIRECTION ( 'NONE',  ( -7.240584943207542861E-15, 1.000000000000000000, 0.000000000000000000 ) ) ;
#192 = VECTOR ( 'NONE', #931, 1000.000000000000000 ) ;
#193 = VERTEX_POINT ( 'NONE', #1152 ) ;
#194 = DIRECTION ( 'NONE',  ( -1.000000000000000000, 2.552489457293863500E-29, 7.310620363045116288E-15 ) ) ;
#195 = EDGE_CURVE ( 'NONE', #570, #790, #1340, .T. ) ;
#196 = EDGE_CURVE ( 'NONE', #678, #559, #59, .T. ) ;
#197 = CARTESIAN_POINT ( 'NONE',  ( -23.00000000000010303, 13.99999999999983302, 0.000000000000000000 ) ) ;
#198 = VERTEX_POINT ( 'NONE', #1036 ) ;
#199 = DIRECTION ( 'NONE',  ( 0.000000000000000000, 0.000000000000000000, 1.000000000000000000 ) ) ;
#200 = CARTESIAN_POINT ( 'NONE',  ( -19.14573057502622078, -7.035206014881009828, 0.2808254535162325594 ) ) ;
#201 = DIRECTION ( 'NONE',  ( -0.000000000000000000, 1.000000000000000000, -3.491481338843133355E-15 ) ) ;
#202 = DIRECTION ( 'NONE',  ( 7.240584943207544438E-15, 3.491481338843133355E-15, 1.000000000000000000 ) ) ;
#203 = ORIENTED_EDGE ( 'NONE', *, *, #586, .F. ) ;
#204 = DIRECTION ( 'NONE',  ( -0.000000000000000000, -0.000000000000000000, -1.000000000000000000 ) ) ;
#205 = CARTESIAN_POINT ( 'NONE',  ( 23.00000000000009237, -9.035206014880992953, 5.710149084006808096 ) ) ;
#206 = DIRECTION ( 'NONE',  ( -0.000000000000000000, 1.000000000000000000, -3.491481338843133355E-15 ) ) ;
#207 = ADVANCED_FACE ( 'NONE', ( #1136 ), #929, .F. ) ;
#208 = DIRECTION ( 'NONE',  ( -0.000000000000000000, -0.000000000000000000, -1.000000000000000000 ) ) ;
#209 = ORIENTED_EDGE ( 'NONE', *, *, #718, .F. ) ;
#210 = CARTESIAN_POINT ( 'NONE',  ( 22.99999999999989697, -7.035206014881089764, -22.28985091599319901 ) ) ;
#211 = DIRECTION ( 'NONE',  ( 1.000000000000000000, 0.000000000000000000, 0.000000000000000000 ) ) ;
#212 = VECTOR ( 'NONE', #70, 1000.000000000000000 ) ;
#213 = AXIS2_PLACEMENT_3D ( 'NONE', #722, #1342, #738 ) ;
#214 = CARTESIAN_POINT ( 'NONE',  ( -19.14573057502622078, -9.035206014881010717, 1.280825453516254209 ) ) ;
#215 = STYLED_ITEM ( 'NONE', ( #314 ), #1075 ) ;
#216 = CIRCLE ( 'NONE', #554, 8.050000000000002487 ) ;
#217 = FACE_OUTER_BOUND ( 'NONE', #631, .T. ) ;
#218 = ORIENTED_EDGE ( 'NONE', *, *, #1021, .F. ) ;
#219 = LINE ( 'NONE', #543, #1030 ) ;
#220 = DIRECTION ( 'NONE',  ( -0.000000000000000000, -0.000000000000000000, 1.000000000000000000 ) ) ;
#221 = EDGE_CURVE ( 'NONE', #1105, #505, #1236, .T. ) ;
#222 = CARTESIAN_POINT ( 'NONE',  ( -22.87500000000010303, -5.398606014881004889, -2.000000000000000000 ) ) ;
#223 = DIRECTION ( 'NONE',  ( 0.000000000000000000, 0.000000000000000000, -1.000000000000000000 ) ) ;
#224 = ORIENTED_EDGE ( 'NONE', *, *, #765, .F. ) ;
#225 = DIRECTION ( 'NONE',  ( 0.000000000000000000, 3.548298019043467945E-15, 1.000000000000000000 ) ) ;
#226 = CARTESIAN_POINT ( 'NONE',  ( -22.99999999999995737, -6.298606014881002579, 0.7366000000000000325 ) ) ;
#227 = LINE ( 'NONE', #781, #374 ) ;
#228 = DIRECTION ( 'NONE',  ( -0.000000000000000000, 1.000000000000000000, -3.491481338843133355E-15 ) ) ;
#229 = ORIENTED_EDGE ( 'NONE', *, *, #672, .T. ) ;
#230 = AXIS2_PLACEMENT_3D ( 'NONE', #1024, #400, #597 ) ;
#231 = LINE ( 'NONE', #854, #1007 ) ;
#232 = AXIS2_PLACEMENT_3D ( 'NONE', #513, #740, #1221 ) ;
#233 = LINE ( 'NONE', #1087, #490 ) ;
#234 = ORIENTED_EDGE ( 'NONE', *, *, #195, .T. ) ;
#235 = VECTOR ( 'NONE', #208, 1000.000000000000000 ) ;
#236 = CARTESIAN_POINT ( 'NONE',  ( -22.10000000000010090, -5.398606014881004889, 0.000000000000000000 ) ) ;
#237 = AXIS2_PLACEMENT_3D ( 'NONE', #501, #273, #179 ) ;
#238 = EDGE_CURVE ( 'NONE', #1339, #189, #278, .T. ) ;
#239 = AXIS2_PLACEMENT_3D ( 'NONE', #171, #1015, #152 ) ;
#240 = ORIENTED_EDGE ( 'NONE', *, *, #992, .T. ) ;
#241 = DIRECTION ( 'NONE',  ( -0.000000000000000000, 1.000000000000000000, -3.491481338843133355E-15 ) ) ;
#242 = ORIENTED_EDGE ( 'NONE', *, *, #1004, .T. ) ;
#243 = DIRECTION ( 'NONE',  ( 1.000000000000000000, 0.000000000000000000, 0.000000000000000000 ) ) ;
#244 = ADVANCED_FACE ( 'NONE', ( #1251 ), #823, .T. ) ;
#245 = EDGE_CURVE ( 'NONE', #95, #1296, #833, .T. ) ;
#246 = ORIENTED_EDGE ( 'NONE', *, *, #167, .F. ) ;
#247 = PRODUCT_DEFINITION_CONTEXT ( 'detailed design', #1146, 'design' ) ;
#248 = DIRECTION ( 'NONE',  ( -0.000000000000000000, 1.000000000000000000, -3.491481338843133355E-15 ) ) ;
#249 = ORIENTED_EDGE ( 'NONE', *, *, #737, .T. ) ;
#250 = DIRECTION ( 'NONE',  ( 0.000000000000000000, 3.548298019043467945E-15, 1.000000000000000000 ) ) ;
#251 = EDGE_LOOP ( 'NONE', ( #1206, #388 ) ) ;
#252 = ORIENTED_EDGE ( 'NONE', *, *, #533, .F. ) ;
#253 = EDGE_CURVE ( 'NONE', #484, #475, #187, .T. ) ;
#254 = ORIENTED_EDGE ( 'NONE', *, *, #253, .T. ) ;
#255 = AXIS2_PLACEMENT_3D ( 'NONE', #421, #1047, #305 ) ;
#256 = VECTOR ( 'NONE', #402, 1000.000000000000000 ) ;
#257 = DIRECTION ( 'NONE',  ( 1.000000000000000000, -0.000000000000000000, 0.000000000000000000 ) ) ;
#258 = AXIS2_PLACEMENT_3D ( 'NONE', #624, #1039, #321 ) ;
#259 = VECTOR ( 'NONE', #372, 1000.000000000000000 ) ;
#260 = CARTESIAN_POINT ( 'NONE',  ( -22.99999999999992895, -9.035206014881003611, 0.7366000000000230141 ) ) ;
#261 = ORIENTED_EDGE ( 'NONE', *, *, #376, .T. ) ;
#262 = AXIS2_PLACEMENT_3D ( 'NONE', #768, #1179, #351 ) ;
#263 = ORIENTED_EDGE ( 'NONE', *, *, #710, .F. ) ;
#264 = CARTESIAN_POINT ( 'NONE',  ( 20.79276119645001586, -9.035206014881003611, 3.680825453516225920 ) ) ;
#265 = ORIENTED_EDGE ( 'NONE', *, *, #101, .F. ) ;
#266 = FACE_OUTER_BOUND ( 'NONE', #967, .T. ) ;
#267 = CYLINDRICAL_SURFACE ( 'NONE', #350, 0.7366000000000000325 ) ;
#268 = EDGE_LOOP ( 'NONE', ( #1276, #47, #806, #529 ) ) ;
#269 = EDGE_CURVE ( 'NONE', #589, #1020, #1095, .T. ) ;
#270 = EDGE_CURVE ( 'NONE', #163, #1016, #568, .T. ) ;
#271 = CARTESIAN_POINT ( 'NONE',  ( -23.00000000000010303, 13.99999999999983302, -2.000000000000000000 ) ) ;
#272 = ORIENTED_EDGE ( 'NONE', *, *, #474, .T. ) ;
#273 = DIRECTION ( 'NONE',  ( 0.000000000000000000, 0.000000000000000000, 1.000000000000000000 ) ) ;
#274 = DIRECTION ( 'NONE',  ( 0.000000000000000000, 0.000000000000000000, 1.000000000000000000 ) ) ;
#275 = ORIENTED_EDGE ( 'NONE', *, *, #974, .F. ) ;
#276 = ORIENTED_EDGE ( 'NONE', *, *, #674, .F. ) ;
#277 = CARTESIAN_POINT ( 'NONE',  ( 13.60000000000004761, 3.535456167226438851, 0.000000000000000000 ) ) ;
#278 = CIRCLE ( 'NONE', #1049, 1.965739218683230538 ) ;
#279 = FACE_OUTER_BOUND ( 'NONE', #1101, .T. ) ;
#280 = CIRCLE ( 'NONE', #816, 8.050000000000000711 ) ;
#281 = EDGE_CURVE ( 'NONE', #556, #567, #61, .T. ) ;
#282 = VERTEX_POINT ( 'NONE', #626 ) ;
#283 = COLOUR_RGB ( '',0.7921568627450980005, 0.8196078431372548767, 0.9333333333333333481 ) ;
#284 = AXIS2_PLACEMENT_3D ( 'NONE', #866, #470, #1100 ) ;
#285 = CARTESIAN_POINT ( 'NONE',  ( 22.09999999999989484, -5.398606014881004889, 0.000000000000000000 ) ) ;
#286 = DIRECTION ( 'NONE',  ( -1.000000000000000000, 0.000000000000000000, 0.000000000000000000 ) ) ;
#287 = ORIENTED_EDGE ( 'NONE', *, *, #473, .T. ) ;
#288 = FACE_OUTER_BOUND ( 'NONE', #687, .T. ) ;
#289 = EDGE_CURVE ( 'NONE', #84, #1217, #96, .T. ) ;
#290 = CARTESIAN_POINT ( 'NONE',  ( 0.000000000000000000, -9.035206014881010717, 0.7366000000000004766 ) ) ;
#291 = ORIENTED_EDGE ( 'NONE', *, *, #1000, .T. ) ;
#292 = DIRECTION ( 'NONE',  ( -1.000000000000000000, 0.000000000000000000, 0.000000000000000000 ) ) ;
#293 = ORIENTED_EDGE ( 'NONE', *, *, #315, .T. ) ;
#294 = LINE ( 'NONE', #413, #192 ) ;
#295 = DIRECTION ( 'NONE',  ( 1.000000000000000000, 0.000000000000000000, 0.000000000000000000 ) ) ;
#296 = VERTEX_POINT ( 'NONE', #1345 ) ;
#297 = DIRECTION ( 'NONE',  ( -1.000000000000000000, 0.000000000000000000, 0.000000000000000000 ) ) ;
#298 = PLANE ( 'NONE',  #1305 ) ;
#299 = EDGE_CURVE ( 'NONE', #1016, #464, #911, .T. ) ;
#300 = DIRECTION ( 'NONE',  ( 1.000000000000000000, 0.000000000000000000, 0.000000000000000000 ) ) ;
#301 = VECTOR ( 'NONE', #211, 1000.000000000000000 ) ;
#302 = VECTOR ( 'NONE', #760, 1000.000000000000000 ) ;
#303 = ORIENTED_EDGE ( 'NONE', *, *, #576, .T. ) ;
#304 = ADVANCED_FACE ( 'NONE', ( #340 ), #1257, .T. ) ;
#305 = DIRECTION ( 'NONE',  ( -1.000000000000000000, 0.000000000000000000, 0.000000000000000000 ) ) ;
#306 = AXIS2_PLACEMENT_3D ( 'NONE', #457, #1323, #386 ) ;
#307 = FACE_OUTER_BOUND ( 'NONE', #1086, .T. ) ;
#308 = CARTESIAN_POINT ( 'NONE',  ( 22.13353618402457812, -7.035206014881008052, 0.7365999999998508185 ) ) ;
#309 = CYLINDRICAL_SURFACE ( 'NONE', #213, 1.965739218683230538 ) ;
#310 = ORIENTED_EDGE ( 'NONE', *, *, #667, .F. ) ;
#311 = CARTESIAN_POINT ( 'NONE',  ( -21.32500000000010232, -5.398606014881004889, -2.000000000000000000 ) ) ;
#312 = FACE_BOUND ( 'NONE', #682, .T. ) ;
#313 = EDGE_CURVE ( 'NONE', #366, #1171, #8, .T. ) ;
#314 = PRESENTATION_STYLE_ASSIGNMENT (( #185 ) ) ;
#315 = EDGE_CURVE ( 'NONE', #88, #409, #966, .T. ) ;
#316 = FACE_OUTER_BOUND ( 'NONE', #720, .T. ) ;
#317 = VERTEX_POINT ( 'NONE', #1172 ) ;
#318 = DIRECTION ( 'NONE',  ( -7.062802723619857681E-15, -3.491481338843133355E-15, -1.000000000000000000 ) ) ;
#319 = CARTESIAN_POINT ( 'NONE',  ( -22.99999999999990052, -9.035206014880992953, 5.710149084007141163 ) ) ;
#320 = CARTESIAN_POINT ( 'NONE',  ( 0.4577717036866602029, -7.035206014881001835, 2.480825453516233292 ) ) ;
#321 = DIRECTION ( 'NONE',  ( 0.000000000000000000, 3.548298019043467945E-15, 1.000000000000000000 ) ) ;
#322 = EDGE_CURVE ( 'NONE', #796, #928, #219, .T. ) ;
#323 = AXIS2_PLACEMENT_3D ( 'NONE', #285, #1335, #828 ) ;
#324 = EDGE_LOOP ( 'NONE', ( #1302, #1256, #334 ) ) ;
#325 = AXIS2_PLACEMENT_3D ( 'NONE', #76, #183, #935 ) ;
#326 = DIRECTION ( 'NONE',  ( -0.000000000000000000, 1.000000000000000000, -3.491481338843133355E-15 ) ) ;
#327 = FACE_OUTER_BOUND ( 'NONE', #785, .T. ) ;
#328 = AXIS2_PLACEMENT_3D ( 'NONE', #805, #927, #709 ) ;
#329 = DIRECTION ( 'NONE',  ( 1.000000000000000000, 0.000000000000000000, 0.000000000000000000 ) ) ;
#330 = VECTOR ( 'NONE', #971, 1000.000000000000000 ) ;
#331 = CIRCLE ( 'NONE', #1142, 0.7750000000000013545 ) ;
#332 = CYLINDRICAL_SURFACE ( 'NONE', #707, 1.199999999999992628 ) ;
#333 = EDGE_CURVE ( 'NONE', #475, #484, #188, .T. ) ;
#334 = ORIENTED_EDGE ( 'NONE', *, *, #315, .F. ) ;
#335 = DIRECTION ( 'NONE',  ( -7.062802723619857681E-15, -3.491481338843133355E-15, -1.000000000000000000 ) ) ;
#336 = DIRECTION ( 'NONE',  ( 8.659560562354929160E-17, 0.7071067811865453523, -0.7071067811865496822 ) ) ;
#337 = FACE_BOUND ( 'NONE', #251, .T. ) ;
#338 = CARTESIAN_POINT ( 'NONE',  ( 0.4577717036866602029, -7.035206014880994729, 4.680825453516233914 ) ) ;
#339 = ORIENTED_EDGE ( 'NONE', *, *, #1033, .T. ) ;
#340 = FACE_OUTER_BOUND ( 'NONE', #1054, .T. ) ;
#341 = ADVANCED_FACE ( 'NONE', ( #1056 ), #1158, .F. ) ;
#342 = ORIENTED_EDGE ( 'NONE', *, *, #54, .T. ) ;
#343 = CARTESIAN_POINT ( 'NONE',  ( 22.99276119645001515, -7.035206014881002723, 2.480825453516233292 ) ) ;
#344 = EDGE_CURVE ( 'NONE', #1285, #985, #427, .T. ) ;
#345 = EDGE_LOOP ( 'NONE', ( #723, #1177, #293, #901, #906 ) ) ;
#346 = DIRECTION ( 'NONE',  ( 8.659560562354929160E-17, 0.7071067811865453523, -0.7071067811865496822 ) ) ;
#347 = ORIENTED_EDGE ( 'NONE', *, *, #392, .T. ) ;
#348 = DIRECTION ( 'NONE',  ( -1.000000000000000000, 0.000000000000000000, 0.000000000000000000 ) ) ;
#349 = AXIS2_PLACEMENT_3D ( 'NONE', #1173, #735, #14 ) ;
#350 = AXIS2_PLACEMENT_3D ( 'NONE', #1026, #820, #274 ) ;
#351 = DIRECTION ( 'NONE',  ( 0.000000000000000000, 3.548298019043467945E-15, 1.000000000000000000 ) ) ;
#352 = ORIENTED_EDGE ( 'NONE', *, *, #1309, .F. ) ;
#353 = EDGE_CURVE ( 'NONE', #184, #153, #1167, .T. ) ;
#354 = CARTESIAN_POINT ( 'NONE',  ( -23.00000000000010303, 13.99999999999983302, -2.000000000000000000 ) ) ;
#355 = AXIS2_PLACEMENT_3D ( 'NONE', #1025, #1214, #155 ) ;
#356 = VERTEX_POINT ( 'NONE', #961 ) ;
#357 = ORIENTED_EDGE ( 'NONE', *, *, #154, .F. ) ;
#358 = DIRECTION ( 'NONE',  ( -0.000000000000000000, 1.000000000000000000, -3.491481338843133355E-15 ) ) ;
#359 = ORIENTED_EDGE ( 'NONE', *, *, #779, .F. ) ;
#360 = EDGE_CURVE ( 'NONE', #556, #1217, #557, .T. ) ;
#361 = LINE ( 'NONE', #978, #1222 ) ;
#362 = EDGE_CURVE ( 'NONE', #464, #676, #1138, .T. ) ;
#363 = VERTEX_POINT ( 'NONE', #260 ) ;
#364 = ORIENTED_EDGE ( 'NONE', *, *, #1019, .F. ) ;
#365 = CARTESIAN_POINT ( 'NONE',  ( 20.79276119645001586, -7.035206014881009828, 0.2808254535162325594 ) ) ;
#366 = VERTEX_POINT ( 'NONE', #20 ) ;
#367 = DIRECTION ( 'NONE',  ( -0.000000000000000000, -0.000000000000000000, -1.000000000000000000 ) ) ;
#368 = EDGE_LOOP ( 'NONE', ( #1288, #522, #894, #1343, #514 ) ) ;
#369 = EDGE_LOOP ( 'NONE', ( #920, #658, #767, #973 ) ) ;
#370 = ORIENTED_EDGE ( 'NONE', *, *, #454, .F. ) ;
#371 = AXIS2_PLACEMENT_3D ( 'NONE', #647, #1063, #348 ) ;
#372 = DIRECTION ( 'NONE',  ( 1.000000000000000000, 0.000000000000000000, 0.000000000000000000 ) ) ;
#373 = AXIS2_PLACEMENT_3D ( 'NONE', #763, #472, #677 ) ;
#374 = VECTOR ( 'NONE', #463, 1000.000000000000000 ) ;
#375 = LINE ( 'NONE', #382, #772 ) ;
#376 = EDGE_CURVE ( 'NONE', #409, #296, #447, .T. ) ;
#377 = VECTOR ( 'NONE', #1321, 1000.000000000000000 ) ;
#378 = ORIENTED_EDGE ( 'NONE', *, *, #974, .T. ) ;
#379 = DIRECTION ( 'NONE',  ( -0.000000000000000000, -0.000000000000000000, -1.000000000000000000 ) ) ;
#380 = DIRECTION ( 'NONE',  ( -0.000000000000000000, 1.000000000000000000, -3.491481338843133355E-15 ) ) ;
#381 = DIRECTION ( 'NONE',  ( 0.000000000000000000, -1.000000000000000000, 0.000000000000000000 ) ) ;
#382 = CARTESIAN_POINT ( 'NONE',  ( 22.99999999999989697, 14.00000000000016698, -2.000000000000000000 ) ) ;
#383 = ORIENTED_EDGE ( 'NONE', *, *, #956, .F. ) ;
#384 = EDGE_LOOP ( 'NONE', ( #68, #418, #846, #122 ) ) ;
#385 = EDGE_CURVE ( 'NONE', #165, #1241, #549, .T. ) ;
#386 = DIRECTION ( 'NONE',  ( 0.000000000000000000, 0.000000000000000000, 1.000000000000000000 ) ) ;
#387 = LINE ( 'NONE', #716, #528 ) ;
#388 = ORIENTED_EDGE ( 'NONE', *, *, #7, .F. ) ;
#389 = CARTESIAN_POINT ( 'NONE',  ( 0.4577717036866602029, -7.035206014881000058, 3.680825453516226808 ) ) ;
#390 = PRODUCT_CONTEXT ( 'NONE', #701, 'mechanical' ) ;
#391 = CARTESIAN_POINT ( 'NONE',  ( 22.09999999999989484, -5.398606014881004889, 0.000000000000000000 ) ) ;
#392 = EDGE_CURVE ( 'NONE', #117, #670, #766, .T. ) ;
#393 = DIRECTION ( 'NONE',  ( 4.931928781889839023E-29, -6.982962677686267499E-15, 1.000000000000000000 ) ) ;
#394 = AXIS2_PLACEMENT_3D ( 'NONE', #842, #191, #719 ) ;
#395 = DIRECTION ( 'NONE',  ( -0.000000000000000000, 1.000000000000000000, -3.491481338843133355E-15 ) ) ;
#396 = CIRCLE ( 'NONE', #81, 1.199999999999999734 ) ;
#397 = EDGE_LOOP ( 'NONE', ( #491, #877 ) ) ;
#398 = CIRCLE ( 'NONE', #593, 1.199999999999985745 ) ;
#399 = CARTESIAN_POINT ( 'NONE',  ( 3.550000000000047784, -5.298606014881002579, -2.000000000000000000 ) ) ;
#400 = DIRECTION ( 'NONE',  ( 0.000000000000000000, 0.000000000000000000, 1.000000000000000000 ) ) ;
#401 = DIRECTION ( 'NONE',  ( 0.000000000000000000, 0.7071067811865502373, 0.7071067811865447972 ) ) ;
#402 = DIRECTION ( 'NONE',  ( -1.000000000000000000, -7.240584943207542861E-15, -0.000000000000000000 ) ) ;
#403 = EDGE_CURVE ( 'NONE', #790, #1339, #103, .T. ) ;
#404 = ORIENTED_EDGE ( 'NONE', *, *, #533, .T. ) ;
#405 = CARTESIAN_POINT ( 'NONE',  ( 0.4577717036866603695, -9.035206014881010717, 1.280825453516252876 ) ) ;
#406 = DIRECTION ( 'NONE',  ( -1.000000000000000000, 0.000000000000000000, 0.000000000000000000 ) ) ;
#407 = CARTESIAN_POINT ( 'NONE',  ( -19.14573057502622078, -8.035206014881003611, 2.480825453516236401 ) ) ;
#408 = CARTESIAN_POINT ( 'NONE',  ( -4.849999999999951683, 2.955656850763491938, 0.000000000000000000 ) ) ;
#409 = VERTEX_POINT ( 'NONE', #660 ) ;
#410 = EDGE_CURVE ( 'NONE', #1285, #1270, #750, .T. ) ;
#411 = DIRECTION ( 'NONE',  ( -1.000000000000000000, -0.000000000000000000, -0.000000000000000000 ) ) ;
#412 = DIRECTION ( 'NONE',  ( -0.000000000000000000, 1.000000000000000000, -3.491481338843133355E-15 ) ) ;
#413 = CARTESIAN_POINT ( 'NONE',  ( 20.79276119645001586, -7.035206014880994729, 4.680825453516233914 ) ) ;
#414 = CIRCLE ( 'NONE', #1181, 0.7750000000000013545 ) ;
#415 = CYLINDRICAL_SURFACE ( 'NONE', #62, 1.199999999999992628 ) ;
#416 = VECTOR ( 'NONE', #336, 1000.000000000000000 ) ;
#417 = VECTOR ( 'NONE', #904, 1000.000000000000000 ) ;
#418 = ORIENTED_EDGE ( 'NONE', *, *, #245, .T. ) ;
#419 = EDGE_CURVE ( 'NONE', #1217, #366, #231, .T. ) ;
#420 = VECTOR ( 'NONE', #535, 1000.000000000000000 ) ;
#421 = CARTESIAN_POINT ( 'NONE',  ( -22.10000000000010090, -5.398606014881004889, 0.000000000000000000 ) ) ;
#422 = VECTOR ( 'NONE', #1304, 1000.000000000000000 ) ;
#423 = FACE_OUTER_BOUND ( 'NONE', #939, .T. ) ;
#424 = CARTESIAN_POINT ( 'NONE',  ( -23.00000000000010303, -9.035206014881090653, -22.28985091599285795 ) ) ;
#425 = LINE ( 'NONE', #635, #235 ) ;
#426 = ORIENTED_EDGE ( 'NONE', *, *, #520, .T. ) ;
#427 = LINE ( 'NONE', #452, #728 ) ;
#428 = CARTESIAN_POINT ( 'NONE',  ( 0.000000000000000000, -7.035206014881040915, -8.289850915993032032 ) ) ;
#429 = EDGE_CURVE ( 'NONE', #117, #366, #133, .T. ) ;
#430 = DIRECTION ( 'NONE',  ( -0.000000000000000000, 1.000000000000000000, -3.491481338843133355E-15 ) ) ;
#431 = ORIENTED_EDGE ( 'NONE', *, *, #446, .F. ) ;
#432 = DIRECTION ( 'NONE',  ( 0.000000000000000000, 1.000000000000000000, -3.491481338843133355E-15 ) ) ;
#433 = DIRECTION ( 'NONE',  ( -1.000000000000000000, 0.000000000000000000, 0.000000000000000000 ) ) ;
#434 = DIRECTION ( 'NONE',  ( -0.000000000000000000, 1.000000000000000000, -3.491481338843133355E-15 ) ) ;
#435 = ADVANCED_FACE ( 'NONE', ( #950 ), #1076, .F. ) ;
#436 = CARTESIAN_POINT ( 'NONE',  ( 0.4577717036866603695, -8.035206014881007164, 1.280825453516236889 ) ) ;
#437 = ORIENTED_EDGE ( 'NONE', *, *, #333, .F. ) ;
#438 = VECTOR ( 'NONE', #432, 1000.000000000000000 ) ;
#439 = CARTESIAN_POINT ( 'NONE',  ( 22.99999999999989697, 14.00000000000016698, -2.000000000000000000 ) ) ;
#440 = DIRECTION ( 'NONE',  ( -1.000000000000000000, -0.000000000000000000, 0.000000000000000000 ) ) ;
#441 = AXIS2_PLACEMENT_3D ( 'NONE', #148, #1067, #250 ) ;
#442 = CONICAL_SURFACE ( 'NONE', #1141, 2.200000000000000622, 0.7853981633974479459 ) ;
#443 = CARTESIAN_POINT ( 'NONE',  ( -22.99999999999995737, -6.298606014881002579, -2.000000000000000444 ) ) ;
#444 = LINE ( 'NONE', #30, #752 ) ;
#445 = ORIENTED_EDGE ( 'NONE', *, *, #737, .F. ) ;
#446 = EDGE_CURVE ( 'NONE', #363, #670, #699, .T. ) ;
#447 = LINE ( 'NONE', #1202, #1119 ) ;
#448 = ORIENTED_EDGE ( 'NONE', *, *, #289, .F. ) ;
#449 = CARTESIAN_POINT ( 'NONE',  ( 0.000000000000000000, 0.000000000000000000, 0.000000000000000000 ) ) ;
#450 = DIRECTION ( 'NONE',  ( 0.000000000000000000, 0.000000000000000000, 1.000000000000000000 ) ) ;
#451 = ORIENTED_EDGE ( 'NONE', *, *, #313, .F. ) ;
#452 = CARTESIAN_POINT ( 'NONE',  ( 20.79276119645001586, -7.035206014881000058, 3.680825453516225920 ) ) ;
#453 = VERTEX_POINT ( 'NONE', #585 ) ;
#454 = EDGE_CURVE ( 'NONE', #1121, #566, #614, .T. ) ;
#455 = DIRECTION ( 'NONE',  ( -0.000000000000000000, -0.000000000000000000, -1.000000000000000000 ) ) ;
#456 = ORIENTED_EDGE ( 'NONE', *, *, #221, .F. ) ;
#457 = CARTESIAN_POINT ( 'NONE',  ( 3.550000000000047784, -1.367127577514541503, 0.000000000000000000 ) ) ;
#458 = ORIENTED_EDGE ( 'NONE', *, *, #893, .F. ) ;
#459 = EDGE_CURVE ( 'NONE', #12, #1171, #1, .T. ) ;
#460 = ORIENTED_EDGE ( 'NONE', *, *, #1164, .T. ) ;
#461 = CIRCLE ( 'NONE', #349, 2.200000000000000622 ) ;
#462 = AXIS2_PLACEMENT_3D ( 'NONE', #28, #745, #225 ) ;
#463 = DIRECTION ( 'NONE',  ( -0.000000000000000000, 1.000000000000000000, -3.491481338843133355E-15 ) ) ;
#464 = VERTEX_POINT ( 'NONE', #800 ) ;
#465 = CONICAL_SURFACE ( 'NONE', #441, 2.200000000000000622, 0.7853981633974479459 ) ;
#466 = CARTESIAN_POINT ( 'NONE',  ( 0.4577717036866602029, -7.035206014881001835, 2.480825453516233292 ) ) ;
#467 = AXIS2_PLACEMENT_3D ( 'NONE', #1311, #684, #908 ) ;
#468 = AXIS2_PLACEMENT_3D ( 'NONE', #1210, #995, #689 ) ;
#469 = EDGE_LOOP ( 'NONE', ( #621, #1263 ) ) ;
#470 = DIRECTION ( 'NONE',  ( 0.000000000000000000, 0.000000000000000000, -1.000000000000000000 ) ) ;
#471 = ORIENTED_EDGE ( 'NONE', *, *, #1261, .T. ) ;
#472 = DIRECTION ( 'NONE',  ( -0.000000000000000000, -0.000000000000000000, 1.000000000000000000 ) ) ;
#473 = EDGE_CURVE ( 'NONE', #567, #1216, #1324, .T. ) ;
#474 = EDGE_CURVE ( 'NONE', #711, #1325, #375, .T. ) ;
#475 = VERTEX_POINT ( 'NONE', #916 ) ;
#476 = EDGE_LOOP ( 'NONE', ( #822, #827 ) ) ;
#477 = APPLICATION_PROTOCOL_DEFINITION ( 'draft international standard', 'automotive_design', 1998, #701 ) ;
#478 = ORIENTED_EDGE ( 'NONE', *, *, #586, .T. ) ;
#479 = FACE_BOUND ( 'NONE', #994, .T. ) ;
#480 = ADVANCED_FACE ( 'NONE', ( #502 ), #22, .F. ) ;
#481 = CARTESIAN_POINT ( 'NONE',  ( -19.14573057502622078, -8.035206014881003611, 2.480825453516236401 ) ) ;
#482 = ORIENTED_EDGE ( 'NONE', *, *, #410, .T. ) ;
#483 = CYLINDRICAL_SURFACE ( 'NONE', #733, 0.7750000000000013545 ) ;
#484 = VERTEX_POINT ( 'NONE', #1215 ) ;
#485 = AXIS2_PLACEMENT_3D ( 'NONE', #119, #220, #648 ) ;
#486 = AXIS2_PLACEMENT_3D ( 'NONE', #439, #123, #32 ) ;
#487 = DIRECTION ( 'NONE',  ( 0.000000000000000000, 0.000000000000000000, 1.000000000000000000 ) ) ;
#488 = AXIS2_PLACEMENT_3D ( 'NONE', #1034, #1338, #1255 ) ;
#489 = DIRECTION ( 'NONE',  ( 0.000000000000000000, 3.548298019043467945E-15, 1.000000000000000000 ) ) ;
#490 = VECTOR ( 'NONE', #455, 1000.000000000000000 ) ;
#491 = ORIENTED_EDGE ( 'NONE', *, *, #893, .T. ) ;
#492 = ADVANCED_FACE ( 'NONE', ( #1005 ), #267, .F. ) ;
#493 = FACE_OUTER_BOUND ( 'NONE', #1130, .T. ) ;
#494 = EDGE_LOOP ( 'NONE', ( #43, #564, #917, #886, #364 ) ) ;
#495 = CARTESIAN_POINT ( 'NONE',  ( -19.14573057502622078, -8.035206014881000058, 3.680825453516236134 ) ) ;
#496 = CARTESIAN_POINT ( 'NONE',  ( 20.79276119645001586, -7.035206014880994729, 4.680825453516233914 ) ) ;
#497 = ORIENTED_EDGE ( 'NONE', *, *, #710, .T. ) ;
#498 = CARTESIAN_POINT ( 'NONE',  ( -19.14573057502622078, -9.035206014881007164, 2.480825453516239953 ) ) ;
#499 = SHAPE_DEFINITION_REPRESENTATION ( #864, #599 ) ;
#500 = ORIENTED_EDGE ( 'NONE', *, *, #78, .F. ) ;
#501 = CARTESIAN_POINT ( 'NONE',  ( -12.89999999999995062, 2.955656850763491938, -2.000000000000000000 ) ) ;
#502 = FACE_OUTER_BOUND ( 'NONE', #31, .T. ) ;
#503 = ORIENTED_EDGE ( 'NONE', *, *, #459, .F. ) ;
#504 = FACE_OUTER_BOUND ( 'NONE', #36, .T. ) ;
#505 = VERTEX_POINT ( 'NONE', #1115 ) ;
#506 = AXIS2_PLACEMENT_3D ( 'NONE', #498, #177, #813 ) ;
#507 = CARTESIAN_POINT ( 'NONE',  ( 20.79276119645001586, -8.035206014881000058, 3.680825453516236134 ) ) ;
#508 = EDGE_CURVE ( 'NONE', #198, #1339, #387, .T. ) ;
#509 = CARTESIAN_POINT ( 'NONE',  ( -22.99999999999992895, -7.035206014881002723, 0.7366000000000063608 ) ) ;
#510 = AXIS2_PLACEMENT_3D ( 'NONE', #236, #1196, #40 ) ;
#511 = EDGE_LOOP ( 'NONE', ( #1250, #252, #562, #1082, #979 ) ) ;
#512 = CIRCLE ( 'NONE', #619, 1.199999999999999734 ) ;
#513 = CARTESIAN_POINT ( 'NONE',  ( 22.09999999999989484, -5.398606014881004889, 0.000000000000000000 ) ) ;
#514 = ORIENTED_EDGE ( 'NONE', *, *, #1148, .T. ) ;
#515 = DIRECTION ( 'NONE',  ( 1.000000000000000000, -2.465964390944919231E-29, -7.062802723619858470E-15 ) ) ;
#516 = LINE ( 'NONE', #831, #1008 ) ;
#517 = EDGE_LOOP ( 'NONE', ( #668, #801, #242, #638, #175 ) ) ;
#518 = CARTESIAN_POINT ( 'NONE',  ( 5.550000000000042455, 3.535456167226439739, -2.000000000000000000 ) ) ;
#519 = DIRECTION ( 'NONE',  ( -1.000000000000000000, 0.000000000000000000, 0.000000000000000000 ) ) ;
#520 = EDGE_CURVE ( 'NONE', #832, #409, #600, .T. ) ;
#521 = LINE ( 'NONE', #959, #24 ) ;
#522 = ORIENTED_EDGE ( 'NONE', *, *, #154, .T. ) ;
#523 = CARTESIAN_POINT ( 'NONE',  ( -22.99999999999990052, -9.035206014880992953, 5.710149084007141163 ) ) ;
#524 = DIRECTION ( 'NONE',  ( -1.000000000000000000, 0.000000000000000000, 0.000000000000000000 ) ) ;
#525 = DIRECTION ( 'NONE',  ( 0.000000000000000000, 3.548298019043467945E-15, 1.000000000000000000 ) ) ;
#526 = CARTESIAN_POINT ( 'NONE',  ( -19.14573057502622078, -9.035206014881003611, 3.680825453516225920 ) ) ;
#527 = CIRCLE ( 'NONE', #703, 1.965739218683230538 ) ;
#528 = VECTOR ( 'NONE', #826, 1000.000000000000000 ) ;
#529 = ORIENTED_EDGE ( 'NONE', *, *, #289, .T. ) ;
#530 = DIRECTION ( 'NONE',  ( 1.000000000000000000, -2.528036721151771249E-29, -7.240584943207544438E-15 ) ) ;
#531 = AXIS2_PLACEMENT_3D ( 'NONE', #277, #705, #1207 ) ;
#532 = CARTESIAN_POINT ( 'NONE',  ( 0.000000000000000000, 0.000000000000000000, -2.000000000000000000 ) ) ;
#533 = EDGE_CURVE ( 'NONE', #1010, #184, #1098, .T. ) ;
#534 = FILL_AREA_STYLE ('',( #1133 ) ) ;
#535 = DIRECTION ( 'NONE',  ( 7.310620363045116288E-15, -1.000000000000000000, 0.000000000000000000 ) ) ;
#536 = ORIENTED_EDGE ( 'NONE', *, *, #958, .T. ) ;
#537 = EDGE_CURVE ( 'NONE', #652, #551, #280, .T. ) ;
#538 = DIRECTION ( 'NONE',  ( -1.000000000000000000, -7.240584943207542861E-15, -0.000000000000000000 ) ) ;
#539 = CARTESIAN_POINT ( 'NONE',  ( 5.550000000000042455, 3.535456167226439739, -2.000000000000000000 ) ) ;
#540 = CARTESIAN_POINT ( 'NONE',  ( 23.00000000000004263, -7.035206014881002723, 0.7366000000000063608 ) ) ;
#541 = CARTESIAN_POINT ( 'NONE',  ( -19.14573057502622078, -7.035206014881001835, 2.480825453516233292 ) ) ;
#542 = ORIENTED_EDGE ( 'NONE', *, *, #360, .T. ) ;
#543 = CARTESIAN_POINT ( 'NONE',  ( -23.00000000000010303, 13.99999999999983302, 0.000000000000000000 ) ) ;
#544 = CARTESIAN_POINT ( 'NONE',  ( 20.79276119645001586, -7.035206014881003611, 2.480825453516233292 ) ) ;
#545 = CARTESIAN_POINT ( 'NONE',  ( -2.918521562633490607, -3.332866796197772707, 0.000000000000000000 ) ) ;
#546 = CARTESIAN_POINT ( 'NONE',  ( 20.79276119645001586, -7.035206014881003611, 2.480825453516233292 ) ) ;
#547 = ADVANCED_FACE ( 'NONE', ( #279 ), #168, .T. ) ;
#548 = ORIENTED_EDGE ( 'NONE', *, *, #1294, .T. ) ;
#549 = CIRCLE ( 'NONE', #986, 0.7750000000000013545 ) ;
#550 = CARTESIAN_POINT ( 'NONE',  ( 0.4577717036866602029, -8.035206014881003611, 2.480825453516236401 ) ) ;
#551 = VERTEX_POINT ( 'NONE', #898 ) ;
#552 = AXIS2_PLACEMENT_3D ( 'NONE', #798, #1003, #79 ) ;
#553 = PLANE ( 'NONE',  #1330 ) ;
#554 = AXIS2_PLACEMENT_3D ( 'NONE', #875, #981, #329 ) ;
#555 = DIRECTION ( 'NONE',  ( 0.000000000000000000, 2.891205793294712938E-15, 1.000000000000000000 ) ) ;
#556 = VERTEX_POINT ( 'NONE', #509 ) ;
#557 = LINE ( 'NONE', #641, #1096 ) ;
#558 = FACE_BOUND ( 'NONE', #476, .T. ) ;
#559 = VERTEX_POINT ( 'NONE', #1012 ) ;
#560 = FACE_OUTER_BOUND ( 'NONE', #764, .T. ) ;
#561 = EDGE_CURVE ( 'NONE', #84, #117, #998, .T. ) ;
#562 = ORIENTED_EDGE ( 'NONE', *, *, #1019, .T. ) ;
#563 = DIRECTION ( 'NONE',  ( -1.000000000000000000, 0.000000000000000000, -0.000000000000000000 ) ) ;
#564 = ORIENTED_EDGE ( 'NONE', *, *, #353, .T. ) ;
#565 = DIRECTION ( 'NONE',  ( 0.000000000000000000, 0.7071067811865502373, 0.7071067811865447972 ) ) ;
#566 = VERTEX_POINT ( 'NONE', #496 ) ;
#567 = VERTEX_POINT ( 'NONE', #909 ) ;
#568 = CIRCLE ( 'NONE', #944, 1.199999999999987077 ) ;
#569 = EDGE_CURVE ( 'NONE', #985, #1165, #396, .T. ) ;
#570 = VERTEX_POINT ( 'NONE', #1104 ) ;
#571 = AXIS2_PLACEMENT_3D ( 'NONE', #466, #651, #1176 ) ;
#572 = DIRECTION ( 'NONE',  ( 1.000000000000000000, 0.000000000000000000, 0.000000000000000000 ) ) ;
#573 =( GEOMETRIC_REPRESENTATION_CONTEXT ( 3 ) GLOBAL_UNCERTAINTY_ASSIGNED_CONTEXT ( ( #695 ) ) GLOBAL_UNIT_ASSIGNED_CONTEXT ( ( #742, #613, #10 ) ) REPRESENTATION_CONTEXT ( 'NONE', 'WORKASPACE' ) );
#574 = AXIS2_PLACEMENT_3D ( 'NONE', #343, #241, #1092 ) ;
#575 = ORIENTED_EDGE ( 'NONE', *, *, #85, .T. ) ;
#576 = EDGE_CURVE ( 'NONE', #1325, #732, #1124, .T. ) ;
#577 =( NAMED_UNIT ( * ) SI_UNIT ( $, .STERADIAN. ) SOLID_ANGLE_UNIT ( ) );
#578 = ORIENTED_EDGE ( 'NONE', *, *, #111, .T. ) ;
#579 = EDGE_CURVE ( 'NONE', #567, #12, #156, .T. ) ;
#580 = CARTESIAN_POINT ( 'NONE',  ( -23.00000000000010303, 13.99999999999983302, 0.000000000000000000 ) ) ;
#581 = CARTESIAN_POINT ( 'NONE',  ( 0.000000000000000000, -6.298606014881016790, -0.000000000000000000 ) ) ;
#582 = EDGE_LOOP ( 'NONE', ( #913, #310, #1232, #55 ) ) ;
#583 = EDGE_LOOP ( 'NONE', ( #1118, #1197 ) ) ;
#584 = LINE ( 'NONE', #1128, #259 ) ;
#585 = CARTESIAN_POINT ( 'NONE',  ( -20.94999999999994955, 2.955656850763492827, -2.000000000000000000 ) ) ;
#586 = EDGE_CURVE ( 'NONE', #670, #1171, #116, .T. ) ;
#587 = EDGE_LOOP ( 'NONE', ( #1084, #339 ) ) ;
#588 = DIRECTION ( 'NONE',  ( -0.000000000000000000, -0.000000000000000000, -1.000000000000000000 ) ) ;
#589 = VERTEX_POINT ( 'NONE', #526 ) ;
#590 = AXIS2_PLACEMENT_3D ( 'NONE', #544, #412, #855 ) ;
#591 = AXIS2_PLACEMENT_3D ( 'NONE', #1264, #326, #53 ) ;
#592 = CARTESIAN_POINT ( 'NONE',  ( 23.00000000000003908, -6.298606014881002579, -2.000000000000141664 ) ) ;
#593 = AXIS2_PLACEMENT_3D ( 'NONE', #1044, #206, #114 ) ;
#594 = DIRECTION ( 'NONE',  ( 0.000000000000000000, 0.000000000000000000, -1.000000000000000000 ) ) ;
#595 = ORIENTED_EDGE ( 'NONE', *, *, #1254, .F. ) ;
#596 = DIRECTION ( 'NONE',  ( 0.000000000000000000, 2.891205793294679017E-15, 1.000000000000000000 ) ) ;
#597 = DIRECTION ( 'NONE',  ( 1.000000000000000000, 0.000000000000000000, 0.000000000000000000 ) ) ;
#598 = PLANE ( 'NONE',  #1032 ) ;
#599 = ADVANCED_BREP_SHAPE_REPRESENTATION ( 'ultrasonic sensor cap', ( #1075, #239 ), #949 ) ;
#600 = LINE ( 'NONE', #1306, #881 ) ;
#601 = ADVANCED_FACE ( 'NONE', ( #1249 ), #743, .F. ) ;
#602 = ORIENTED_EDGE ( 'NONE', *, *, #612, .F. ) ;
#603 = DIRECTION ( 'NONE',  ( -0.000000000000000000, 1.000000000000000000, -3.491481338843133355E-15 ) ) ;
#604 = EDGE_LOOP ( 'NONE', ( #812, #1037, #1061, #1027, #426, #261, #739, #759, #809, #503 ) ) ;
#605 = EDGE_CURVE ( 'NONE', #63, #95, #794, .T. ) ;
#606 = CARTESIAN_POINT ( 'NONE',  ( 0.000000000000000000, -9.035206014881040915, -8.289850915993026703 ) ) ;
#607 = CARTESIAN_POINT ( 'NONE',  ( 20.79276119645001586, -7.035206014881001835, 2.480825453516233292 ) ) ;
#608 = ORIENTED_EDGE ( 'NONE', *, *, #245, .F. ) ;
#609 = EDGE_CURVE ( 'NONE', #193, #146, #106, .T. ) ;
#610 = LINE ( 'NONE', #632, #1073 ) ;
#611 = CARTESIAN_POINT ( 'NONE',  ( 23.00000000000003908, -6.298606014881016790, 0.000000000000000000 ) ) ;
#612 = EDGE_CURVE ( 'NONE', #153, #193, #1246, .T. ) ;
#613 =( NAMED_UNIT ( * ) PLANE_ANGLE_UNIT ( ) SI_UNIT ( $, .RADIAN. ) );
#614 = CIRCLE ( 'NONE', #1184, 2.200000000000000622 ) ;
#615 = DIRECTION ( 'NONE',  ( -0.000000000000000000, 1.000000000000000000, -3.491481338843133355E-15 ) ) ;
#616 = VECTOR ( 'NONE', #300, 1000.000000000000000 ) ;
#617 = VECTOR ( 'NONE', #1109, 1000.000000000000000 ) ;
#618 = ORIENTED_EDGE ( 'NONE', *, *, #1004, .F. ) ;
#619 = AXIS2_PLACEMENT_3D ( 'NONE', #37, #1174, #29 ) ;
#620 = DIRECTION ( 'NONE',  ( 0.000000000000000000, 0.000000000000000000, 1.000000000000000000 ) ) ;
#621 = ORIENTED_EDGE ( 'NONE', *, *, #111, .F. ) ;
#622 = EDGE_CURVE ( 'NONE', #63, #356, #521, .T. ) ;
#623 = DIRECTION ( 'NONE',  ( -7.062802723619858470E-15, -3.491481338843133355E-15, -1.000000000000000000 ) ) ;
#624 = CARTESIAN_POINT ( 'NONE',  ( 0.4577717036866602029, -7.035206014881001835, 2.480825453516233292 ) ) ;
#625 = ORIENTED_EDGE ( 'NONE', *, *, #270, .F. ) ;
#626 = CARTESIAN_POINT ( 'NONE',  ( -4.884260781316720923, -3.332866796197772707, -2.000000000000000000 ) ) ;
#627 = CARTESIAN_POINT ( 'NONE',  ( 3.550000000000047784, -3.332866796197772263, 0.000000000000000000 ) ) ;
#628 = CARTESIAN_POINT ( 'NONE',  ( -19.14573057502622078, -7.035206014880994729, 4.680825453516233914 ) ) ;
#629 = DIRECTION ( 'NONE',  ( 0.000000000000000000, 3.548298019043467945E-15, 1.000000000000000000 ) ) ;
#630 = ADVANCED_FACE ( 'NONE', ( #109 ), #857, .T. ) ;
#631 = EDGE_LOOP ( 'NONE', ( #889, #688, #1281, #782 ) ) ;
#632 = CARTESIAN_POINT ( 'NONE',  ( -23.00000000000010303, -9.035206014881090653, -22.28985091599285795 ) ) ;
#633 = DIRECTION ( 'NONE',  ( -1.000000000000000000, 0.000000000000000000, -0.000000000000000000 ) ) ;
#634 = FACE_OUTER_BOUND ( 'NONE', #268, .T. ) ;
#635 = CARTESIAN_POINT ( 'NONE',  ( -22.87500000000010303, -5.398606014881004889, 0.000000000000000000 ) ) ;
#636 = VECTOR ( 'NONE', #433, 1000.000000000000000 ) ;
#637 = ADVANCED_FACE ( 'NONE', ( #11 ), #415, .F. ) ;
#638 = ORIENTED_EDGE ( 'NONE', *, *, #454, .T. ) ;
#639 = AXIS2_PLACEMENT_3D ( 'NONE', #1293, #666, #572 ) ;
#640 = ADVANCED_FACE ( 'NONE', ( #316 ), #309, .F. ) ;
#641 = CARTESIAN_POINT ( 'NONE',  ( -23.00000000000010303, -7.035206014881089764, -22.28985091599286505 ) ) ;
#642 = CIRCLE ( 'NONE', #531, 8.050000000000002487 ) ;
#643 = FACE_OUTER_BOUND ( 'NONE', #999, .T. ) ;
#644 = PLANE ( 'NONE',  #819 ) ;
#645 = CARTESIAN_POINT ( 'NONE',  ( -2.918521562633490607, -3.332866796197772707, 0.000000000000000000 ) ) ;
#646 = ORIENTED_EDGE ( 'NONE', *, *, #605, .F. ) ;
#647 = CARTESIAN_POINT ( 'NONE',  ( -22.10000000000010090, -5.398606014881004889, 0.000000000000000000 ) ) ;
#648 = DIRECTION ( 'NONE',  ( 1.000000000000000000, 0.000000000000000000, 0.000000000000000000 ) ) ;
#649 = DIRECTION ( 'NONE',  ( -1.000000000000000000, -0.000000000000000000, -0.000000000000000000 ) ) ;
#650 = EDGE_CURVE ( 'NONE', #475, #1241, #425, .T. ) ;
#651 = DIRECTION ( 'NONE',  ( -0.000000000000000000, 1.000000000000000000, -3.491481338843133355E-15 ) ) ;
#652 = VERTEX_POINT ( 'NONE', #408 ) ;
#653 = DIRECTION ( 'NONE',  ( -0.000000000000000000, 1.000000000000000000, -3.491481338843133355E-15 ) ) ;
#654 = DIRECTION ( 'NONE',  ( 1.000000000000000000, 0.000000000000000000, 0.000000000000000000 ) ) ;
#655 = CARTESIAN_POINT ( 'NONE',  ( -16.94573057502622149, -7.035206014881002723, 2.480825453516233292 ) ) ;
#656 = DIRECTION ( 'NONE',  ( 0.000000000000000000, 3.614007241618370464E-15, 1.000000000000000000 ) ) ;
#657 = CIRCLE ( 'NONE', #230, 8.050000000000000711 ) ;
#658 = ORIENTED_EDGE ( 'NONE', *, *, #446, .T. ) ;
#659 = AXIS2_PLACEMENT_3D ( 'NONE', #1081, #1277, #1178 ) ;
#660 = CARTESIAN_POINT ( 'NONE',  ( -0.8830032838881016755, -7.035206014881008052, 0.7366000000000025860 ) ) ;
#661 = VECTOR ( 'NONE', #565, 1000.000000000000000 ) ;
#662 = CARTESIAN_POINT ( 'NONE',  ( -2.918521562633490607, -3.332866796197772707, 0.000000000000000000 ) ) ;
#663 = EDGE_LOOP ( 'NONE', ( #977, #1195, #240, #578 ) ) ;
#664 = EDGE_CURVE ( 'NONE', #453, #551, #516, .T. ) ;
#665 = AXIS2_PLACEMENT_3D ( 'NONE', #989, #1009, #596 ) ;
#666 = DIRECTION ( 'NONE',  ( -0.000000000000000000, -0.000000000000000000, 1.000000000000000000 ) ) ;
#667 = EDGE_CURVE ( 'NONE', #928, #567, #1143, .T. ) ;
#668 = ORIENTED_EDGE ( 'NONE', *, *, #1175, .F. ) ;
#669 = DIRECTION ( 'NONE',  ( 0.000000000000000000, 0.000000000000000000, -1.000000000000000000 ) ) ;
#670 = VERTEX_POINT ( 'NONE', #1262 ) ;
#671 = DIRECTION ( 'NONE',  ( -0.000000000000000000, 1.000000000000000000, -3.491481338843133355E-15 ) ) ;
#672 = EDGE_CURVE ( 'NONE', #1097, #1318, #1078, .T. ) ;
#673 = ORIENTED_EDGE ( 'NONE', *, *, #253, .F. ) ;
#674 = EDGE_CURVE ( 'NONE', #409, #1091, #1185, .T. ) ;
#675 = FACE_OUTER_BOUND ( 'NONE', #1336, .T. ) ;
#676 = VERTEX_POINT ( 'NONE', #436 ) ;
#677 = DIRECTION ( 'NONE',  ( 1.000000000000000000, 0.000000000000000000, 0.000000000000000000 ) ) ;
#678 = VERTEX_POINT ( 'NONE', #1134 ) ;
#679 = EDGE_CURVE ( 'NONE', #296, #88, #818, .T. ) ;
#680 = CIRCLE ( 'NONE', #325, 8.050000000000000711 ) ;
#681 = AXIS2_PLACEMENT_3D ( 'NONE', #180, #1018, #594 ) ;
#682 = EDGE_LOOP ( 'NONE', ( #1190, #873, #1157, #910, #90 ) ) ;
#683 = AXIS2_PLACEMENT_3D ( 'NONE', #541, #87, #1060 ) ;
#684 = DIRECTION ( 'NONE',  ( -0.000000000000000000, 1.000000000000000000, -3.491481338843133355E-15 ) ) ;
#685 = AXIS2_PLACEMENT_3D ( 'NONE', #1233, #515, #623 ) ;
#686 = DIRECTION ( 'NONE',  ( -1.000000000000000000, 0.000000000000000000, 0.000000000000000000 ) ) ;
#687 = EDGE_LOOP ( 'NONE', ( #625, #1199, #548, #840 ) ) ;
#688 = ORIENTED_EDGE ( 'NONE', *, *, #1198, .T. ) ;
#689 = DIRECTION ( 'NONE',  ( 0.000000000000000000, 3.614007241618370464E-15, 1.000000000000000000 ) ) ;
#690 = ORIENTED_EDGE ( 'NONE', *, *, #1040, .T. ) ;
#691 = EDGE_CURVE ( 'NONE', #732, #928, #186, .T. ) ;
#692 = PLANE ( 'NONE',  #1225 ) ;
#693 = DIRECTION ( 'NONE',  ( 0.000000000000000000, 2.891205793294679017E-15, 1.000000000000000000 ) ) ;
#694 = ORIENTED_EDGE ( 'NONE', *, *, #281, .T. ) ;
#695 = UNCERTAINTY_MEASURE_WITH_UNIT (LENGTH_MEASURE( 1.000000000000000082E-05 ), #742, 'distance_accuracy_value', 'NONE');
#696 = LINE ( 'NONE', #46, #377 ) ;
#697 = VERTEX_POINT ( 'NONE', #1163 ) ;
#698 = CARTESIAN_POINT ( 'NONE',  ( -21.32500000000010232, -5.398606014881004889, 0.000000000000000000 ) ) ;
#699 = LINE ( 'NONE', #290, #417 ) ;
#700 = ORIENTED_EDGE ( 'NONE', *, *, #1132, .F. ) ;
#701 = APPLICATION_CONTEXT ( 'automotive_design' ) ;
#702 = ORIENTED_EDGE ( 'NONE', *, *, #1254, .T. ) ;
#703 = AXIS2_PLACEMENT_3D ( 'NONE', #627, #97, #524 ) ;
#704 = VECTOR ( 'NONE', #874, 1000.000000000000000 ) ;
#705 = DIRECTION ( 'NONE',  ( 0.000000000000000000, 0.000000000000000000, 1.000000000000000000 ) ) ;
#706 = ADVANCED_FACE ( 'NONE', ( #217 ), #332, .F. ) ;
#707 = AXIS2_PLACEMENT_3D ( 'NONE', #546, #671, #656 ) ;
#708 = CIRCLE ( 'NONE', #237, 8.050000000000000711 ) ;
#709 = DIRECTION ( 'NONE',  ( 0.000000000000000000, 3.548298019043467945E-15, 1.000000000000000000 ) ) ;
#710 = EDGE_CURVE ( 'NONE', #1091, #296, #1052, .T. ) ;
#711 = VERTEX_POINT ( 'NONE', #1089 ) ;
#712 = CARTESIAN_POINT ( 'NONE',  ( -2.918521562633490607, -1.367127577514541503, 0.000000000000000000 ) ) ;
#713 = DIRECTION ( 'NONE',  ( -0.000000000000000000, -0.000000000000000000, 1.000000000000000000 ) ) ;
#714 = EDGE_LOOP ( 'NONE', ( #1192, #437, #907, #19 ) ) ;
#715 = CYLINDRICAL_SURFACE ( 'NONE', #355, 1.199999999999993516 ) ;
#716 = CARTESIAN_POINT ( 'NONE',  ( 3.550000000000047784, -1.367127577514541503, 0.000000000000000000 ) ) ;
#717 = ORIENTED_EDGE ( 'NONE', *, *, #1229, .T. ) ;
#718 = EDGE_CURVE ( 'NONE', #1121, #1097, #888, .T. ) ;
#719 = DIRECTION ( 'NONE',  ( -1.000000000000000000, -7.240584943207542861E-15, 0.000000000000000000 ) ) ;
#720 = EDGE_LOOP ( 'NONE', ( #1322, #1151, #357, #1013 ) ) ;
#721 = CARTESIAN_POINT ( 'NONE',  ( -4.849999999999951683, 2.955656850763491938, -2.000000000000000000 ) ) ;
#722 = CARTESIAN_POINT ( 'NONE',  ( 3.550000000000047784, -3.332866796197772263, 0.000000000000000000 ) ) ;
#723 = ORIENTED_EDGE ( 'NONE', *, *, #1294, .F. ) ;
#724 = ADVANCED_FACE ( 'NONE', ( #1170 ), #465, .F. ) ;
#725 = CARTESIAN_POINT ( 'NONE',  ( -19.14573057502622078, -8.035206014881007164, 1.280825453516236667 ) ) ;
#726 = CARTESIAN_POINT ( 'NONE',  ( 2.657771703686660825, -7.035206014881002723, 2.480825453516233292 ) ) ;
#727 = DIRECTION ( 'NONE',  ( 0.000000000000000000, 3.548298019043467945E-15, 1.000000000000000000 ) ) ;
#728 = VECTOR ( 'NONE', #653, 1000.000000000000000 ) ;
#729 = CARTESIAN_POINT ( 'NONE',  ( -22.99999999999990052, -9.035206014880992953, 5.710149084007141163 ) ) ;
#730 = VECTOR ( 'NONE', #1045, 1000.000000000000000 ) ;
#731 = AXIS2_PLACEMENT_3D ( 'NONE', #943, #850, #3 ) ;
#732 = VERTEX_POINT ( 'NONE', #354 ) ;
#733 = AXIS2_PLACEMENT_3D ( 'NONE', #50, #1205, #286 ) ;
#734 = DIRECTION ( 'NONE',  ( 0.000000000000000000, 2.891205793294709782E-15, 1.000000000000000000 ) ) ;
#735 = DIRECTION ( 'NONE',  ( -0.000000000000000000, 1.000000000000000000, -3.491481338843133355E-15 ) ) ;
#736 = FACE_BOUND ( 'NONE', #583, .T. ) ;
#737 = EDGE_CURVE ( 'NONE', #12, #796, #1074, .T. ) ;
#738 = DIRECTION ( 'NONE',  ( -1.000000000000000000, 0.000000000000000000, 0.000000000000000000 ) ) ;
#739 = ORIENTED_EDGE ( 'NONE', *, *, #38, .T. ) ;
#740 = DIRECTION ( 'NONE',  ( 0.000000000000000000, 0.000000000000000000, -1.000000000000000000 ) ) ;
#741 = DIRECTION ( 'NONE',  ( -1.000000000000000000, 0.000000000000000000, -0.000000000000000000 ) ) ;
#742 =( LENGTH_UNIT ( ) NAMED_UNIT ( * ) SI_UNIT ( .MILLI., .METRE. ) );
#743 = CYLINDRICAL_SURFACE ( 'NONE', #1120, 1.965739218683230538 ) ;
#744 = ORIENTED_EDGE ( 'NONE', *, *, #1319, .T. ) ;
#745 = DIRECTION ( 'NONE',  ( -0.000000000000000000, 1.000000000000000000, -3.491481338843133355E-15 ) ) ;
#746 = PLANE ( 'NONE',  #942 ) ;
#747 = DIRECTION ( 'NONE',  ( -0.000000000000000000, 1.000000000000000000, -3.491481338843133355E-15 ) ) ;
#748 = CARTESIAN_POINT ( 'NONE',  ( -23.00000000000010303, 13.99999999999983302, -2.000000000000000000 ) ) ;
#749 = AXIS2_PLACEMENT_3D ( 'NONE', #89, #411, #620 ) ;
#750 = CIRCLE ( 'NONE', #659, 1.199999999999985745 ) ;
#751 = ORIENTED_EDGE ( 'NONE', *, *, #1282, .F. ) ;
#752 = VECTOR ( 'NONE', #965, 1000.000000000000000 ) ;
#753 = ADVANCED_FACE ( 'NONE', ( #758 ), #778, .F. ) ;
#754 = DIRECTION ( 'NONE',  ( 7.310620363045116288E-15, 3.491481338843133355E-15, 1.000000000000000000 ) ) ;
#755 = AXIS2_PLACEMENT_3D ( 'NONE', #1226, #257, #487 ) ;
#756 = FACE_BOUND ( 'NONE', #1006, .T. ) ;
#757 = CARTESIAN_POINT ( 'NONE',  ( 23.00000000000005684, -6.298606014881002579, 0.7366000000000000325 ) ) ;
#758 = FACE_OUTER_BOUND ( 'NONE', #1298, .T. ) ;
#759 = ORIENTED_EDGE ( 'NONE', *, *, #718, .T. ) ;
#760 = DIRECTION ( 'NONE',  ( 1.000000000000000000, -0.000000000000000000, -0.000000000000000000 ) ) ;
#761 = CYLINDRICAL_SURFACE ( 'NONE', #485, 8.050000000000002487 ) ;
#762 = DIRECTION ( 'NONE',  ( 0.000000000000000000, 0.000000000000000000, -1.000000000000000000 ) ) ;
#763 = CARTESIAN_POINT ( 'NONE',  ( -12.89999999999995062, 2.955656850763491938, -2.000000000000000000 ) ) ;
#764 = EDGE_LOOP ( 'NONE', ( #882, #829, #383, #234 ) ) ;
#765 = EDGE_CURVE ( 'NONE', #676, #88, #361, .T. ) ;
#766 = LINE ( 'NONE', #13, #41 ) ;
#767 = ORIENTED_EDGE ( 'NONE', *, *, #392, .F. ) ;
#768 = CARTESIAN_POINT ( 'NONE',  ( -19.14573057502622078, -7.035206014881001835, 2.480825453516233292 ) ) ;
#769 = ORIENTED_EDGE ( 'NONE', *, *, #672, .F. ) ;
#770 = CARTESIAN_POINT ( 'NONE',  ( -19.14573057502622078, -7.035206014881008052, 1.280825453516240442 ) ) ;
#771 = ORIENTED_EDGE ( 'NONE', *, *, #429, .T. ) ;
#772 = VECTOR ( 'NONE', #162, 1000.000000000000000 ) ;
#773 = DIRECTION ( 'NONE',  ( 0.000000000000000000, 2.891205793294679017E-15, 1.000000000000000000 ) ) ;
#774 = AXIS2_PLACEMENT_3D ( 'NONE', #851, #17, #629 ) ;
#775 = CIRCLE ( 'NONE', #731, 1.965739218683230538 ) ;
#776 = DIRECTION ( 'NONE',  ( 0.000000000000000000, 0.000000000000000000, -1.000000000000000000 ) ) ;
#777 = ORIENTED_EDGE ( 'NONE', *, *, #459, .T. ) ;
#778 = CYLINDRICAL_SURFACE ( 'NONE', #639, 8.050000000000000711 ) ;
#779 = EDGE_CURVE ( 'NONE', #1020, #184, #993, .T. ) ;
#780 = ORIENTED_EDGE ( 'NONE', *, *, #1090, .T. ) ;
#781 = CARTESIAN_POINT ( 'NONE',  ( -19.14573057502622078, -7.035206014881000058, 3.680825453516225920 ) ) ;
#782 = ORIENTED_EDGE ( 'NONE', *, *, #344, .F. ) ;
#783 = DIRECTION ( 'NONE',  ( -0.000000000000000000, 1.000000000000000000, -3.491481338843133355E-15 ) ) ;
#784 = ADVANCED_FACE ( 'NONE', ( #1275 ), #1191, .F. ) ;
#785 = EDGE_LOOP ( 'NONE', ( #996, #1230, #149, #891 ) ) ;
#786 = EDGE_CURVE ( 'NONE', #556, #363, #444, .T. ) ;
#787 = ORIENTED_EDGE ( 'NONE', *, *, #576, .F. ) ;
#788 = ORIENTED_EDGE ( 'NONE', *, *, #679, .T. ) ;
#789 = LINE ( 'NONE', #592, #902 ) ;
#790 = VERTEX_POINT ( 'NONE', #142 ) ;
#791 = EDGE_LOOP ( 'NONE', ( #39, #744, #717, #1108 ) ) ;
#792 = AXIS2_PLACEMENT_3D ( 'NONE', #118, #969, #954 ) ;
#793 = EDGE_CURVE ( 'NONE', #464, #1091, #892, .T. ) ;
#794 = CIRCLE ( 'NONE', #488, 8.050000000000002487 ) ;
#795 = CARTESIAN_POINT ( 'NONE',  ( 3.550000000000047784, -5.298606014881002579, 0.000000000000000000 ) ) ;
#796 = VERTEX_POINT ( 'NONE', #1183 ) ;
#797 = VECTOR ( 'NONE', #137, 1000.000000000000000 ) ;
#798 = CARTESIAN_POINT ( 'NONE',  ( 20.79276119645001586, -7.035206014881001835, 2.480825453516233292 ) ) ;
#799 = AXIS2_PLACEMENT_3D ( 'NONE', #545, #963, #23 ) ;
#800 = CARTESIAN_POINT ( 'NONE',  ( 0.4577717036866602029, -8.035206014881000058, 3.680825453516236134 ) ) ;
#801 = ORIENTED_EDGE ( 'NONE', *, *, #139, .T. ) ;
#802 = CARTESIAN_POINT ( 'NONE',  ( -4.849999999999951683, 2.955656850763491938, -2.000000000000000000 ) ) ;
#803 = ORIENTED_EDGE ( 'NONE', *, *, #1300, .F. ) ;
#804 = LINE ( 'NONE', #1123, #1308 ) ;
#805 = CARTESIAN_POINT ( 'NONE',  ( 20.79276119645001586, -7.035206014881001835, 2.480825453516233292 ) ) ;
#806 = ORIENTED_EDGE ( 'NONE', *, *, #176, .T. ) ;
#807 = ADVANCED_FACE ( 'NONE', ( #1094 ), #984, .F. ) ;
#808 = CARTESIAN_POINT ( 'NONE',  ( 22.99999999999989697, 14.00000000000016698, -2.000000000000000000 ) ) ;
#809 = ORIENTED_EDGE ( 'NONE', *, *, #883, .T. ) ;
#810 = DIRECTION ( 'NONE',  ( -1.000000000000000000, 0.000000000000000000, 0.000000000000000000 ) ) ;
#811 = DIRECTION ( 'NONE',  ( -0.000000000000000000, 1.000000000000000000, -3.491481338843133355E-15 ) ) ;
#812 = ORIENTED_EDGE ( 'NONE', *, *, #579, .F. ) ;
#813 = DIRECTION ( 'NONE',  ( 0.000000000000000000, 2.891205793294712938E-15, 1.000000000000000000 ) ) ;
#814 = APPLICATION_PROTOCOL_DEFINITION ( 'draft international standard', 'automotive_design', 1998, #1146 ) ;
#815 = EDGE_LOOP ( 'NONE', ( #246, #45, #869, #803 ) ) ;
#816 = AXIS2_PLACEMENT_3D ( 'NONE', #1110, #1129, #1317 ) ;
#817 = DIRECTION ( 'NONE',  ( -1.000000000000000000, -0.000000000000000000, 0.000000000000000000 ) ) ;
#818 = CIRCLE ( 'NONE', #258, 2.200000000000000622 ) ;
#819 = AXIS2_PLACEMENT_3D ( 'NONE', #424, #194, #924 ) ;
#820 = DIRECTION ( 'NONE',  ( -1.000000000000000000, -0.000000000000000000, -0.000000000000000000 ) ) ;
#821 = EDGE_CURVE ( 'NONE', #559, #678, #42, .T. ) ;
#822 = ORIENTED_EDGE ( 'NONE', *, *, #849, .F. ) ;
#823 = CYLINDRICAL_SURFACE ( 'NONE', #749, 2.736600000000000144 ) ;
#824 = EDGE_LOOP ( 'NONE', ( #608, #646, #1313, #100 ) ) ;
#825 = CARTESIAN_POINT ( 'NONE',  ( -19.14573057502622078, -7.035206014881001835, 2.480825453516233292 ) ) ;
#826 = DIRECTION ( 'NONE',  ( -0.000000000000000000, -0.000000000000000000, -1.000000000000000000 ) ) ;
#827 = ORIENTED_EDGE ( 'NONE', *, *, #948, .F. ) ;
#828 = DIRECTION ( 'NONE',  ( -1.000000000000000000, 0.000000000000000000, 0.000000000000000000 ) ) ;
#829 = ORIENTED_EDGE ( 'NONE', *, *, #508, .F. ) ;
#830 = DIRECTION ( 'NONE',  ( 0.000000000000000000, 2.891205793294679017E-15, 1.000000000000000000 ) ) ;
#831 = CARTESIAN_POINT ( 'NONE',  ( -20.94999999999994955, 2.955656850763492827, -2.000000000000000000 ) ) ;
#832 = VERTEX_POINT ( 'NONE', #25 ) ;
#833 = LINE ( 'NONE', #518, #918 ) ;
#834 = CARTESIAN_POINT ( 'NONE',  ( 22.99999999999989697, 14.00000000000016698, -2.000000000000000000 ) ) ;
#835 = EDGE_CURVE ( 'NONE', #1270, #1285, #862, .T. ) ;
#836 = DIRECTION ( 'NONE',  ( -0.000000000000000000, 1.000000000000000000, -3.491481338843133355E-15 ) ) ;
#837 = VECTOR ( 'NONE', #318, 1000.000000000000000 ) ;
#838 = DIRECTION ( 'NONE',  ( 0.000000000000000000, 3.548298019043467945E-15, 1.000000000000000000 ) ) ;
#839 = AXIS2_PLACEMENT_3D ( 'NONE', #407, #747, #830 ) ;
#840 = ORIENTED_EDGE ( 'NONE', *, *, #299, .F. ) ;
#841 = CIRCLE ( 'NONE', #799, 1.965739218683230538 ) ;
#842 = CARTESIAN_POINT ( 'NONE',  ( -23.00000000000010303, 13.99999999999983302, -2.000000000000000000 ) ) ;
#843 = FACE_OUTER_BOUND ( 'NONE', #582, .T. ) ;
#844 = FACE_BOUND ( 'NONE', #110, .T. ) ;
#845 = DIRECTION ( 'NONE',  ( -0.000000000000000000, -0.000000000000000000, 1.000000000000000000 ) ) ;
#846 = ORIENTED_EDGE ( 'NONE', *, *, #948, .T. ) ;
#847 = DIRECTION ( 'NONE',  ( 1.000000000000000000, 0.000000000000000000, 0.000000000000000000 ) ) ;
#848 = DIRECTION ( 'NONE',  ( -0.000000000000000000, 0.000000000000000000, 1.000000000000000000 ) ) ;
#849 = EDGE_CURVE ( 'NONE', #356, #1296, #150, .T. ) ;
#850 = DIRECTION ( 'NONE',  ( 0.000000000000000000, 0.000000000000000000, -1.000000000000000000 ) ) ;
#851 = CARTESIAN_POINT ( 'NONE',  ( 0.4577717036866602029, -7.035206014881001835, 2.480825453516233292 ) ) ;
#852 = EDGE_CURVE ( 'NONE', #163, #676, #1280, .T. ) ;
#853 = EDGE_LOOP ( 'NONE', ( #1135, #1193, #249, #1290 ) ) ;
#854 = CARTESIAN_POINT ( 'NONE',  ( -22.99999999999990052, -7.035206014880992953, 5.710149084007134057 ) ) ;
#855 = DIRECTION ( 'NONE',  ( 0.000000000000000000, 3.614007241618370464E-15, 1.000000000000000000 ) ) ;
#856 = DIRECTION ( 'NONE',  ( -1.000000000000000000, 0.000000000000000000, 0.000000000000000000 ) ) ;
#857 = PLANE ( 'NONE',  #190 ) ;
#858 = VECTOR ( 'NONE', #1228, 1000.000000000000000 ) ;
#859 = EDGE_LOOP ( 'NONE', ( #347, #478, #451, #1329 ) ) ;
#860 = AXIS2_PLACEMENT_3D ( 'NONE', #449, #762, #563 ) ;
#861 = DIRECTION ( 'NONE',  ( -0.000000000000000000, 1.000000000000000000, -3.491481338843133355E-15 ) ) ;
#862 = CIRCLE ( 'NONE', #44, 1.199999999999985745 ) ;
#863 = CARTESIAN_POINT ( 'NONE',  ( 22.09999999999989484, -5.398606014881004889, -2.000000000000000000 ) ) ;
#864 = PRODUCT_DEFINITION_SHAPE ( 'NONE', 'NONE',  #65 ) ;
#865 = VECTOR ( 'NONE', #588, 1000.000000000000000 ) ;
#866 = CARTESIAN_POINT ( 'NONE',  ( -2.918521562633490607, -3.332866796197772707, -2.000000000000000000 ) ) ;
#867 = CARTESIAN_POINT ( 'NONE',  ( 20.79276119645001586, -9.035206014881007164, 2.480825453516239953 ) ) ;
#868 = ADVANCED_FACE ( 'NONE', ( #560 ), #35, .F. ) ;
#869 = ORIENTED_EDGE ( 'NONE', *, *, #7, .T. ) ;
#870 = CARTESIAN_POINT ( 'NONE',  ( 3.550000000000047784, -1.367127577514541503, -2.000000000000000000 ) ) ;
#871 = LINE ( 'NONE', #135, #131 ) ;
#872 = DIRECTION ( 'NONE',  ( 1.000000000000000000, 0.000000000000000000, 0.000000000000000000 ) ) ;
#873 = ORIENTED_EDGE ( 'NONE', *, *, #403, .F. ) ;
#874 = DIRECTION ( 'NONE',  ( 8.659560562354929160E-17, 0.7071067811865453523, -0.7071067811865496822 ) ) ;
#875 = CARTESIAN_POINT ( 'NONE',  ( 13.60000000000004761, 3.535456167226438851, -2.000000000000000000 ) ) ;
#876 = EDGE_CURVE ( 'NONE', #711, #12, #789, .T. ) ;
#877 = ORIENTED_EDGE ( 'NONE', *, *, #270, .T. ) ;
#878 = CARTESIAN_POINT ( 'NONE',  ( 22.99999999999989697, 14.00000000000016698, 0.000000000000000000 ) ) ;
#879 = VECTOR ( 'NONE', #204, 1000.000000000000000 ) ;
#880 = ORIENTED_EDGE ( 'NONE', *, *, #419, .F. ) ;
#881 = VECTOR ( 'NONE', #295, 1000.000000000000000 ) ;
#882 = ORIENTED_EDGE ( 'NONE', *, *, #403, .T. ) ;
#883 = EDGE_CURVE ( 'NONE', #1097, #1171, #584, .T. ) ;
#884 = AXIS2_PLACEMENT_3D ( 'NONE', #1114, #1011, #69 ) ;
#885 = CYLINDRICAL_SURFACE ( 'NONE', #887, 1.199999999999993516 ) ;
#886 = ORIENTED_EDGE ( 'NONE', *, *, #609, .T. ) ;
#887 = AXIS2_PLACEMENT_3D ( 'NONE', #1291, #434, #1194 ) ;
#888 = LINE ( 'NONE', #1286, #1031 ) ;
#889 = ORIENTED_EDGE ( 'NONE', *, *, #835, .F. ) ;
#890 = CARTESIAN_POINT ( 'NONE',  ( 5.550000000000042455, 3.535456167226439739, 0.000000000000000000 ) ) ;
#891 = ORIENTED_EDGE ( 'NONE', *, *, #569, .T. ) ;
#892 = LINE ( 'NONE', #338, #661 ) ;
#893 = EDGE_CURVE ( 'NONE', #1016, #163, #1053, .T. ) ;
#894 = ORIENTED_EDGE ( 'NONE', *, *, #221, .T. ) ;
#895 = ORIENTED_EDGE ( 'NONE', *, *, #1260, .F. ) ;
#896 = ORIENTED_EDGE ( 'NONE', *, *, #1227, .F. ) ;
#897 = CARTESIAN_POINT ( 'NONE',  ( 21.32499999999989271, -5.398606014881004889, 0.000000000000000000 ) ) ;
#898 = CARTESIAN_POINT ( 'NONE',  ( -20.94999999999994955, 2.955656850763492827, 0.000000000000000000 ) ) ;
#899 = ORIENTED_EDGE ( 'NONE', *, *, #1227, .T. ) ;
#900 = VECTOR ( 'NONE', #1283, 1000.000000000000000 ) ;
#901 = ORIENTED_EDGE ( 'NONE', *, *, #674, .T. ) ;
#902 = VECTOR ( 'NONE', #393, 1000.000000000000000 ) ;
#903 = DIRECTION ( 'NONE',  ( 0.000000000000000000, -0.000000000000000000, -1.000000000000000000 ) ) ;
#904 = DIRECTION ( 'NONE',  ( 1.000000000000000000, 0.000000000000000000, 0.000000000000000000 ) ) ;
#905 = EDGE_CURVE ( 'NONE', #1046, #453, #708, .T. ) ;
#906 = ORIENTED_EDGE ( 'NONE', *, *, #793, .F. ) ;
#907 = ORIENTED_EDGE ( 'NONE', *, *, #650, .T. ) ;
#908 = DIRECTION ( 'NONE',  ( 0.000000000000000000, 2.891205793294709782E-15, 1.000000000000000000 ) ) ;
#909 = CARTESIAN_POINT ( 'NONE',  ( -22.99999999999995381, -6.298606014881016790, 0.000000000000000000 ) ) ;
#910 = ORIENTED_EDGE ( 'NONE', *, *, #1014, .F. ) ;
#911 = LINE ( 'NONE', #389, #900 ) ;
#912 = CARTESIAN_POINT ( 'NONE',  ( 20.79276119645001586, -9.035206014881010717, 1.280825453516254209 ) ) ;
#913 = ORIENTED_EDGE ( 'NONE', *, *, #473, .F. ) ;
#914 = ADVANCED_FACE ( 'NONE', ( #1218 ), #598, .F. ) ;
#915 = CARTESIAN_POINT ( 'NONE',  ( -2.918521562633490607, -3.332866796197772707, 0.000000000000000000 ) ) ;
#916 = CARTESIAN_POINT ( 'NONE',  ( -22.87500000000010303, -5.398606014881004889, 0.000000000000000000 ) ) ;
#917 = ORIENTED_EDGE ( 'NONE', *, *, #612, .T. ) ;
#918 = VECTOR ( 'NONE', #1231, 1000.000000000000000 ) ;
#919 = DIRECTION ( 'NONE',  ( 7.310620363045116288E-15, -1.000000000000000000, 0.000000000000000000 ) ) ;
#920 = ORIENTED_EDGE ( 'NONE', *, *, #176, .F. ) ;
#921 = AXIS2_PLACEMENT_3D ( 'NONE', #428, #124, #440 ) ;
#922 = ADVANCED_FACE ( 'NONE', ( #266 ), #166, .F. ) ;
#923 = AXIS2_PLACEMENT_3D ( 'NONE', #74, #1312, #1208 ) ;
#924 = DIRECTION ( 'NONE',  ( 7.310620363045116288E-15, 3.491481338843133355E-15, 1.000000000000000000 ) ) ;
#925 = VECTOR ( 'NONE', #99, 1000.000000000000000 ) ;
#926 = CIRCLE ( 'NONE', #884, 2.200000000000000622 ) ;
#927 = DIRECTION ( 'NONE',  ( -0.000000000000000000, 1.000000000000000000, -3.491481338843133355E-15 ) ) ;
#928 = VERTEX_POINT ( 'NONE', #580 ) ;
#929 = CYLINDRICAL_SURFACE ( 'NONE', #323, 0.7750000000000013545 ) ;
#930 = EDGE_LOOP ( 'NONE', ( #49, #77 ) ) ;
#931 = DIRECTION ( 'NONE',  ( 0.000000000000000000, 0.7071067811865502373, 0.7071067811865447972 ) ) ;
#932 = DIRECTION ( 'NONE',  ( 1.000000000000000000, -2.528036721151771249E-29, -7.240584943207544438E-15 ) ) ;
#933 = ADVANCED_FACE ( 'NONE', ( #173, #58, #479, #1103 ), #692, .T. ) ;
#934 = ORIENTED_EDGE ( 'NONE', *, *, #1033, .F. ) ;
#935 = DIRECTION ( 'NONE',  ( 1.000000000000000000, 0.000000000000000000, 0.000000000000000000 ) ) ;
#936 = DIRECTION ( 'NONE',  ( 0.000000000000000000, 0.000000000000000000, -1.000000000000000000 ) ) ;
#937 = DIRECTION ( 'NONE',  ( 0.000000000000000000, 3.548298019043467945E-15, 1.000000000000000000 ) ) ;
#938 = DIRECTION ( 'NONE',  ( -0.000000000000000000, 1.000000000000000000, -3.491481338843133355E-15 ) ) ;
#939 = EDGE_LOOP ( 'NONE', ( #1209, #694, #287, #275 ) ) ;
#940 = DIRECTION ( 'NONE',  ( 0.000000000000000000, 1.000000000000000000, -3.491481338843133355E-15 ) ) ;
#941 = LINE ( 'NONE', #834, #1344 ) ;
#942 = AXIS2_PLACEMENT_3D ( 'NONE', #532, #936, #741 ) ;
#943 = CARTESIAN_POINT ( 'NONE',  ( -2.918521562633490607, -3.332866796197772707, -2.000000000000000000 ) ) ;
#944 = AXIS2_PLACEMENT_3D ( 'NONE', #1320, #603, #734 ) ;
#945 = DIRECTION ( 'NONE',  ( 0.000000000000000000, 3.614007241618370464E-15, 1.000000000000000000 ) ) ;
#946 = AXIS2_PLACEMENT_3D ( 'NONE', #662, #669, #856 ) ;
#947 = ORIENTED_EDGE ( 'NONE', *, *, #852, .F. ) ;
#948 = EDGE_CURVE ( 'NONE', #1296, #356, #642, .T. ) ;
#949 =( GEOMETRIC_REPRESENTATION_CONTEXT ( 3 ) GLOBAL_UNCERTAINTY_ASSIGNED_CONTEXT ( ( #1188 ) ) GLOBAL_UNIT_ASSIGNED_CONTEXT ( ( #1314, #1001, #577 ) ) REPRESENTATION_CONTEXT ( 'NONE', 'WORKASPACE' ) );
#950 = FACE_OUTER_BOUND ( 'NONE', #511, .T. ) ;
#951 = CARTESIAN_POINT ( 'NONE',  ( 0.000000000000000000, -7.035206014881009828, 0.7366000000000073600 ) ) ;
#952 = CARTESIAN_POINT ( 'NONE',  ( 20.79276119645001586, -7.035206014881001835, 2.480825453516233292 ) ) ;
#953 = ORIENTED_EDGE ( 'NONE', *, *, #883, .F. ) ;
#954 = DIRECTION ( 'NONE',  ( 1.000000000000000000, 0.000000000000000000, 0.000000000000000000 ) ) ;
#955 = CARTESIAN_POINT ( 'NONE',  ( 21.65000000000005187, 3.535456167226438851, -2.000000000000000000 ) ) ;
#956 = EDGE_CURVE ( 'NONE', #570, #198, #73, .T. ) ;
#957 = FACE_OUTER_BOUND ( 'NONE', #494, .T. ) ;
#958 = EDGE_CURVE ( 'NONE', #317, #282, #804, .T. ) ;
#959 = CARTESIAN_POINT ( 'NONE',  ( 21.65000000000005187, 3.535456167226438851, -2.000000000000000000 ) ) ;
#960 = EDGE_LOOP ( 'NONE', ( #1079, #134 ) ) ;
#961 = CARTESIAN_POINT ( 'NONE',  ( 21.65000000000005187, 3.535456167226438851, 0.000000000000000000 ) ) ;
#962 = DIRECTION ( 'NONE',  ( -1.000000000000000000, 0.000000000000000000, 0.000000000000000000 ) ) ;
#963 = DIRECTION ( 'NONE',  ( 0.000000000000000000, 0.000000000000000000, -1.000000000000000000 ) ) ;
#964 = EDGE_CURVE ( 'NONE', #566, #1097, #4, .T. ) ;
#965 = DIRECTION ( 'NONE',  ( -5.104978914587728121E-29, -1.000000000000000000, -3.491481338843134144E-15 ) ) ;
#966 = CIRCLE ( 'NONE', #462, 2.200000000000000622 ) ;
#967 = EDGE_LOOP ( 'NONE', ( #1088, #536, #471, #169 ) ) ;
#968 = CONICAL_SURFACE ( 'NONE', #64, 2.200000000000000622, 0.7853981633974479459 ) ;
#969 = DIRECTION ( 'NONE',  ( -0.000000000000000000, -0.000000000000000000, 1.000000000000000000 ) ) ;
#970 = ORIENTED_EDGE ( 'NONE', *, *, #313, .T. ) ;
#971 = DIRECTION ( 'NONE',  ( 1.000000000000000000, 0.000000000000000000, 0.000000000000000000 ) ) ;
#972 = CARTESIAN_POINT ( 'NONE',  ( 13.60000000000004761, 3.535456167226438851, 0.000000000000000000 ) ) ;
#973 = ORIENTED_EDGE ( 'NONE', *, *, #561, .F. ) ;
#974 = EDGE_CURVE ( 'NONE', #363, #1216, #108, .T. ) ;
#975 = CARTESIAN_POINT ( 'NONE',  ( 23.00000000000009237, -9.035206014880992953, 5.710149084006808096 ) ) ;
#976 = CARTESIAN_POINT ( 'NONE',  ( 0.000000000000000000, -6.298606014881002579, -2.000000000000000000 ) ) ;
#977 = ORIENTED_EDGE ( 'NONE', *, *, #1319, .F. ) ;
#978 = CARTESIAN_POINT ( 'NONE',  ( 0.4577717036866604805, -7.035206014881009828, 0.2808254535162325594 ) ) ;
#979 = ORIENTED_EDGE ( 'NONE', *, *, #1021, .T. ) ;
#980 = ADVANCED_FACE ( 'NONE', ( #288 ), #715, .F. ) ;
#981 = DIRECTION ( 'NONE',  ( 0.000000000000000000, 0.000000000000000000, 1.000000000000000000 ) ) ;
#982 = ORIENTED_EDGE ( 'NONE', *, *, #609, .F. ) ;
#983 = PRODUCT_RELATED_PRODUCT_CATEGORY ( 'part', '', ( #1066 ) ) ;
#984 = CYLINDRICAL_SURFACE ( 'NONE', #510, 0.7750000000000013545 ) ;
#985 = VERTEX_POINT ( 'NONE', #507 ) ;
#986 = AXIS2_PLACEMENT_3D ( 'NONE', #1272, #112, #686 ) ;
#987 = ORIENTED_EDGE ( 'NONE', *, *, #964, .T. ) ;
#988 = PRESENTATION_LAYER_ASSIGNMENT (  '', '', ( #215 ) ) ;
#989 = CARTESIAN_POINT ( 'NONE',  ( 0.4577717036866602029, -8.035206014881003611, 2.480825453516236401 ) ) ;
#990 = ORIENTED_EDGE ( 'NONE', *, *, #964, .F. ) ;
#991 = PRODUCT_DEFINITION_FORMATION_WITH_SPECIFIED_SOURCE ( 'ANY', '', #1066, .NOT_KNOWN. ) ;
#992 = EDGE_CURVE ( 'NONE', #559, #1035, #997, .T. ) ;
#993 = LINE ( 'NONE', #770, #128 ) ;
#994 = EDGE_LOOP ( 'NONE', ( #482, #72 ) ) ;
#995 = DIRECTION ( 'NONE',  ( -0.000000000000000000, 1.000000000000000000, -3.491481338843133355E-15 ) ) ;
#996 = ORIENTED_EDGE ( 'NONE', *, *, #1198, .F. ) ;
#997 = LINE ( 'NONE', #897, #422 ) ;
#998 = LINE ( 'NONE', #60, #212 ) ;
#999 = EDGE_LOOP ( 'NONE', ( #1113, #751, #787, #1200 ) ) ;
#1000 = EDGE_CURVE ( 'NONE', #484, #165, #1299, .T. ) ;
#1001 =( NAMED_UNIT ( * ) PLANE_ANGLE_UNIT ( ) SI_UNIT ( $, .RADIAN. ) );
#1002 = ORIENTED_EDGE ( 'NONE', *, *, #905, .F. ) ;
#1003 = DIRECTION ( 'NONE',  ( -0.000000000000000000, 1.000000000000000000, -3.491481338843133355E-15 ) ) ;
#1004 = EDGE_CURVE ( 'NONE', #1318, #1121, #926, .T. ) ;
#1005 = FACE_OUTER_BOUND ( 'NONE', #604, .T. ) ;
#1006 = EDGE_LOOP ( 'NONE', ( #1204, #178 ) ) ;
#1007 = VECTOR ( 'NONE', #530, 1000.000000000000000 ) ;
#1008 = VECTOR ( 'NONE', #1239, 1000.000000000000000 ) ;
#1009 = DIRECTION ( 'NONE',  ( -0.000000000000000000, 1.000000000000000000, -3.491481338843133355E-15 ) ) ;
#1010 = VERTEX_POINT ( 'NONE', #495 ) ;
#1011 = DIRECTION ( 'NONE',  ( -0.000000000000000000, 1.000000000000000000, -3.491481338843133355E-15 ) ) ;
#1012 = CARTESIAN_POINT ( 'NONE',  ( 21.32499999999989271, -5.398606014881004889, 0.000000000000000000 ) ) ;
#1013 = ORIENTED_EDGE ( 'NONE', *, *, #508, .T. ) ;
#1014 = EDGE_CURVE ( 'NONE', #697, #282, #775, .T. ) ;
#1015 = DIRECTION ( 'NONE',  ( 0.000000000000000000, 0.000000000000000000, 1.000000000000000000 ) ) ;
#1016 = VERTEX_POINT ( 'NONE', #1154 ) ;
#1017 = DIRECTION ( 'NONE',  ( -0.000000000000000000, -0.000000000000000000, -1.000000000000000000 ) ) ;
#1018 = DIRECTION ( 'NONE',  ( 1.000000000000000000, 0.000000000000000000, 0.000000000000000000 ) ) ;
#1019 = EDGE_CURVE ( 'NONE', #1010, #146, #1149, .T. ) ;
#1020 = VERTEX_POINT ( 'NONE', #214 ) ;
#1021 = EDGE_CURVE ( 'NONE', #832, #153, #1187, .T. ) ;
#1022 = ADVANCED_FACE ( 'NONE', ( #1140 ), #1059, .T. ) ;
#1023 = CARTESIAN_POINT ( 'NONE',  ( -22.99999999999992895, -6.298606014881002579, 0.7366000000000000325 ) ) ;
#1024 = CARTESIAN_POINT ( 'NONE',  ( -12.89999999999995062, 2.955656850763491938, 0.000000000000000000 ) ) ;
#1025 = CARTESIAN_POINT ( 'NONE',  ( 0.4577717036866602029, -7.035206014881003611, 2.480825453516233292 ) ) ;
#1026 = CARTESIAN_POINT ( 'NONE',  ( 46.12419254365899235, -6.298606014881002579, 0.7366000000000000325 ) ) ;
#1027 = ORIENTED_EDGE ( 'NONE', *, *, #78, .T. ) ;
#1028 = DIRECTION ( 'NONE',  ( -1.000000000000000000, -7.310620363045116288E-15, 0.000000000000000000 ) ) ;
#1029 = CARTESIAN_POINT ( 'NONE',  ( -22.10000000000010090, -5.398606014881004889, -2.000000000000000000 ) ) ;
#1030 = VECTOR ( 'NONE', #538, 1000.000000000000000 ) ;
#1031 = VECTOR ( 'NONE', #243, 1000.000000000000000 ) ;
#1032 = AXIS2_PLACEMENT_3D ( 'NONE', #52, #381, #903 ) ;
#1033 = EDGE_CURVE ( 'NONE', #1020, #589, #398, .T. ) ;
#1034 = CARTESIAN_POINT ( 'NONE',  ( 13.60000000000004761, 3.535456167226438851, -2.000000000000000000 ) ) ;
#1035 = VERTEX_POINT ( 'NONE', #1050 ) ;
#1036 = CARTESIAN_POINT ( 'NONE',  ( 3.550000000000047784, -1.367127577514541503, 0.000000000000000000 ) ) ;
#1037 = ORIENTED_EDGE ( 'NONE', *, *, #281, .F. ) ;
#1038 = FACE_OUTER_BOUND ( 'NONE', #345, .T. ) ;
#1039 = DIRECTION ( 'NONE',  ( -0.000000000000000000, 1.000000000000000000, -3.491481338843133355E-15 ) ) ;
#1040 = EDGE_CURVE ( 'NONE', #985, #566, #294, .T. ) ;
#1041 = EDGE_LOOP ( 'NONE', ( #138, #895, #899, #159 ) ) ;
#1042 = CARTESIAN_POINT ( 'NONE',  ( 3.550000000000047784, -5.298606014881002579, 0.000000000000000000 ) ) ;
#1043 = FACE_BOUND ( 'NONE', #960, .T. ) ;
#1044 = CARTESIAN_POINT ( 'NONE',  ( -19.14573057502622078, -9.035206014881007164, 2.480825453516239953 ) ) ;
#1045 = DIRECTION ( 'NONE',  ( 0.000000000000000000, 0.000000000000000000, 1.000000000000000000 ) ) ;
#1046 = VERTEX_POINT ( 'NONE', #721 ) ;
#1047 = DIRECTION ( 'NONE',  ( 0.000000000000000000, 0.000000000000000000, -1.000000000000000000 ) ) ;
#1048 = FACE_BOUND ( 'NONE', #930, .T. ) ;
#1049 = AXIS2_PLACEMENT_3D ( 'NONE', #1126, #1244, #297 ) ;
#1050 = CARTESIAN_POINT ( 'NONE',  ( 21.32499999999989271, -5.398606014881004889, -2.000000000000000000 ) ) ;
#1051 = DIRECTION ( 'NONE',  ( -1.000000000000000000, 0.000000000000000000, 0.000000000000000000 ) ) ;
#1052 = CIRCLE ( 'NONE', #571, 2.200000000000000622 ) ;
#1053 = CIRCLE ( 'NONE', #467, 1.199999999999987077 ) ;
#1054 = EDGE_LOOP ( 'NONE', ( #1220, #272, #575, #445 ) ) ;
#1055 = VECTOR ( 'NONE', #713, 1000.000000000000000 ) ;
#1056 = FACE_OUTER_BOUND ( 'NONE', #824, .T. ) ;
#1057 = CARTESIAN_POINT ( 'NONE',  ( 3.550000000000047784, -5.298606014881002579, -2.000000000000000000 ) ) ;
#1058 = ADVANCED_FACE ( 'NONE', ( #634 ), #644, .T. ) ;
#1059 = PLANE ( 'NONE',  #685 ) ;
#1060 = DIRECTION ( 'NONE',  ( 0.000000000000000000, 3.548298019043467945E-15, 1.000000000000000000 ) ) ;
#1061 = ORIENTED_EDGE ( 'NONE', *, *, #1309, .T. ) ;
#1062 = ADVANCED_FACE ( 'NONE', ( #1038 ), #442, .F. ) ;
#1063 = DIRECTION ( 'NONE',  ( 0.000000000000000000, 0.000000000000000000, -1.000000000000000000 ) ) ;
#1064 = CARTESIAN_POINT ( 'NONE',  ( 0.000000000000000000, -7.035206014881009828, 0.7366000000000073600 ) ) ;
#1065 = DIRECTION ( 'NONE',  ( 0.000000000000000000, 0.000000000000000000, -1.000000000000000000 ) ) ;
#1066 = PRODUCT ( 'ultrasonic sensor cap', 'ultrasonic sensor cap', '', ( #390 ) ) ;
#1067 = DIRECTION ( 'NONE',  ( -0.000000000000000000, 1.000000000000000000, -3.491481338843133355E-15 ) ) ;
#1068 = ORIENTED_EDGE ( 'NONE', *, *, #362, .T. ) ;
#1069 = CARTESIAN_POINT ( 'NONE',  ( -19.14573057502622078, -7.035206014881009828, 0.2808254535162325594 ) ) ;
#1070 = LINE ( 'NONE', #104, #416 ) ;
#1071 = FACE_OUTER_BOUND ( 'NONE', #853, .T. ) ;
#1072 = CLOSED_SHELL ( 'NONE', ( #922, #207, #1279, #115, #784, #1213, #1271, #1062, #980, #724, #706, #1058, #1022, #933, #630, #144, #182, #94, #161, #1116, #304, #127, #547, #244, #492, #1212, #92, #480, #18, #1243, #1077, #1156, #637, #435, #753, #341, #807, #2, #640, #868, #601, #914 ) ) ;
#1073 = VECTOR ( 'NONE', #83, 1000.000000000000000 ) ;
#1074 = LINE ( 'NONE', #878, #1139 ) ;
#1075 = MANIFOLD_SOLID_BREP ( 'Cut-Extrude4', #1072 ) ;
#1076 = CONICAL_SURFACE ( 'NONE', #591, 2.200000000000000622, 0.7853981633974479459 ) ;
#1077 = ADVANCED_FACE ( 'NONE', ( #1259 ), #968, .F. ) ;
#1078 = CIRCLE ( 'NONE', #1267, 2.200000000000000622 ) ;
#1079 = ORIENTED_EDGE ( 'NONE', *, *, #605, .T. ) ;
#1080 = AXIS2_PLACEMENT_3D ( 'NONE', #972, #450, #872 ) ;
#1081 = CARTESIAN_POINT ( 'NONE',  ( 20.79276119645001586, -9.035206014881007164, 2.480825453516239953 ) ) ;
#1082 = ORIENTED_EDGE ( 'NONE', *, *, #101, .T. ) ;
#1083 = LINE ( 'NONE', #976, #330 ) ;
#1084 = ORIENTED_EDGE ( 'NONE', *, *, #269, .T. ) ;
#1085 = CARTESIAN_POINT ( 'NONE',  ( 0.4577717036866603695, -7.035206014881008052, 1.280825453516239776 ) ) ;
#1086 = EDGE_LOOP ( 'NONE', ( #1186, #265, #982, #352, #542, #57, #970, #953, #990, #370, #1235, #263, #276 ) ) ;
#1087 = CARTESIAN_POINT ( 'NONE',  ( -2.918521562633490163, -5.298606014881003468, 0.000000000000000000 ) ) ;
#1088 = ORIENTED_EDGE ( 'NONE', *, *, #1148, .F. ) ;
#1089 = CARTESIAN_POINT ( 'NONE',  ( 23.00000000000003908, -6.298606014881002579, -2.000000000000000000 ) ) ;
#1090 = EDGE_CURVE ( 'NONE', #184, #1010, #1099, .T. ) ;
#1091 = VERTEX_POINT ( 'NONE', #1331 ) ;
#1092 = DIRECTION ( 'NONE',  ( 0.000000000000000000, 3.491481338843133355E-15, 1.000000000000000000 ) ) ;
#1093 = ORIENTED_EDGE ( 'NONE', *, *, #1300, .T. ) ;
#1094 = FACE_OUTER_BOUND ( 'NONE', #714, .T. ) ;
#1095 = CIRCLE ( 'NONE', #506, 1.199999999999985745 ) ;
#1096 = VECTOR ( 'NONE', #754, 1000.000000000000000 ) ;
#1097 = VERTEX_POINT ( 'NONE', #308 ) ;
#1098 = CIRCLE ( 'NONE', #105, 1.199999999999999734 ) ;
#1099 = CIRCLE ( 'NONE', #839, 1.199999999999999734 ) ;
#1100 = DIRECTION ( 'NONE',  ( -1.000000000000000000, 0.000000000000000000, 0.000000000000000000 ) ) ;
#1101 = EDGE_LOOP ( 'NONE', ( #777, #203, #595, #1106 ) ) ;
#1102 = VECTOR ( 'NONE', #379, 1000.000000000000000 ) ;
#1103 = FACE_OUTER_BOUND ( 'NONE', #369, .T. ) ;
#1104 = CARTESIAN_POINT ( 'NONE',  ( -2.918521562633490607, -1.367127577514541503, 0.000000000000000000 ) ) ;
#1105 = VERTEX_POINT ( 'NONE', #1238 ) ;
#1106 = ORIENTED_EDGE ( 'NONE', *, *, #876, .T. ) ;
#1107 = CARTESIAN_POINT ( 'NONE',  ( 3.550000000000047784, -1.367127577514541503, -2.000000000000000000 ) ) ;
#1108 = ORIENTED_EDGE ( 'NONE', *, *, #992, .F. ) ;
#1109 = DIRECTION ( 'NONE',  ( 1.000000000000000000, -0.000000000000000000, -0.000000000000000000 ) ) ;
#1110 = CARTESIAN_POINT ( 'NONE',  ( -12.89999999999995062, 2.955656850763491938, 0.000000000000000000 ) ) ;
#1111 = ORIENTED_EDGE ( 'NONE', *, *, #779, .T. ) ;
#1112 = DIRECTION ( 'NONE',  ( 7.310620363045116288E-15, -1.000000000000000000, 0.000000000000000000 ) ) ;
#1113 = ORIENTED_EDGE ( 'NONE', *, *, #1164, .F. ) ;
#1114 = CARTESIAN_POINT ( 'NONE',  ( 20.79276119645001586, -7.035206014881001835, 2.480825453516233292 ) ) ;
#1115 = CARTESIAN_POINT ( 'NONE',  ( -2.918521562633490163, -5.298606014881002579, 0.000000000000000000 ) ) ;
#1116 = ADVANCED_FACE ( 'NONE', ( #1161, #736, #844, #558, #337, #1071 ), #1284, .F. ) ;
#1117 = AXIS2_PLACEMENT_3D ( 'NONE', #226, #633, #848 ) ;
#1118 = ORIENTED_EDGE ( 'NONE', *, *, #821, .T. ) ;
#1119 = VECTOR ( 'NONE', #847, 1000.000000000000000 ) ;
#1120 = AXIS2_PLACEMENT_3D ( 'NONE', #645, #1155, #1051 ) ;
#1121 = VERTEX_POINT ( 'NONE', #126 ) ;
#1122 = AXIS2_PLACEMENT_3D ( 'NONE', #915, #1201, #810 ) ;
#1123 = CARTESIAN_POINT ( 'NONE',  ( -4.884260781316720923, -3.332866796197772707, 0.000000000000000000 ) ) ;
#1124 = LINE ( 'NONE', #174, #256 ) ;
#1125 = EDGE_LOOP ( 'NONE', ( #218, #500, #602 ) ) ;
#1126 = CARTESIAN_POINT ( 'NONE',  ( 3.550000000000047784, -3.332866796197772263, -2.000000000000000000 ) ) ;
#1127 = ORIENTED_EDGE ( 'NONE', *, *, #793, .T. ) ;
#1128 = CARTESIAN_POINT ( 'NONE',  ( 0.000000000000000000, -7.035206014881009828, 0.7366000000000073600 ) ) ;
#1129 = DIRECTION ( 'NONE',  ( 0.000000000000000000, 0.000000000000000000, 1.000000000000000000 ) ) ;
#1130 = EDGE_LOOP ( 'NONE', ( #934, #1111, #780, #700 ) ) ;
#1131 = PLANE ( 'NONE',  #394 ) ;
#1132 = EDGE_CURVE ( 'NONE', #589, #1010, #227, .T. ) ;
#1133 = FILL_AREA_STYLE_COLOUR ( '', #283 ) ;
#1134 = CARTESIAN_POINT ( 'NONE',  ( 22.87499999999989697, -5.398606014881004889, 0.000000000000000000 ) ) ;
#1135 = ORIENTED_EDGE ( 'NONE', *, *, #667, .T. ) ;
#1136 = FACE_OUTER_BOUND ( 'NONE', #791, .T. ) ;
#1137 = VERTEX_POINT ( 'NONE', #120 ) ;
#1138 = CIRCLE ( 'NONE', #1326, 1.199999999999999734 ) ;
#1139 = VECTOR ( 'NONE', #48, 1000.000000000000000 ) ;
#1140 = FACE_OUTER_BOUND ( 'NONE', #859, .T. ) ;
#1141 = AXIS2_PLACEMENT_3D ( 'NONE', #107, #98, #727 ) ;
#1142 = AXIS2_PLACEMENT_3D ( 'NONE', #1169, #776, #140 ) ;
#1143 = LINE ( 'NONE', #197, #420 ) ;
#1144 = ORIENTED_EDGE ( 'NONE', *, *, #139, .F. ) ;
#1145 = DIRECTION ( 'NONE',  ( 1.000000000000000000, 0.000000000000000000, 0.000000000000000000 ) ) ;
#1146 = APPLICATION_CONTEXT ( 'automotive_design' ) ;
#1147 = CARTESIAN_POINT ( 'NONE',  ( -19.14573057502622078, -7.035206014880994729, 4.680825453516233914 ) ) ;
#1148 = EDGE_CURVE ( 'NONE', #317, #570, #170, .T. ) ;
#1149 = LINE ( 'NONE', #628, #1247 ) ;
#1150 = CARTESIAN_POINT ( 'NONE',  ( -19.14573057502622078, -7.035206014881001835, 2.480825453516233292 ) ) ;
#1151 = ORIENTED_EDGE ( 'NONE', *, *, #1337, .F. ) ;
#1152 = CARTESIAN_POINT ( 'NONE',  ( -20.48650556260098199, -7.035206014881008052, 0.7366000000000025860 ) ) ;
#1153 = FACE_OUTER_BOUND ( 'NONE', #384, .T. ) ;
#1154 = CARTESIAN_POINT ( 'NONE',  ( 0.4577717036866602029, -9.035206014881003611, 3.680825453516227252 ) ) ;
#1155 = DIRECTION ( 'NONE',  ( -0.000000000000000000, -0.000000000000000000, -1.000000000000000000 ) ) ;
#1156 = ADVANCED_FACE ( 'NONE', ( #1189 ), #553, .F. ) ;
#1157 = ORIENTED_EDGE ( 'NONE', *, *, #1261, .F. ) ;
#1158 = CYLINDRICAL_SURFACE ( 'NONE', #792, 8.050000000000002487 ) ;
#1159 = CYLINDRICAL_SURFACE ( 'NONE', #590, 1.199999999999992628 ) ;
#1160 = VECTOR ( 'NONE', #654, 1000.000000000000000 ) ;
#1161 = FACE_BOUND ( 'NONE', #368, .T. ) ;
#1162 = VECTOR ( 'NONE', #940, 1000.000000000000000 ) ;
#1163 = CARTESIAN_POINT ( 'NONE',  ( -2.918521562633490163, -5.298606014881003468, -2.000000000000000000 ) ) ;
#1164 = EDGE_CURVE ( 'NONE', #1216, #711, #1083, .T. ) ;
#1165 = VERTEX_POINT ( 'NONE', #1274 ) ;
#1166 = VECTOR ( 'NONE', #1112, 1000.000000000000000 ) ;
#1167 = LINE ( 'NONE', #1069, #704 ) ;
#1168 = DIRECTION ( 'NONE',  ( 0.000000000000000000, 0.000000000000000000, -1.000000000000000000 ) ) ;
#1169 = CARTESIAN_POINT ( 'NONE',  ( 22.09999999999989484, -5.398606014881004889, -2.000000000000000000 ) ) ;
#1170 = FACE_OUTER_BOUND ( 'NONE', #517, .T. ) ;
#1171 = VERTEX_POINT ( 'NONE', #540 ) ;
#1172 = CARTESIAN_POINT ( 'NONE',  ( -4.884260781316720923, -3.332866796197772707, 0.000000000000000000 ) ) ;
#1173 = CARTESIAN_POINT ( 'NONE',  ( -19.14573057502622078, -7.035206014881001835, 2.480825453516233292 ) ) ;
#1174 = DIRECTION ( 'NONE',  ( -0.000000000000000000, 1.000000000000000000, -3.491481338843133355E-15 ) ) ;
#1175 = EDGE_CURVE ( 'NONE', #1165, #985, #512, .T. ) ;
#1176 = DIRECTION ( 'NONE',  ( 0.000000000000000000, 3.548298019043467945E-15, 1.000000000000000000 ) ) ;
#1177 = ORIENTED_EDGE ( 'NONE', *, *, #765, .T. ) ;
#1178 = DIRECTION ( 'NONE',  ( 0.000000000000000000, 2.891205793294712938E-15, 1.000000000000000000 ) ) ;
#1179 = DIRECTION ( 'NONE',  ( -0.000000000000000000, 1.000000000000000000, -3.491481338843133355E-15 ) ) ;
#1180 = EDGE_LOOP ( 'NONE', ( #460, #702, #431, #378 ) ) ;
#1181 = AXIS2_PLACEMENT_3D ( 'NONE', #1029, #1310, #406 ) ;
#1182 = VECTOR ( 'NONE', #292, 1000.000000000000000 ) ;
#1183 = CARTESIAN_POINT ( 'NONE',  ( 22.99999999999989697, 14.00000000000016698, 0.000000000000000000 ) ) ;
#1184 = AXIS2_PLACEMENT_3D ( 'NONE', #607, #395, #489 ) ;
#1185 = CIRCLE ( 'NONE', #774, 2.200000000000000622 ) ;
#1186 = ORIENTED_EDGE ( 'NONE', *, *, #520, .F. ) ;
#1187 = CIRCLE ( 'NONE', #86, 2.200000000000000622 ) ;
#1188 = UNCERTAINTY_MEASURE_WITH_UNIT (LENGTH_MEASURE( 1.000000000000000082E-05 ), #1314, 'distance_accuracy_value', 'NONE');
#1189 = FACE_OUTER_BOUND ( 'NONE', #1125, .T. ) ;
#1190 = ORIENTED_EDGE ( 'NONE', *, *, #238, .F. ) ;
#1191 = CYLINDRICAL_SURFACE ( 'NONE', #373, 8.050000000000000711 ) ;
#1192 = ORIENTED_EDGE ( 'NONE', *, *, #1000, .F. ) ;
#1193 = ORIENTED_EDGE ( 'NONE', *, *, #579, .T. ) ;
#1194 = DIRECTION ( 'NONE',  ( 0.000000000000000000, 3.614007241618367309E-15, 1.000000000000000000 ) ) ;
#1195 = ORIENTED_EDGE ( 'NONE', *, *, #821, .F. ) ;
#1196 = DIRECTION ( 'NONE',  ( -0.000000000000000000, -0.000000000000000000, -1.000000000000000000 ) ) ;
#1197 = ORIENTED_EDGE ( 'NONE', *, *, #196, .T. ) ;
#1198 = EDGE_CURVE ( 'NONE', #1270, #1165, #871, .T. ) ;
#1199 = ORIENTED_EDGE ( 'NONE', *, *, #852, .T. ) ;
#1200 = ORIENTED_EDGE ( 'NONE', *, *, #474, .F. ) ;
#1201 = DIRECTION ( 'NONE',  ( -0.000000000000000000, -0.000000000000000000, -1.000000000000000000 ) ) ;
#1202 = CARTESIAN_POINT ( 'NONE',  ( 0.000000000000000000, -7.035206014881009828, 0.7366000000000073600 ) ) ;
#1203 = ORIENTED_EDGE ( 'NONE', *, *, #691, .T. ) ;
#1204 = ORIENTED_EDGE ( 'NONE', *, *, #905, .T. ) ;
#1205 = DIRECTION ( 'NONE',  ( -0.000000000000000000, -0.000000000000000000, -1.000000000000000000 ) ) ;
#1206 = ORIENTED_EDGE ( 'NONE', *, *, #537, .F. ) ;
#1207 = DIRECTION ( 'NONE',  ( 1.000000000000000000, 0.000000000000000000, 0.000000000000000000 ) ) ;
#1208 = DIRECTION ( 'NONE',  ( 0.000000000000000000, 0.000000000000000000, 1.000000000000000000 ) ) ;
#1209 = ORIENTED_EDGE ( 'NONE', *, *, #786, .F. ) ;
#1210 = CARTESIAN_POINT ( 'NONE',  ( -19.14573057502622078, -7.035206014881003611, 2.480825453516233292 ) ) ;
#1211 = EDGE_LOOP ( 'NONE', ( #947, #458, #1307, #1068 ) ) ;
#1212 = ADVANCED_FACE ( 'NONE', ( #675 ), #1278, .F. ) ;
#1213 = ADVANCED_FACE ( 'NONE', ( #957 ), #1248, .F. ) ;
#1214 = DIRECTION ( 'NONE',  ( -0.000000000000000000, 1.000000000000000000, -3.491481338843133355E-15 ) ) ;
#1215 = CARTESIAN_POINT ( 'NONE',  ( -21.32500000000010232, -5.398606014881004889, 0.000000000000000000 ) ) ;
#1216 = VERTEX_POINT ( 'NONE', #443 ) ;
#1217 = VERTEX_POINT ( 'NONE', #33 ) ;
#1218 = FACE_OUTER_BOUND ( 'NONE', #71, .T. ) ;
#1219 = DIRECTION ( 'NONE',  ( 0.000000000000000000, 2.891205793294679017E-15, 1.000000000000000000 ) ) ;
#1220 = ORIENTED_EDGE ( 'NONE', *, *, #876, .F. ) ;
#1221 = DIRECTION ( 'NONE',  ( -1.000000000000000000, 0.000000000000000000, 0.000000000000000000 ) ) ;
#1222 = VECTOR ( 'NONE', #346, 1000.000000000000000 ) ;
#1223 = CYLINDRICAL_SURFACE ( 'NONE', #468, 1.199999999999992628 ) ;
#1224 = DIRECTION ( 'NONE',  ( -0.000000000000000000, -0.000000000000000000, -1.000000000000000000 ) ) ;
#1225 = AXIS2_PLACEMENT_3D ( 'NONE', #606, #1316, #817 ) ;
#1226 = CARTESIAN_POINT ( 'NONE',  ( -22.99999999999995737, -6.298606014881002579, 0.7366000000000000325 ) ) ;
#1227 = EDGE_CURVE ( 'NONE', #505, #697, #233, .T. ) ;
#1228 = DIRECTION ( 'NONE',  ( -5.104978914587728121E-29, 6.982962677686267499E-15, -1.000000000000000000 ) ) ;
#1229 = EDGE_CURVE ( 'NONE', #1137, #1035, #331, .T. ) ;
#1230 = ORIENTED_EDGE ( 'NONE', *, *, #410, .F. ) ;
#1231 = DIRECTION ( 'NONE',  ( -0.000000000000000000, -0.000000000000000000, 1.000000000000000000 ) ) ;
#1232 = ORIENTED_EDGE ( 'NONE', *, *, #691, .F. ) ;
#1233 = CARTESIAN_POINT ( 'NONE',  ( 22.99999999999989697, -9.035206014881090653, -22.28985091599319190 ) ) ;
#1234 = CARTESIAN_POINT ( 'NONE',  ( -22.99999999999995381, -6.298606014881002579, -2.000000000000141664 ) ) ;
#1235 = ORIENTED_EDGE ( 'NONE', *, *, #38, .F. ) ;
#1236 = LINE ( 'NONE', #1042, #1182 ) ;
#1237 = FACE_OUTER_BOUND ( 'NONE', #663, .T. ) ;
#1238 = CARTESIAN_POINT ( 'NONE',  ( 3.550000000000047784, -5.298606014881002579, 0.000000000000000000 ) ) ;
#1239 = DIRECTION ( 'NONE',  ( -0.000000000000000000, -0.000000000000000000, 1.000000000000000000 ) ) ;
#1240 = AXIS2_PLACEMENT_3D ( 'NONE', #391, #1224, #519 ) ;
#1241 = VERTEX_POINT ( 'NONE', #222 ) ;
#1242 = EDGE_CURVE ( 'NONE', #95, #63, #216, .T. ) ;
#1243 = ADVANCED_FACE ( 'NONE', ( #15 ), #885, .F. ) ;
#1244 = DIRECTION ( 'NONE',  ( 0.000000000000000000, 0.000000000000000000, -1.000000000000000000 ) ) ;
#1245 = PLANE ( 'NONE',  #1117 ) ;
#1246 = CIRCLE ( 'NONE', #683, 2.200000000000000622 ) ;
#1247 = VECTOR ( 'NONE', #401, 1000.000000000000000 ) ;
#1248 = CONICAL_SURFACE ( 'NONE', #262, 2.200000000000000622, 0.7853981633974479459 ) ;
#1249 = FACE_OUTER_BOUND ( 'NONE', #1041, .T. ) ;
#1250 = ORIENTED_EDGE ( 'NONE', *, *, #353, .F. ) ;
#1251 = FACE_OUTER_BOUND ( 'NONE', #1180, .T. ) ;
#1252 = PLANE ( 'NONE',  #102 ) ;
#1253 = SURFACE_STYLE_FILL_AREA ( #534 ) ;
#1254 = EDGE_CURVE ( 'NONE', #711, #670, #66, .T. ) ;
#1255 = DIRECTION ( 'NONE',  ( 1.000000000000000000, 0.000000000000000000, 0.000000000000000000 ) ) ;
#1256 = ORIENTED_EDGE ( 'NONE', *, *, #376, .F. ) ;
#1257 = PLANE ( 'NONE',  #486 ) ;
#1258 = CARTESIAN_POINT ( 'NONE',  ( 0.4577717036866604805, -7.035206014881009828, 0.2808254535162325594 ) ) ;
#1259 = FACE_OUTER_BOUND ( 'NONE', #157, .T. ) ;
#1260 = EDGE_CURVE ( 'NONE', #505, #317, #841, .T. ) ;
#1261 = EDGE_CURVE ( 'NONE', #282, #790, #151, .T. ) ;
#1262 = CARTESIAN_POINT ( 'NONE',  ( 23.00000000000005684, -9.035206014881010717, 0.7366000000000091363 ) ) ;
#1263 = ORIENTED_EDGE ( 'NONE', *, *, #1229, .F. ) ;
#1264 = CARTESIAN_POINT ( 'NONE',  ( -19.14573057502622078, -7.035206014881001835, 2.480825453516233292 ) ) ;
#1265 = LINE ( 'NONE', #951, #301 ) ;
#1266 = DIRECTION ( 'NONE',  ( 0.000000000000000000, 3.491481338843133355E-15, 1.000000000000000000 ) ) ;
#1267 = AXIS2_PLACEMENT_3D ( 'NONE', #952, #430, #838 ) ;
#1268 = CARTESIAN_POINT ( 'NONE',  ( -19.14573057502622078, -7.035206014881003611, 2.480825453516233292 ) ) ;
#1269 = VECTOR ( 'NONE', #367, 1000.000000000000000 ) ;
#1270 = VERTEX_POINT ( 'NONE', #912 ) ;
#1271 = ADVANCED_FACE ( 'NONE', ( #493 ), #1223, .F. ) ;
#1272 = CARTESIAN_POINT ( 'NONE',  ( -22.10000000000010090, -5.398606014881004889, -2.000000000000000000 ) ) ;
#1273 = LINE ( 'NONE', #1057, #636 ) ;
#1274 = CARTESIAN_POINT ( 'NONE',  ( 20.79276119645001586, -8.035206014881007164, 1.280825453516236667 ) ) ;
#1275 = FACE_OUTER_BOUND ( 'NONE', #815, .T. ) ;
#1276 = ORIENTED_EDGE ( 'NONE', *, *, #360, .F. ) ;
#1277 = DIRECTION ( 'NONE',  ( -0.000000000000000000, 1.000000000000000000, -3.491481338843133355E-15 ) ) ;
#1278 = PLANE ( 'NONE',  #574 ) ;
#1279 = ADVANCED_FACE ( 'NONE', ( #56 ), #483, .F. ) ;
#1280 = LINE ( 'NONE', #1085, #797 ) ;
#1281 = ORIENTED_EDGE ( 'NONE', *, *, #1175, .T. ) ;
#1282 = EDGE_CURVE ( 'NONE', #732, #1216, #158, .T. ) ;
#1283 = DIRECTION ( 'NONE',  ( -0.000000000000000000, 1.000000000000000000, -3.491481338843133355E-15 ) ) ;
#1284 = PLANE ( 'NONE',  #860 ) ;
#1285 = VERTEX_POINT ( 'NONE', #264 ) ;
#1286 = CARTESIAN_POINT ( 'NONE',  ( 0.000000000000000000, -7.035206014881009828, 0.7366000000000073600 ) ) ;
#1287 = AXIS2_PLACEMENT_3D ( 'NONE', #1023, #1145, #199 ) ;
#1288 = ORIENTED_EDGE ( 'NONE', *, *, #956, .T. ) ;
#1289 = AXIS2_PLACEMENT_3D ( 'NONE', #129, #223, #121 ) ;
#1290 = ORIENTED_EDGE ( 'NONE', *, *, #322, .T. ) ;
#1291 = CARTESIAN_POINT ( 'NONE',  ( 0.4577717036866602029, -7.035206014881003611, 2.480825453516233292 ) ) ;
#1292 = EDGE_LOOP ( 'NONE', ( #880, #448, #6, #771 ) ) ;
#1293 = CARTESIAN_POINT ( 'NONE',  ( -12.89999999999995062, 2.955656850763491938, -2.000000000000000000 ) ) ;
#1294 = EDGE_CURVE ( 'NONE', #676, #464, #1332, .T. ) ;
#1295 = ORIENTED_EDGE ( 'NONE', *, *, #1337, .T. ) ;
#1296 = VERTEX_POINT ( 'NONE', #890 ) ;
#1297 = LINE ( 'NONE', #802, #1055 ) ;
#1298 = EDGE_LOOP ( 'NONE', ( #143, #1002, #1093, #1334 ) ) ;
#1299 = LINE ( 'NONE', #698, #1269 ) ;
#1300 = EDGE_CURVE ( 'NONE', #1046, #652, #1297, .T. ) ;
#1301 = ORIENTED_EDGE ( 'NONE', *, *, #333, .T. ) ;
#1302 = ORIENTED_EDGE ( 'NONE', *, *, #679, .F. ) ;
#1303 = ORIENTED_EDGE ( 'NONE', *, *, #362, .F. ) ;
#1304 = DIRECTION ( 'NONE',  ( -0.000000000000000000, -0.000000000000000000, -1.000000000000000000 ) ) ;
#1305 = AXIS2_PLACEMENT_3D ( 'NONE', #726, #380, #21 ) ;
#1306 = CARTESIAN_POINT ( 'NONE',  ( 0.000000000000000000, -7.035206014881009828, 0.7366000000000073600 ) ) ;
#1307 = ORIENTED_EDGE ( 'NONE', *, *, #299, .T. ) ;
#1308 = VECTOR ( 'NONE', #1017, 1000.000000000000000 ) ;
#1309 = EDGE_CURVE ( 'NONE', #556, #193, #696, .T. ) ;
#1310 = DIRECTION ( 'NONE',  ( 0.000000000000000000, 0.000000000000000000, -1.000000000000000000 ) ) ;
#1311 = CARTESIAN_POINT ( 'NONE',  ( 0.4577717036866602029, -9.035206014881007164, 2.480825453516239953 ) ) ;
#1312 = DIRECTION ( 'NONE',  ( -1.000000000000000000, -0.000000000000000000, -0.000000000000000000 ) ) ;
#1313 = ORIENTED_EDGE ( 'NONE', *, *, #622, .T. ) ;
#1314 =( LENGTH_UNIT ( ) NAMED_UNIT ( * ) SI_UNIT ( .MILLI., .METRE. ) );
#1315 = CYLINDRICAL_SURFACE ( 'NONE', #1240, 0.7750000000000013545 ) ;
#1316 = DIRECTION ( 'NONE',  ( 0.000000000000000000, -1.000000000000000000, 3.491481338843133355E-15 ) ) ;
#1317 = DIRECTION ( 'NONE',  ( 1.000000000000000000, 0.000000000000000000, 0.000000000000000000 ) ) ;
#1318 = VERTEX_POINT ( 'NONE', #365 ) ;
#1319 = EDGE_CURVE ( 'NONE', #678, #1137, #67, .T. ) ;
#1320 = CARTESIAN_POINT ( 'NONE',  ( 0.4577717036866602029, -9.035206014881007164, 2.480825453516239953 ) ) ;
#1321 = DIRECTION ( 'NONE',  ( 1.000000000000000000, 0.000000000000000000, 0.000000000000000000 ) ) ;
#1322 = ORIENTED_EDGE ( 'NONE', *, *, #238, .T. ) ;
#1323 = DIRECTION ( 'NONE',  ( 0.000000000000000000, 1.000000000000000000, -0.000000000000000000 ) ) ;
#1324 = LINE ( 'NONE', #1234, #858 ) ;
#1325 = VERTEX_POINT ( 'NONE', #808 ) ;
#1326 = AXIS2_PLACEMENT_3D ( 'NONE', #550, #861, #773 ) ;
#1327 = CARTESIAN_POINT ( 'NONE',  ( -23.00000000000010303, 13.99999999999983302, -2.000000000000000000 ) ) ;
#1328 = AXIS2_PLACEMENT_3D ( 'NONE', #1150, #615, #5 ) ;
#1329 = ORIENTED_EDGE ( 'NONE', *, *, #429, .F. ) ;
#1330 = AXIS2_PLACEMENT_3D ( 'NONE', #655, #358, #1266 ) ;
#1331 = CARTESIAN_POINT ( 'NONE',  ( 0.4577717036866602029, -7.035206014880994729, 4.680825453516233914 ) ) ;
#1332 = CIRCLE ( 'NONE', #665, 1.199999999999999734 ) ;
#1333 = CARTESIAN_POINT ( 'NONE',  ( 20.79276119645001586, -8.035206014881003611, 2.480825453516236401 ) ) ;
#1334 = ORIENTED_EDGE ( 'NONE', *, *, #537, .T. ) ;
#1335 = DIRECTION ( 'NONE',  ( -0.000000000000000000, -0.000000000000000000, -1.000000000000000000 ) ) ;
#1336 = EDGE_LOOP ( 'NONE', ( #769, #209, #618 ) ) ;
#1337 = EDGE_CURVE ( 'NONE', #1105, #189, #145, .T. ) ;
#1338 = DIRECTION ( 'NONE',  ( 0.000000000000000000, 0.000000000000000000, 1.000000000000000000 ) ) ;
#1339 = VERTEX_POINT ( 'NONE', #1107 ) ;
#1340 = LINE ( 'NONE', #712, #879 ) ;
#1341 = FACE_BOUND ( 'NONE', #469, .T. ) ;
#1342 = DIRECTION ( 'NONE',  ( -0.000000000000000000, -0.000000000000000000, -1.000000000000000000 ) ) ;
#1343 = ORIENTED_EDGE ( 'NONE', *, *, #1260, .T. ) ;
#1344 = VECTOR ( 'NONE', #113, 1000.000000000000000 ) ;
#1345 = CARTESIAN_POINT ( 'NONE',  ( 1.798546691266980746, -7.035206014881009828, 0.7366000000000073600 ) ) ;
#1346 = PLANE ( 'NONE',  #921 ) ;
ENDSEC;
END-ISO-10303-21;
